SplineFontDB: 3.2
FontName: FGJennifer
FullName: FG Jennifer
FamilyName: FG Jennifer
Weight: Book
Copyright: Copyright (c) Jennifer fonted by Font Garden, 1999. All rights reserved.
Version: 1999; 1.0, initial release
ItalicAngle: 0
UnderlinePosition: -100
UnderlineWidth: 50
Ascent: 800
Descent: 200
InvalidEm: 0
sfntRevision: 0x00010000
LayerCount: 2
Layer: 0 1 "Atr+AOEA-s" 1
Layer: 1 1 "Fore" 0
XUID: [1021 968 892426159 27493]
StyleMap: 0x0040
FSType: 0
OS2Version: 2
OS2_WeightWidthSlopeOnly: 0
OS2_UseTypoMetrics: 0
CreationTime: 942329356
ModificationTime: 1746094467
PfmFamily: 17
TTFWeight: 400
TTFWidth: 5
LineGap: 5
VLineGap: 0
Panose: 2 0 5 5 2 0 0 2 0 2
OS2TypoAscent: 562
OS2TypoAOffset: 0
OS2TypoDescent: -363
OS2TypoDOffset: 0
OS2TypoLinegap: 10
OS2WinAscent: 679
OS2WinAOffset: 0
OS2WinDescent: 541
OS2WinDOffset: 0
HheadAscent: 679
HheadAOffset: 0
HheadDescent: -541
HheadDOffset: 0
OS2SubXSize: 100
OS2SubYSize: 100
OS2SubXOff: 0
OS2SubYOff: 140
OS2SupXSize: 100
OS2SupYSize: 100
OS2SupXOff: 0
OS2SupYOff: 140
OS2StrikeYSize: 50
OS2StrikeYPos: 250
OS2CapHeight: 650
OS2XHeight: 282
OS2Vendor: 'ftgd'
OS2CodePages: 00000001.00000000
OS2UnicodeRanges: 00000001.00000000.00000000.00000000
Lookup: 258 0 0 "'kern' Interletraje horizontal en Latin b+APoA-squeda 0" { "'kern' Interletraje horizontal en Latin b+APoA-squeda 0 subtabla"  } ['kern' ('latn' <'dflt' > ) ]
DEI: 91125
TtTable: prep
PUSHW_1
 0
CALL
SVTCA[y-axis]
PUSHW_3
 1
 2
 2
CALL
SVTCA[x-axis]
PUSHW_3
 3
 2
 2
CALL
SVTCA[x-axis]
PUSHW_7
 3
 131
 119
 92
 66
 40
 8
CALL
PUSHW_7
 4
 158
 119
 92
 66
 40
 8
CALL
SVTCA[y-axis]
PUSHW_7
 1
 131
 119
 92
 66
 40
 8
CALL
PUSHW_7
 2
 158
 119
 92
 66
 40
 8
CALL
SVTCA[y-axis]
PUSHW_3
 5
 4
 7
CALL
PUSHW_1
 0
DUP
RCVT
RDTG
ROUND[Black]
RTG
WCVTP
EndTTInstrs
TtTable: fpgm
PUSHW_1
 0
FDEF
MPPEM
PUSHW_1
 0
LT
IF
PUSHB_2
 1
 1
INSTCTRL
EIF
PUSHW_1
 511
SCANCTRL
PUSHW_1
 68
SCVTCI
PUSHW_2
 0
 3
SDS
SDB
ENDF
PUSHW_1
 1
FDEF
DUP
DUP
RCVT
ROUND[Black]
WCVTP
PUSHB_1
 1
ADD
ENDF

StartChar: C
Encoding: 67 67 4
Width: 510
GlyphClass: 1
Flags: W
LayerCount: 2
Fore
SplineSet
8 115 m 0,0,1
 8 127 8 127 9 142 c 128,-1,2
 10 157 10 157 22.5 181.5 c 128,-1,3
 35 206 35 206 64 244.5 c 128,-1,4
 93 283 93 283 150 343 c 2,5,-1
 277 479 l 2,6,7
 293 497 293 497 316.5 512.5 c 128,-1,8
 340 528 340 528 364 540 c 128,-1,9
 388 552 388 552 409 560.5 c 128,-1,10
 430 569 430 569 442 573 c 0,11,12
 444 574 444 574 452 576.5 c 128,-1,13
 460 579 460 579 463 580 c 2,14,-1
 466 580 l 2,15,16
 483 580 483 580 500 577.5 c 128,-1,17
 517 575 517 575 531 568 c 128,-1,18
 545 561 545 561 553.5 548.5 c 128,-1,19
 562 536 562 536 562 517 c 0,20,21
 562 500 562 500 549 468.5 c 128,-1,22
 536 437 536 437 517.5 405.5 c 128,-1,23
 499 374 499 374 479 351 c 128,-1,24
 459 328 459 328 446 328 c 0,25,26
 438 328 438 328 436.5 334 c 128,-1,27
 435 340 435 340 435 346 c 0,28,29
 435 367 435 367 449.5 385.5 c 128,-1,30
 464 404 464 404 481 422.5 c 128,-1,31
 498 441 498 441 512.5 462 c 128,-1,32
 527 483 527 483 527 510 c 0,33,34
 527 530 527 530 520 538 c 128,-1,35
 513 546 513 546 493 546 c 0,36,37
 469 546 469 546 444.5 539 c 128,-1,38
 420 532 420 532 398 521.5 c 128,-1,39
 376 511 376 511 357 497 c 128,-1,40
 338 483 338 483 326 470 c 2,41,-1
 114 245 l 1,42,43
 104 228 104 228 93 214 c 128,-1,44
 82 200 82 200 72.5 185.5 c 128,-1,45
 63 171 63 171 56.5 155 c 128,-1,46
 50 139 50 139 50 118 c 256,47,48
 50 97 50 97 60 81.5 c 128,-1,49
 70 66 70 66 86 55.5 c 128,-1,50
 102 45 102 45 121.5 40 c 128,-1,51
 141 35 141 35 159 35 c 0,52,53
 191 35 191 35 216 39.5 c 128,-1,54
 241 44 241 44 268 56 c 0,55,56
 270 57 270 57 279.5 62.5 c 128,-1,57
 289 68 289 68 300 74.5 c 128,-1,58
 311 81 311 81 321.5 86 c 128,-1,59
 332 91 332 91 337 91 c 0,60,61
 352 91 352 91 352 77 c 256,62,63
 352 63 352 63 340 52.5 c 128,-1,64
 328 42 328 42 309.5 33 c 128,-1,65
 291 24 291 24 268.5 18 c 128,-1,66
 246 12 246 12 225 8 c 128,-1,67
 204 4 204 4 187 2 c 128,-1,68
 170 0 170 0 163 0 c 2,69,-1
 154 0 l 1,70,-1
 129 0 l 1,71,-1
 121 0 l 1,72,73
 103 12 103 12 83 20 c 128,-1,74
 63 28 63 28 46.5 39 c 128,-1,75
 30 50 30 50 19 67.5 c 128,-1,76
 8 85 8 85 8 115 c 0,0,1
EndSplineSet
EndChar

StartChar: D
Encoding: 68 68 5
Width: 639
GlyphClass: 1
Flags: W
LayerCount: 2
Fore
SplineSet
4 6 m 0,0,1
 4 23 4 23 17 45.5 c 128,-1,2
 30 68 30 68 49.5 93 c 128,-1,3
 69 118 69 118 91.5 144 c 128,-1,4
 114 170 114 170 133.5 194 c 128,-1,5
 153 218 153 218 166 238.5 c 128,-1,6
 179 259 179 259 179 272 c 0,7,8
 179 283 179 283 175 293 c 128,-1,9
 171 303 171 303 171 314 c 0,10,11
 171 334 171 334 184 362.5 c 128,-1,12
 197 391 197 391 218 422.5 c 128,-1,13
 239 454 239 454 265 485 c 128,-1,14
 291 516 291 516 317.5 541 c 128,-1,15
 344 566 344 566 368 581.5 c 128,-1,16
 392 597 392 597 409 597 c 2,17,-1
 514 597 l 2,18,19
 527 597 527 597 544.5 583 c 128,-1,20
 562 569 562 569 578.5 549.5 c 128,-1,21
 595 530 595 530 608 510 c 128,-1,22
 621 490 621 490 626 478 c 0,23,24
 626 472 626 472 627 455 c 128,-1,25
 628 438 628 438 628 425 c 2,26,-1
 628 412 l 2,27,28
 628 341 628 341 609 267 c 128,-1,29
 590 193 590 193 551 133 c 128,-1,30
 512 73 512 73 453 34.5 c 128,-1,31
 394 -4 394 -4 315 -4 c 0,32,33
 280 -4 280 -4 251.5 2 c 128,-1,34
 223 8 223 8 202 23 c 128,-1,35
 181 38 181 38 169.5 64 c 128,-1,36
 158 90 158 90 158 129 c 1,37,-1
 151 136 l 1,38,39
 137 124 137 124 120.5 100.5 c 128,-1,40
 104 77 104 77 87.5 53.5 c 128,-1,41
 71 30 71 30 55 13 c 128,-1,42
 39 -4 39 -4 26 -4 c 0,43,44
 20 -4 20 -4 12 -2 c 128,-1,45
 4 0 4 0 4 6 c 0,0,1
199 118 m 0,46,47
 199 70 199 70 225 46.5 c 128,-1,48
 251 23 251 23 299 23 c 256,49,50
 347 23 347 23 388.5 40.5 c 128,-1,51
 430 58 430 58 463 87.5 c 128,-1,52
 496 117 496 117 521.5 156.5 c 128,-1,53
 547 196 547 196 564 240 c 128,-1,54
 581 284 581 284 590 330 c 128,-1,55
 599 376 599 376 599 418 c 0,56,57
 599 446 599 446 590.5 473.5 c 128,-1,58
 582 501 582 501 566 522.5 c 128,-1,59
 550 544 550 544 526.5 557 c 128,-1,60
 503 570 503 570 473 570 c 0,61,62
 422 570 422 570 383.5 542.5 c 128,-1,63
 345 515 345 515 312 478 c 1,64,65
 316 451 316 451 303.5 422.5 c 128,-1,66
 291 394 291 394 274 366.5 c 128,-1,67
 257 339 257 339 242 314.5 c 128,-1,68
 227 290 227 290 227 272 c 0,69,70
 227 263 227 263 235.5 256 c 128,-1,71
 244 249 244 249 255 244.5 c 128,-1,72
 266 240 266 240 276.5 237.5 c 128,-1,73
 287 235 287 235 291 234 c 0,74,75
 294 233 294 233 303 231.5 c 128,-1,76
 312 230 312 230 322 229 c 128,-1,77
 332 228 332 228 341 227.5 c 128,-1,78
 350 227 350 227 353 227 c 0,79,80
 354 226 354 226 354.5 223.5 c 128,-1,81
 355 221 355 221 355 220 c 0,82,83
 355 212 355 212 346.5 208.5 c 128,-1,84
 338 205 338 205 327 204 c 128,-1,85
 316 203 316 203 306 204 c 128,-1,86
 296 205 296 205 294 205 c 0,87,88
 275 205 275 205 258.5 209 c 128,-1,89
 242 213 242 213 224 213 c 0,90,91
 215 213 215 213 210 200.5 c 128,-1,92
 205 188 205 188 202.5 171.5 c 128,-1,93
 200 155 200 155 199.5 139.5 c 128,-1,94
 199 124 199 124 199 118 c 0,46,47
EndSplineSet
EndChar

StartChar: E
Encoding: 69 69 6
Width: 527
GlyphClass: 1
Flags: W
LayerCount: 2
Fore
SplineSet
9 70 m 0,0,1
 9 97 9 97 27.5 119 c 128,-1,2
 46 141 46 141 66 155 c 0,3,4
 74 161 74 161 94.5 175 c 128,-1,5
 115 189 115 189 138.5 205 c 128,-1,6
 162 221 162 221 183 234.5 c 128,-1,7
 204 248 204 248 213 253 c 0,8,9
 214 253 214 253 216.5 255.5 c 128,-1,10
 219 258 219 258 220 260 c 2,11,-1
 220 263 l 2,12,13
 220 276 220 276 216 287.5 c 128,-1,14
 212 299 212 299 212 312 c 0,15,16
 212 338 212 338 225 361 c 128,-1,17
 238 384 238 384 257 403.5 c 128,-1,18
 276 423 276 423 298.5 439.5 c 128,-1,19
 321 456 321 456 339 469 c 0,20,21
 346 474 346 474 363.5 486 c 128,-1,22
 381 498 381 498 401.5 511 c 128,-1,23
 422 524 422 524 439.5 536 c 128,-1,24
 457 548 457 548 464 553 c 0,25,26
 483 557 483 557 500 565.5 c 128,-1,27
 517 574 517 574 533.5 582 c 128,-1,28
 550 590 550 590 567 596.5 c 128,-1,29
 584 603 584 603 604 603 c 0,30,31
 613 603 613 603 624 601.5 c 128,-1,32
 635 600 635 600 645 596.5 c 128,-1,33
 655 593 655 593 661.5 585.5 c 128,-1,34
 668 578 668 578 668 566 c 0,35,36
 668 553 668 553 649 540.5 c 128,-1,37
 630 528 630 528 605 518.5 c 128,-1,38
 580 509 580 509 556.5 503 c 128,-1,39
 533 497 533 497 523 497 c 0,40,41
 517 497 517 497 515 502 c 128,-1,42
 513 507 513 507 513 512 c 0,43,44
 513 518 513 518 520 522.5 c 128,-1,45
 527 527 527 527 536 530.5 c 128,-1,46
 545 534 545 534 552.5 536 c 128,-1,47
 560 538 560 538 562 539 c 0,48,49
 565 541 565 541 569.5 543 c 128,-1,50
 574 545 574 545 579 547 c 0,51,52
 584 550 584 550 590 553 c 1,53,-1
 590 558 l 1,54,55
 572 558 572 558 540 545.5 c 128,-1,56
 508 533 508 533 470.5 513 c 128,-1,57
 433 493 433 493 394.5 467.5 c 128,-1,58
 356 442 356 442 325 415 c 128,-1,59
 294 388 294 388 274 362.5 c 128,-1,60
 254 337 254 337 254 317 c 0,61,62
 254 311 254 311 254 299 c 128,-1,63
 254 287 254 287 265 287 c 0,64,65
 277 287 277 287 289 292.5 c 128,-1,66
 301 298 301 298 312.5 305 c 128,-1,67
 324 312 324 312 336.5 317.5 c 128,-1,68
 349 323 349 323 363 323 c 256,69,70
 377 323 377 323 389.5 319 c 128,-1,71
 402 315 402 315 402 298 c 0,72,73
 402 275 402 275 386 264 c 128,-1,74
 370 253 370 253 348 248.5 c 128,-1,75
 326 244 326 244 303.5 243 c 128,-1,76
 281 242 281 242 269 239 c 0,77,78
 262 238 262 238 243.5 228 c 128,-1,79
 225 218 225 218 201 203 c 128,-1,80
 177 188 177 188 150.5 169 c 128,-1,81
 124 150 124 150 102 131 c 128,-1,82
 80 112 80 112 65.5 95 c 128,-1,83
 51 78 51 78 51 67 c 0,84,85
 51 51 51 51 63.5 37.5 c 128,-1,86
 76 24 76 24 87 15 c 1,87,-1
 98 15 l 2,88,89
 106 15 106 15 115 14.5 c 128,-1,90
 124 14 124 14 132 14 c 2,91,-1
 143 14 l 2,92,93
 182 14 182 14 227.5 20.5 c 128,-1,94
 273 27 273 27 311 36 c 0,95,96
 313 36 313 36 327 40.5 c 128,-1,97
 341 45 341 45 359 50.5 c 128,-1,98
 377 56 377 56 394.5 62 c 128,-1,99
 412 68 412 68 422 71 c 0,100,101
 424 71 424 71 429.5 74 c 128,-1,102
 435 77 435 77 436 78 c 2,103,-1
 443 78 l 2,104,105
 449 78 449 78 457 76.5 c 128,-1,106
 465 75 465 75 465 68 c 0,107,108
 465 60 465 60 461.5 49.5 c 128,-1,109
 458 39 458 39 450 36 c 0,110,111
 438 31 438 31 408.5 21 c 128,-1,112
 379 11 379 11 347 0.5 c 128,-1,113
 315 -10 315 -10 288.5 -18 c 128,-1,114
 262 -26 262 -26 255 -26 c 2,115,-1
 108 -26 l 2,116,117
 91 -26 91 -26 73 -17 c 128,-1,118
 55 -8 55 -8 41 5.5 c 128,-1,119
 27 19 27 19 18 36 c 128,-1,120
 9 53 9 53 9 70 c 0,0,1
EndSplineSet
EndChar

StartChar: F
Encoding: 70 70 7
Width: 527
GlyphClass: 1
Flags: W
LayerCount: 2
Fore
SplineSet
220 197 m 2,0,1
 223 206 223 206 229 213.5 c 128,-1,2
 235 221 235 221 240.5 228.5 c 128,-1,3
 246 236 246 236 250.5 244 c 128,-1,4
 255 252 255 252 255 262 c 0,5,6
 255 268 255 268 253.5 274.5 c 128,-1,7
 252 281 252 281 244 281 c 0,8,9
 235 281 235 281 220 278 c 128,-1,10
 205 275 205 275 189 270.5 c 128,-1,11
 173 266 173 266 158.5 259.5 c 128,-1,12
 144 253 144 253 136 246 c 2,13,-1
 38 155 l 2,14,15
 37 154 37 154 31.5 151.5 c 128,-1,16
 26 149 26 149 24 148 c 0,17,18
 23 147 23 147 22 147 c 2,19,-1
 20 147 l 2,20,21
 14 147 14 147 11.5 152 c 128,-1,22
 9 157 9 157 9 162 c 0,23,24
 9 163 9 163 9.5 165.5 c 128,-1,25
 10 168 10 168 10 169 c 0,26,27
 29 189 29 189 49.5 211.5 c 128,-1,28
 70 234 70 234 93.5 254 c 128,-1,29
 117 274 117 274 143 288.5 c 128,-1,30
 169 303 169 303 199 308 c 0,31,32
 201 308 201 308 209 309 c 128,-1,33
 217 310 217 310 226.5 311.5 c 128,-1,34
 236 313 236 313 244.5 314 c 128,-1,35
 253 315 253 315 255 315 c 0,36,37
 273 318 273 318 284 326.5 c 128,-1,38
 295 335 295 335 302.5 346.5 c 128,-1,39
 310 358 310 358 316 371.5 c 128,-1,40
 322 385 322 385 331 399 c 0,41,42
 337 408 337 408 352 431 c 128,-1,43
 367 454 367 454 383.5 479.5 c 128,-1,44
 400 505 400 505 415 528 c 128,-1,45
 430 551 430 551 436 560 c 2,46,-1
 437 563 l 2,47,48
 437 570 437 570 432.5 572 c 128,-1,49
 428 574 428 574 423 574 c 0,50,51
 399 574 399 574 367.5 565.5 c 128,-1,52
 336 557 336 557 303 544 c 128,-1,53
 270 531 270 531 240.5 516.5 c 128,-1,54
 211 502 211 502 192 490 c 0,55,56
 188 487 188 487 176.5 478.5 c 128,-1,57
 165 470 165 470 151.5 460 c 128,-1,58
 138 450 138 450 125.5 440.5 c 128,-1,59
 113 431 113 431 108 427 c 0,60,61
 98 419 98 419 91 411.5 c 128,-1,62
 84 404 84 404 77.5 398 c 128,-1,63
 71 392 71 392 63 388 c 128,-1,64
 55 384 55 384 43 384 c 1,65,66
 43 412 43 412 65.5 438 c 128,-1,67
 88 464 88 464 123.5 487 c 128,-1,68
 159 510 159 510 203 529.5 c 128,-1,69
 247 549 247 549 290 565 c 128,-1,70
 333 581 333 581 370 592 c 128,-1,71
 407 603 407 603 429 609 c 0,72,73
 445 613 445 613 458 620 c 128,-1,74
 471 627 471 627 484 633.5 c 128,-1,75
 497 640 497 640 510.5 645 c 128,-1,76
 524 650 524 650 541 650 c 1,77,-1
 541 630 l 1,78,79
 509 603 509 603 479.5 566.5 c 128,-1,80
 450 530 450 530 424 489.5 c 128,-1,81
 398 449 398 449 376 407.5 c 128,-1,82
 354 366 354 366 338 329 c 1,83,-1
 338 326 l 1,84,-1
 338 322 l 1,85,-1
 345 315 l 1,86,87
 370 307 370 307 385.5 304 c 128,-1,88
 401 301 401 301 422 301 c 0,89,90
 436 301 436 301 449 305.5 c 128,-1,91
 462 310 462 310 474 315.5 c 128,-1,92
 486 321 486 321 498.5 325.5 c 128,-1,93
 511 330 511 330 524 330 c 0,94,95
 530 330 530 330 532.5 325 c 128,-1,96
 535 320 535 320 535 315 c 0,97,98
 535 302 535 302 521.5 293 c 128,-1,99
 508 284 508 284 489.5 278 c 128,-1,100
 471 272 471 272 453 269 c 128,-1,101
 435 266 435 266 426 266 c 0,102,103
 399 266 399 266 373.5 273.5 c 128,-1,104
 348 281 348 281 320 281 c 0,105,106
 315 281 315 281 306 267.5 c 128,-1,107
 297 254 297 254 287 237 c 128,-1,108
 277 220 277 220 268 204 c 128,-1,109
 259 188 259 188 255 183 c 256,110,111
 251 178 251 178 235.5 158.5 c 128,-1,112
 220 139 220 139 202 116.5 c 128,-1,113
 184 94 184 94 169 74.5 c 128,-1,114
 154 55 154 55 150 50 c 0,115,116
 141 38 141 38 135.5 27 c 128,-1,117
 130 16 130 16 124 7.5 c 128,-1,118
 118 -1 118 -1 108.5 -5.5 c 128,-1,119
 99 -10 99 -10 83 -10 c 1,120,121
 83 6 83 6 86.5 21 c 128,-1,122
 90 36 90 36 101 50 c 2,123,-1
 220 197 l 2,0,1
EndSplineSet
EndChar

StartChar: G
Encoding: 71 71 8
Width: 674
GlyphClass: 1
Flags: W
LayerCount: 2
Fore
SplineSet
118 29 m 0,0,1
 107 29 107 29 97 25 c 128,-1,2
 87 21 87 21 77.5 16 c 128,-1,3
 68 11 68 11 58 7 c 128,-1,4
 48 3 48 3 36 3 c 1,5,6
 36 18 36 18 44 26 c 128,-1,7
 52 34 52 34 62 40.5 c 128,-1,8
 72 47 72 47 80 55 c 128,-1,9
 88 63 88 63 88 77 c 0,10,11
 88 79 88 79 87.5 84 c 128,-1,12
 87 89 87 89 87 91 c 0,13,14
 52 122 52 122 31 156 c 128,-1,15
 10 190 10 190 10 238 c 0,16,17
 10 246 10 246 12.5 253 c 128,-1,18
 15 260 15 260 24 260 c 0,19,20
 37 260 37 260 45 245 c 2,21,-1
 94 147 l 2,22,23
 99 136 99 136 112 134 c 128,-1,24
 125 132 125 132 136 132 c 0,25,26
 151 132 151 132 170 145 c 128,-1,27
 189 158 189 158 209.5 179 c 128,-1,28
 230 200 230 200 249.5 225.5 c 128,-1,29
 269 251 269 251 284 276.5 c 128,-1,30
 299 302 299 302 308.5 324 c 128,-1,31
 318 346 318 346 318 360 c 2,32,-1
 318 363 l 1,33,34
 313 373 313 373 309 379.5 c 128,-1,35
 305 386 305 386 302 392.5 c 128,-1,36
 299 399 299 399 297.5 407.5 c 128,-1,37
 296 416 296 416 296 430 c 0,38,39
 296 447 296 447 305 475 c 128,-1,40
 314 503 314 503 328.5 529.5 c 128,-1,41
 343 556 343 556 361 575.5 c 128,-1,42
 379 595 379 595 398 595 c 0,43,44
 414 595 414 595 419 585.5 c 128,-1,45
 424 576 424 576 424 563 c 0,46,47
 424 560 424 560 423.5 553 c 128,-1,48
 423 546 423 546 422 545 c 2,49,-1
 380 405 l 1,50,-1
 380 398 l 2,51,52
 380 384 380 384 394 384 c 2,53,-1
 401 384 l 2,54,55
 405 385 405 385 413 390 c 128,-1,56
 421 395 421 395 430 401 c 128,-1,57
 439 407 439 407 446.5 412 c 128,-1,58
 454 417 454 417 457 419 c 0,59,60
 492 450 492 450 520 478.5 c 128,-1,61
 548 507 548 507 572 537 c 128,-1,62
 596 567 596 567 617.5 599.5 c 128,-1,63
 639 632 639 632 660 671 c 0,64,65
 665 679 665 679 674 679 c 0,66,67
 682 679 682 679 688.5 674 c 128,-1,68
 695 669 695 669 695 661 c 2,69,-1
 695 657 l 1,70,71
 674 595 674 595 660 521 c 128,-1,72
 646 447 646 447 629.5 372.5 c 128,-1,73
 613 298 613 298 589.5 228 c 128,-1,74
 566 158 566 158 526 104.5 c 128,-1,75
 486 51 486 51 424.5 18.5 c 128,-1,76
 363 -14 363 -14 272 -14 c 0,77,78
 253 -14 253 -14 232 -13 c 128,-1,79
 211 -12 211 -12 192 -6 c 0,80,81
 184 -3 184 -3 175 3 c 128,-1,82
 166 9 166 9 156 14.5 c 128,-1,83
 146 20 146 20 136.5 24.5 c 128,-1,84
 127 29 127 29 118 29 c 0,0,1
156 56 m 0,85,86
 156 47 156 47 163.5 40.5 c 128,-1,87
 171 34 171 34 181.5 29.5 c 128,-1,88
 192 25 192 25 202.5 21.5 c 128,-1,89
 213 18 213 18 220 14 c 1,90,-1
 304 14 l 1,91,92
 314 22 314 22 327.5 26 c 128,-1,93
 341 30 341 30 354.5 32.5 c 128,-1,94
 368 35 368 35 382 38.5 c 128,-1,95
 396 42 396 42 408 49 c 0,96,97
 454 75 454 75 481.5 107 c 128,-1,98
 509 139 509 139 526 176.5 c 128,-1,99
 543 214 543 214 555 257 c 128,-1,100
 567 300 567 300 583 349 c 0,101,102
 595 385 595 385 604.5 425 c 128,-1,103
 614 465 614 465 614 503 c 1,104,-1
 604 503 l 1,105,106
 571 466 571 466 535 431.5 c 128,-1,107
 499 397 499 397 457 370 c 0,108,109
 448 364 448 364 432.5 359.5 c 128,-1,110
 417 355 417 355 401.5 350.5 c 128,-1,111
 386 346 386 346 372.5 341 c 128,-1,112
 359 336 359 336 353 329 c 0,113,114
 323 289 323 289 301 249.5 c 128,-1,115
 279 210 279 210 248 168 c 0,116,117
 243 162 243 162 230 147 c 128,-1,118
 217 132 217 132 202.5 115.5 c 128,-1,119
 188 99 188 99 175 84 c 128,-1,120
 162 69 162 69 157 63 c 0,121,122
 157 62 157 62 156.5 59.5 c 128,-1,123
 156 57 156 57 156 56 c 0,85,86
331 430 m 0,124,125
 331 426 331 426 332 426 c 1,126,127
 332 425 332 425 334.5 422.5 c 128,-1,128
 337 420 337 420 339 419 c 0,129,130
 346 424 346 424 353.5 436 c 128,-1,131
 361 448 361 448 367 462.5 c 128,-1,132
 373 477 373 477 377 491 c 128,-1,133
 381 505 381 505 381 514 c 0,134,135
 381 517 381 517 380 517 c 1,136,137
 380 524 380 524 373 524 c 0,138,139
 366 520 366 520 358.5 507.5 c 128,-1,140
 351 495 351 495 345 480.5 c 128,-1,141
 339 466 339 466 335 451.5 c 128,-1,142
 331 437 331 437 331 430 c 0,124,125
EndSplineSet
EndChar

StartChar: H
Encoding: 72 72 9
Width: 662
GlyphClass: 1
Flags: W
LayerCount: 2
Fore
SplineSet
337 1 m 0,0,1
 337 9 337 9 340.5 16.5 c 128,-1,2
 344 24 344 24 348 31 c 128,-1,3
 352 38 352 38 355.5 45 c 128,-1,4
 359 52 359 52 359 60 c 0,5,6
 359 64 359 64 358 64 c 1,7,8
 358 65 358 65 355.5 67.5 c 128,-1,9
 353 70 353 70 351 71 c 0,10,11
 336 71 336 71 319 73 c 128,-1,12
 302 75 302 75 284.5 78.5 c 128,-1,13
 267 82 267 82 250 87 c 128,-1,14
 233 92 233 92 219 99 c 0,15,16
 210 103 210 103 200.5 110 c 128,-1,17
 191 117 191 117 181 124 c 128,-1,18
 171 131 171 131 161 136 c 128,-1,19
 151 141 151 141 142 141 c 0,20,21
 136 141 136 141 134 140 c 128,-1,22
 132 139 132 139 128 134 c 0,23,24
 118 119 118 119 107.5 96.5 c 128,-1,25
 97 74 97 74 84 54 c 128,-1,26
 71 34 71 34 54 19.5 c 128,-1,27
 37 5 37 5 14 5 c 1,28,29
 14 31 14 31 27.5 53.5 c 128,-1,30
 41 76 41 76 57 96.5 c 128,-1,31
 73 117 73 117 86.5 136.5 c 128,-1,32
 100 156 100 156 100 176 c 0,33,34
 100 184 100 184 95.5 191.5 c 128,-1,35
 91 199 91 199 85.5 206 c 128,-1,36
 80 213 80 213 74 219.5 c 128,-1,37
 68 226 68 226 65 232 c 0,38,39
 49 258 49 258 46 286 c 128,-1,40
 43 314 43 314 43 343 c 2,41,-1
 43 353 l 2,42,43
 43 360 43 360 43.5 368 c 128,-1,44
 44 376 44 376 44 382 c 2,45,-1
 44 392 l 1,46,47
 49 401 49 401 53 404 c 128,-1,48
 57 407 57 407 64 407 c 0,49,50
 68 407 68 407 75 405.5 c 128,-1,51
 82 404 82 404 82 399 c 2,52,-1
 82 281 l 2,53,54
 82 278 82 278 86 270 c 128,-1,55
 90 262 90 262 96 253 c 128,-1,56
 102 244 102 244 109 236 c 128,-1,57
 116 228 116 228 121 225 c 0,58,59
 121 224 121 224 122 224 c 2,60,-1
 124 224 l 1,61,-1
 126 224 l 2,62,63
 127 224 127 224 128 225 c 0,64,65
 129 225 129 225 131.5 227.5 c 128,-1,66
 134 230 134 230 135 232 c 0,67,68
 158 272 158 272 176.5 315 c 128,-1,69
 195 358 195 358 213 401 c 128,-1,70
 231 444 231 444 250.5 486 c 128,-1,71
 270 528 270 528 296 567 c 0,72,73
 297 567 297 567 300.5 567.5 c 128,-1,74
 304 568 304 568 306 568 c 0,75,76
 314 568 314 568 319 565 c 128,-1,77
 324 562 324 562 324 553 c 256,78,79
 324 544 324 544 318.5 531.5 c 128,-1,80
 313 519 313 519 310 511 c 0,81,82
 290 464 290 464 273.5 426 c 128,-1,83
 257 388 257 388 240.5 352 c 128,-1,84
 224 316 224 316 205.5 279 c 128,-1,85
 187 242 187 242 163 197 c 0,86,87
 163 196 163 196 162.5 193.5 c 128,-1,88
 162 191 162 191 162 190 c 0,89,90
 162 184 162 184 163 182 c 128,-1,91
 164 180 164 180 170 176 c 0,92,93
 212 148 212 148 249.5 133 c 128,-1,94
 287 118 287 118 338 118 c 2,95,-1
 347 118 l 2,96,97
 358 118 358 118 369.5 119 c 128,-1,98
 381 120 381 120 386 120 c 0,99,100
 395 125 395 125 409.5 149 c 128,-1,101
 424 173 424 173 442 209 c 128,-1,102
 460 245 460 245 480 289 c 128,-1,103
 500 333 500 333 520.5 378.5 c 128,-1,104
 541 424 541 424 561 467 c 128,-1,105
 581 510 581 510 598 543.5 c 128,-1,106
 615 577 615 577 628 597 c 128,-1,107
 641 617 641 617 649 617 c 256,108,109
 657 617 657 617 662 610 c 128,-1,110
 667 603 667 603 667 595 c 0,111,112
 667 593 667 593 666.5 591 c 128,-1,113
 666 589 666 589 666 588 c 2,114,-1
 463 176 l 2,115,116
 456 162 456 162 456 147 c 0,117,118
 456 144 456 144 457 139 c 128,-1,119
 458 134 458 134 463 134 c 0,120,121
 482 134 482 134 501 145 c 128,-1,122
 520 156 520 156 538 169.5 c 128,-1,123
 556 183 556 183 572.5 194 c 128,-1,124
 589 205 589 205 603 205 c 0,125,126
 614 205 614 205 619 201.5 c 128,-1,127
 624 198 624 198 624 186 c 0,128,129
 624 165 624 165 599 149 c 128,-1,130
 574 133 574 133 542 121 c 128,-1,131
 510 109 510 109 478.5 100 c 128,-1,132
 447 91 447 91 435 85 c 0,133,134
 420 77 420 77 412 61 c 128,-1,135
 404 45 404 45 397 28.5 c 128,-1,136
 390 12 390 12 381 -0.5 c 128,-1,137
 372 -13 372 -13 356 -13 c 0,138,139
 347 -13 347 -13 342 -10.5 c 128,-1,140
 337 -8 337 -8 337 1 c 0,0,1
EndSplineSet
EndChar

StartChar: I
Encoding: 73 73 10
Width: 551
GlyphClass: 1
Flags: W
LayerCount: 2
Fore
SplineSet
24 261 m 0,0,1
 32 261 32 261 34.5 251 c 128,-1,2
 37 241 37 241 39 226.5 c 128,-1,3
 41 212 41 212 46.5 195 c 128,-1,4
 52 178 52 178 66 164 c 128,-1,5
 80 150 80 150 106.5 141.5 c 128,-1,6
 133 133 133 133 178 135 c 1,7,-1
 178 124 l 2,8,9
 178 112 178 112 171 107.5 c 128,-1,10
 164 103 164 103 154 101.5 c 128,-1,11
 144 100 144 100 132.5 101 c 128,-1,12
 121 102 121 102 113 102 c 0,13,14
 101 102 101 102 101 90 c 0,15,16
 101 75 101 75 110.5 63.5 c 128,-1,17
 120 52 120 52 134 44.5 c 128,-1,18
 148 37 148 37 163.5 33 c 128,-1,19
 179 29 179 29 191 29 c 256,20,21
 203 29 203 29 223.5 33 c 128,-1,22
 244 37 244 37 264.5 44 c 128,-1,23
 285 51 285 51 302 60 c 128,-1,24
 319 69 319 69 325 79 c 1,25,26
 326 106 326 106 327 125.5 c 128,-1,27
 328 145 328 145 331 161.5 c 128,-1,28
 334 178 334 178 340.5 195 c 128,-1,29
 347 212 347 212 359 233 c 0,30,31
 367 243 367 243 383 264.5 c 128,-1,32
 399 286 399 286 419 314 c 128,-1,33
 439 342 439 342 460.5 372.5 c 128,-1,34
 482 403 482 403 502 430.5 c 128,-1,35
 522 458 522 458 538 480 c 128,-1,36
 554 502 554 502 562 512 c 0,37,38
 563 513 563 513 569.5 521 c 128,-1,39
 576 529 576 529 585 539 c 128,-1,40
 594 549 594 549 603 559 c 128,-1,41
 612 569 612 569 618 575 c 0,42,43
 629 586 629 586 641.5 598.5 c 128,-1,44
 654 611 654 611 670 611 c 0,45,46
 675 611 675 611 680.5 610.5 c 128,-1,47
 686 610 686 610 688 603 c 0,48,49
 688 600 688 600 688.5 590.5 c 128,-1,50
 689 581 689 581 689 579 c 0,51,52
 689 547 689 547 678 516 c 128,-1,53
 667 485 667 485 653 456 c 0,54,55
 628 402 628 402 603.5 353.5 c 128,-1,56
 579 305 579 305 551.5 260.5 c 128,-1,57
 524 216 524 216 491 174.5 c 128,-1,58
 458 133 458 133 415 93 c 1,59,-1
 415 89 l 1,60,-1
 415 86 l 2,61,62
 416 84 416 84 419 78.5 c 128,-1,63
 422 73 422 73 422 72 c 2,64,-1
 422 70 l 2,65,66
 423 68 423 68 423 68 c 1,67,-1
 422 65 l 2,68,69
 422 63 422 63 419.5 58 c 128,-1,70
 417 53 417 53 415 51 c 0,71,72
 383 54 383 54 356.5 45.5 c 128,-1,73
 330 37 330 37 304 26 c 128,-1,74
 278 15 278 15 251 5 c 128,-1,75
 224 -5 224 -5 192 -5 c 2,76,-1
 183 -5 l 2,77,78
 177 -5 177 -5 170.5 -4.5 c 128,-1,79
 164 -4 164 -4 158 -4 c 2,80,-1
 150 -4 l 1,81,82
 126 1 126 1 105.5 20.5 c 128,-1,83
 85 40 85 40 68.5 64.5 c 128,-1,84
 52 89 52 89 39.5 114 c 128,-1,85
 27 139 27 139 17 156 c 0,86,87
 15 158 15 158 12.5 163.5 c 128,-1,88
 10 169 10 169 10 170 c 2,89,-1
 10 254 l 2,90,91
 10 259 10 259 15.5 260 c 128,-1,92
 21 261 21 261 24 261 c 0,0,1
359 137 m 0,93,94
 359 129 359 129 363 121 c 128,-1,95
 367 113 367 113 377 113 c 0,96,97
 393 113 393 113 419.5 140 c 128,-1,98
 446 167 446 167 476 209 c 128,-1,99
 506 251 506 251 536.5 302 c 128,-1,100
 567 353 567 353 591 400 c 128,-1,101
 615 447 615 447 630.5 485 c 128,-1,102
 646 523 646 523 646 540 c 0,103,104
 646 547 646 547 639 547 c 1,105,-1
 576 484 l 2,106,107
 573 481 573 481 553 454 c 128,-1,108
 533 427 533 427 507 391.5 c 128,-1,109
 481 356 481 356 455.5 319.5 c 128,-1,110
 430 283 430 283 415 261 c 0,111,112
 406 248 406 248 396.5 233.5 c 128,-1,113
 387 219 387 219 378.5 203 c 128,-1,114
 370 187 370 187 364.5 170 c 128,-1,115
 359 153 359 153 359 137 c 0,93,94
EndSplineSet
EndChar

StartChar: J
Encoding: 74 74 11
Width: 469
GlyphClass: 1
Flags: W
LayerCount: 2
Fore
SplineSet
9 -201 m 0,0,1
 9 -167 9 -167 23 -129.5 c 128,-1,2
 37 -92 37 -92 59 -65 c 0,3,4
 69 -53 69 -53 83.5 -42 c 128,-1,5
 98 -31 98 -31 113 -20.5 c 128,-1,6
 128 -10 128 -10 141.5 1 c 128,-1,7
 155 12 155 12 164 24 c 1,8,-1
 164 28 l 2,9,10
 164 32 164 32 141 40.5 c 128,-1,11
 118 49 118 49 90.5 64.5 c 128,-1,12
 63 80 63 80 40 105 c 128,-1,13
 17 130 17 130 17 168 c 0,14,15
 17 190 17 190 29.5 212 c 128,-1,16
 42 234 42 234 60.5 254 c 128,-1,17
 79 274 79 274 99.5 290.5 c 128,-1,18
 120 307 120 307 136 318 c 0,19,20
 144 323 144 323 163 335 c 128,-1,21
 182 347 182 347 203 360 c 128,-1,22
 224 373 224 373 243 385 c 128,-1,23
 262 397 262 397 269 402 c 0,24,25
 272 404 272 404 282.5 409 c 128,-1,26
 293 414 293 414 296 416 c 2,27,-1
 506 569 l 2,28,29
 517 577 517 577 525 580.5 c 128,-1,30
 533 584 533 584 545 584 c 0,31,32
 556 584 556 584 559 578 c 128,-1,33
 562 572 562 572 562 562 c 0,34,35
 562 555 562 555 561 552.5 c 128,-1,36
 560 550 560 550 555 542 c 0,37,38
 489 436 489 436 426 330 c 128,-1,39
 363 224 363 224 303 115 c 0,40,41
 302 113 302 113 299.5 105 c 128,-1,42
 297 97 297 97 296 94 c 2,43,-1
 296 87 l 2,44,45
 296 76 296 76 307 72.5 c 128,-1,46
 318 69 318 69 331.5 65 c 128,-1,47
 345 61 345 61 356 52 c 128,-1,48
 367 43 367 43 367 21 c 0,49,50
 367 14 367 14 364 1 c 128,-1,51
 361 -12 361 -12 355.5 -25.5 c 128,-1,52
 350 -39 350 -39 342 -49 c 128,-1,53
 334 -59 334 -59 324 -59 c 0,54,55
 316 -59 316 -59 309.5 -51 c 128,-1,56
 303 -43 303 -43 303 -34 c 0,57,58
 303 -23 303 -23 310.5 -13.5 c 128,-1,59
 318 -4 318 -4 318 7 c 0,60,61
 318 21 318 21 312 23 c 128,-1,62
 306 25 306 25 293 25 c 0,63,64
 267 25 267 25 251 1.5 c 128,-1,65
 235 -22 235 -22 223 -57 c 128,-1,66
 211 -92 211 -92 201 -132.5 c 128,-1,67
 191 -173 191 -173 177 -208 c 128,-1,68
 163 -243 163 -243 142 -266.5 c 128,-1,69
 121 -290 121 -290 87 -290 c 0,70,71
 71 -290 71 -290 57 -281.5 c 128,-1,72
 43 -273 43 -273 32.5 -260 c 128,-1,73
 22 -247 22 -247 15.5 -231 c 128,-1,74
 9 -215 9 -215 9 -201 c 0,0,1
45 -202 m 0,75,76
 45 -210 45 -210 49 -219.5 c 128,-1,77
 53 -229 53 -229 59 -236.5 c 128,-1,78
 65 -244 65 -244 73.5 -249 c 128,-1,79
 82 -254 82 -254 91 -254 c 0,80,81
 102 -254 102 -254 114 -240 c 128,-1,82
 126 -226 126 -226 137.5 -204.5 c 128,-1,83
 149 -183 149 -183 159 -156.5 c 128,-1,84
 169 -130 169 -130 176 -104.5 c 128,-1,85
 183 -79 183 -79 187.5 -58 c 128,-1,86
 192 -37 192 -37 192 -26 c 0,87,88
 192 -23 192 -23 191.5 -16 c 128,-1,89
 191 -9 191 -9 185 -9 c 0,90,91
 183 -9 183 -9 178 -11.5 c 128,-1,92
 173 -14 173 -14 171 -16 c 0,93,94
 147 -33 147 -33 124.5 -52.5 c 128,-1,95
 102 -72 102 -72 84 -94.5 c 128,-1,96
 66 -117 66 -117 55.5 -144 c 128,-1,97
 45 -171 45 -171 45 -202 c 0,75,76
45 172 m 2,98,99
 45 140 45 140 66 121 c 128,-1,100
 87 102 87 102 116.5 91 c 128,-1,101
 146 80 146 80 177.5 76.5 c 128,-1,102
 209 73 209 73 231 73 c 0,103,104
 233 73 233 73 252 102 c 128,-1,105
 271 131 271 131 298.5 176 c 128,-1,106
 326 221 326 221 358 273.5 c 128,-1,107
 390 326 390 326 417 374 c 128,-1,108
 444 422 444 422 462 457 c 128,-1,109
 480 492 480 492 480 501 c 1,110,111
 479 501 479 501 475.5 500.5 c 128,-1,112
 472 500 472 500 471 500 c 0,113,114
 445 489 445 489 417 470.5 c 128,-1,115
 389 452 389 452 362 432 c 128,-1,116
 335 412 335 412 309 392.5 c 128,-1,117
 283 373 283 373 262 360 c 0,118,119
 260 359 260 359 254.5 356.5 c 128,-1,120
 249 354 249 354 248 353 c 0,121,122
 236 345 236 345 216.5 332.5 c 128,-1,123
 197 320 197 320 178 308 c 128,-1,124
 159 296 159 296 144.5 286.5 c 128,-1,125
 130 277 130 277 129 276 c 0,126,127
 108 259 108 259 82.5 232.5 c 128,-1,128
 57 206 57 206 45 178 c 1,129,-1
 45 172 l 2,98,99
EndSplineSet
EndChar

StartChar: K
Encoding: 75 75 12
Width: 550
GlyphClass: 1
Flags: W
LayerCount: 2
Fore
SplineSet
373 -69 m 1,0,-1
 373 -34 l 2,1,2
 373 1 373 1 387.5 34 c 128,-1,3
 402 67 402 67 419 99 c 128,-1,4
 436 131 436 131 450.5 164 c 128,-1,5
 465 197 465 197 465 232 c 2,6,-1
 465 240 l 2,7,8
 465 248 465 248 463 256.5 c 128,-1,9
 461 265 461 265 450 265 c 2,10,-1
 366 265 l 1,11,12
 361 260 361 260 347.5 248 c 128,-1,13
 334 236 334 236 318 222.5 c 128,-1,14
 302 209 302 209 288 197.5 c 128,-1,15
 274 186 274 186 269 182 c 0,16,17
 262 176 262 176 251 166.5 c 128,-1,18
 240 157 240 157 227.5 147.5 c 128,-1,19
 215 138 215 138 203 131.5 c 128,-1,20
 191 125 191 125 181 125 c 2,21,-1
 179 125 l 2,22,23
 178 125 178 125 178 126 c 1,24,25
 176 126 176 126 170.5 129 c 128,-1,26
 165 132 165 132 164 133 c 2,27,-1
 160 133 l 1,28,-1
 157 133 l 1,29,-1
 38 7 l 2,30,31
 37 6 37 6 31.5 3.5 c 128,-1,32
 26 1 26 1 24 0 c 2,33,-1
 20 0 l 1,34,-1
 17 0 l 2,35,36
 16 1 16 1 13.5 6.5 c 128,-1,37
 11 12 11 12 10 14 c 2,38,-1
 10 17 l 1,39,-1
 10 21 l 2,40,41
 12 24 12 24 17 31 c 128,-1,42
 22 38 22 38 27.5 46 c 128,-1,43
 33 54 33 54 38 60.5 c 128,-1,44
 43 67 43 67 45 70 c 0,45,46
 86 118 86 118 128 164.5 c 128,-1,47
 170 211 170 211 208.5 260 c 128,-1,48
 247 309 247 309 280.5 362 c 128,-1,49
 314 415 314 415 338 475 c 0,50,51
 339 476 339 476 339 478 c 2,52,-1
 339 482 l 2,53,54
 339 487 339 487 336.5 491.5 c 128,-1,55
 334 496 334 496 328 496 c 0,56,57
 308 496 308 496 284 477 c 128,-1,58
 260 458 260 458 236.5 435.5 c 128,-1,59
 213 413 213 413 193.5 394.5 c 128,-1,60
 174 376 174 376 164 376 c 0,61,62
 156 376 156 376 149 381.5 c 128,-1,63
 142 387 142 387 142 395 c 2,64,-1
 142 397 l 2,65,66
 142 398 142 398 143 398 c 0,67,68
 144 400 144 400 149.5 405 c 128,-1,69
 155 410 155 410 157 412 c 0,70,71
 165 419 165 419 181 431.5 c 128,-1,72
 197 444 197 444 213.5 457.5 c 128,-1,73
 230 471 230 471 244 482 c 128,-1,74
 258 493 258 493 262 496 c 0,75,76
 281 510 281 510 306.5 524.5 c 128,-1,77
 332 539 332 539 356 539 c 0,78,79
 358 539 358 539 364.5 538.5 c 128,-1,80
 371 538 371 538 373 538 c 0,81,82
 381 530 381 530 381 519 c 2,83,-1
 381 499 l 2,84,85
 381 469 381 469 369.5 439.5 c 128,-1,86
 358 410 358 410 341 382 c 128,-1,87
 324 354 324 354 304.5 328 c 128,-1,88
 285 302 285 302 269 279 c 0,89,90
 265 274 265 274 259.5 266.5 c 128,-1,91
 254 259 254 259 255 258 c 2,92,-1
 262 251 l 2,93,94
 265 253 265 253 273 258 c 128,-1,95
 281 263 281 263 289.5 268.5 c 128,-1,96
 298 274 298 274 306 279 c 128,-1,97
 314 284 314 284 317 286 c 0,98,99
 319 288 319 288 324 290 c 128,-1,100
 329 292 329 292 331 293 c 2,101,-1
 569 552 l 1,102,-1
 572 552 l 2,103,104
 579 552 579 552 581.5 547.5 c 128,-1,105
 584 543 584 543 584 538 c 0,106,107
 584 536 584 536 583.5 535 c 128,-1,108
 583 534 583 534 583 533 c 2,109,-1
 583 531 l 2,110,111
 581 526 581 526 576 515.5 c 128,-1,112
 571 505 571 505 569 503 c 2,113,-1
 422 328 l 1,114,-1
 422 325 l 2,115,116
 422 319 422 319 435.5 314.5 c 128,-1,117
 449 310 449 310 464.5 302 c 128,-1,118
 480 294 480 294 493.5 278.5 c 128,-1,119
 507 263 507 263 507 234 c 0,120,121
 507 196 507 196 491.5 162 c 128,-1,122
 476 128 476 128 457.5 95 c 128,-1,123
 439 62 439 62 423.5 28.5 c 128,-1,124
 408 -5 408 -5 408 -41 c 0,125,126
 408 -52 408 -52 412 -59 c 128,-1,127
 416 -66 416 -66 416 -76 c 0,128,129
 416 -91 416 -91 401 -91 c 0,130,131
 391 -91 391 -91 385.5 -85.5 c 128,-1,132
 380 -80 380 -80 373 -69 c 1,0,-1
EndSplineSet
EndChar

StartChar: L
Encoding: 76 76 13
Width: 545
GlyphClass: 1
Flags: W
LayerCount: 2
Fore
SplineSet
454 -229 m 0,0,1
 454 -218 454 -218 462 -204.5 c 128,-1,2
 470 -191 470 -191 479 -176 c 128,-1,3
 488 -161 488 -161 496 -145 c 128,-1,4
 504 -129 504 -129 504 -114 c 2,5,-1
 504 4 l 2,6,7
 504 6 504 6 498.5 16.5 c 128,-1,8
 493 27 493 27 490 32 c 0,9,10
 459 70 459 70 425.5 86 c 128,-1,11
 392 102 392 102 343 102 c 2,12,-1
 318 102 l 2,13,14
 303 102 303 102 292.5 99 c 128,-1,15
 282 96 282 96 259 87 c 0,16,17
 257 86 257 86 256 85 c 0,18,19
 253 82 253 82 253 80 c 0,20,21
 239 63 239 63 220.5 35 c 128,-1,22
 202 7 202 7 180 -25 c 128,-1,23
 158 -57 158 -57 133.5 -89 c 128,-1,24
 109 -121 109 -121 83.5 -147 c 128,-1,25
 58 -173 58 -173 32.5 -189.5 c 128,-1,26
 7 -206 7 -206 -17 -206 c 0,27,28
 -39 -206 -39 -206 -47 -194 c 128,-1,29
 -55 -182 -55 -182 -55 -162 c 0,30,31
 -55 -107 -55 -107 -27.5 -60 c 128,-1,32
 0 -13 0 -13 42 24 c 128,-1,33
 84 61 84 61 134.5 87.5 c 128,-1,34
 185 114 185 114 232 129 c 0,35,36
 242 134 242 134 244 140 c 128,-1,37
 246 146 246 146 246 154 c 2,38,-1
 246 164 l 1,39,40
 226 165 226 165 207 172.5 c 128,-1,41
 188 180 188 180 173 192.5 c 128,-1,42
 158 205 158 205 149 222 c 128,-1,43
 140 239 140 239 140 260 c 2,44,-1
 140 275 l 2,45,46
 140 289 140 289 143.5 304 c 128,-1,47
 147 319 147 319 162 319 c 0,48,49
 163 319 163 319 165.5 318.5 c 128,-1,50
 168 318 168 318 169 318 c 0,51,52
 171 297 171 297 174 278 c 128,-1,53
 177 259 177 259 184.5 244.5 c 128,-1,54
 192 230 192 230 206.5 221.5 c 128,-1,55
 221 213 221 213 246 213 c 0,56,57
 261 213 261 213 276.5 216 c 128,-1,58
 292 219 292 219 301 234 c 0,59,60
 353 312 353 312 396.5 383.5 c 128,-1,61
 440 455 440 455 490 535 c 0,62,63
 494 546 494 546 502 548 c 128,-1,64
 510 550 510 550 518 550 c 0,65,66
 541 550 541 550 550.5 531.5 c 128,-1,67
 560 513 560 513 560 493 c 0,68,69
 560 470 560 470 554 446.5 c 128,-1,70
 548 423 548 423 538 400.5 c 128,-1,71
 528 378 528 378 515.5 357 c 128,-1,72
 503 336 503 336 490 318 c 0,73,74
 478 302 478 302 447 280 c 128,-1,75
 416 258 416 258 383.5 235.5 c 128,-1,76
 351 213 351 213 326 191.5 c 128,-1,77
 301 170 301 170 301 154 c 2,78,-1
 301 150 l 1,79,-1
 308 143 l 1,80,81
 349 148 349 148 392.5 138 c 128,-1,82
 436 128 436 128 471.5 105 c 128,-1,83
 507 82 507 82 530 47 c 128,-1,84
 553 12 553 12 553 -33 c 0,85,86
 553 -49 553 -49 547.5 -84.5 c 128,-1,87
 542 -120 542 -120 531.5 -156.5 c 128,-1,88
 521 -193 521 -193 505.5 -220.5 c 128,-1,89
 490 -248 490 -248 470 -248 c 0,90,91
 460 -248 460 -248 457 -242.5 c 128,-1,92
 454 -237 454 -237 454 -229 c 0,0,1
-26 -160 m 1,93,-1
 -26 -163 l 2,94,95
 -25 -165 -25 -165 -22.5 -167 c 128,-1,96
 -20 -169 -20 -169 -19 -170 c 2,97,-1
 -16 -170 l 1,98,-1
 -12 -170 l 1,99,-1
 8 -163 l 2,100,101
 12 -159 12 -159 23.5 -148 c 128,-1,102
 35 -137 35 -137 47 -125 c 128,-1,103
 59 -113 59 -113 70 -102 c 128,-1,104
 81 -91 81 -91 85 -86 c 0,105,106
 94 -77 94 -77 111.5 -56.5 c 128,-1,107
 129 -36 129 -36 146.5 -13 c 128,-1,108
 164 10 164 10 177 30.5 c 128,-1,109
 190 51 190 51 190 60 c 0,110,111
 190 66 190 66 183 66 c 0,112,113
 103 43 103 43 51.5 -18 c 128,-1,114
 0 -79 0 -79 -26 -156 c 1,115,-1
 -26 -160 l 1,93,-1
385 290 m 0,116,117
 385 283 385 283 392 283 c 0,118,119
 394 283 394 283 399 285.5 c 128,-1,120
 404 288 404 288 406 290 c 0,121,122
 428 306 428 306 449.5 326 c 128,-1,123
 471 346 471 346 488 369.5 c 128,-1,124
 505 393 505 393 515.5 419.5 c 128,-1,125
 526 446 526 446 526 475 c 0,126,127
 526 481 526 481 525.5 490.5 c 128,-1,128
 525 500 525 500 514 500 c 0,129,130
 508 500 508 500 497 486 c 128,-1,131
 486 472 486 472 473 451 c 128,-1,132
 460 430 460 430 445.5 404.5 c 128,-1,133
 431 379 431 379 419 355.5 c 128,-1,134
 407 332 407 332 397.5 314 c 128,-1,135
 388 296 388 296 385 290 c 0,116,117
EndSplineSet
EndChar

StartChar: M
Encoding: 77 77 14
Width: 1025
GlyphClass: 1
Flags: W
LayerCount: 2
Fore
SplineSet
832 -174 m 0,0,1
 832 -129 832 -129 848.5 -86.5 c 128,-1,2
 865 -44 865 -44 881 -5 c 0,3,4
 902 44 902 44 927 94 c 128,-1,5
 952 144 952 144 973 195.5 c 128,-1,6
 994 247 994 247 1008.5 300 c 128,-1,7
 1023 353 1023 353 1023 409 c 0,8,9
 1023 415 1023 415 1022.5 427 c 128,-1,10
 1022 439 1022 439 1021 441 c 2,11,-1
 1014 448 l 2,12,13
 1012 448 1012 448 1004.5 449 c 128,-1,14
 997 450 997 450 993 450 c 0,15,16
 955 450 955 450 914.5 434.5 c 128,-1,17
 874 419 874 419 835 395.5 c 128,-1,18
 796 372 796 372 761.5 345 c 128,-1,19
 727 318 727 318 700 294 c 0,20,21
 683 279 683 279 664 260 c 128,-1,22
 645 241 645 241 627 221 c 128,-1,23
 609 201 609 201 591.5 180 c 128,-1,24
 574 159 574 159 560 140 c 0,25,26
 546 122 546 122 531.5 97 c 128,-1,27
 517 72 517 72 497 57 c 0,28,29
 497 56 497 56 495 56 c 2,30,-1
 494 56 l 2,31,32
 486 56 486 56 480.5 63 c 128,-1,33
 475 70 475 70 475 77 c 0,34,35
 475 79 475 79 475.5 81 c 128,-1,36
 476 83 476 83 476 84 c 0,37,38
 491 108 491 108 506 133.5 c 128,-1,39
 521 159 521 159 533 185.5 c 128,-1,40
 545 212 545 212 552.5 240 c 128,-1,41
 560 268 560 268 560 298 c 0,42,43
 560 330 560 330 533 330 c 0,44,45
 487 330 487 330 447.5 306.5 c 128,-1,46
 408 283 408 283 374.5 248 c 128,-1,47
 341 213 341 213 313 172 c 128,-1,48
 285 131 285 131 262 96 c 128,-1,49
 239 61 239 61 221 37.5 c 128,-1,50
 203 14 203 14 190 14 c 0,51,52
 181 14 181 14 178 18.5 c 128,-1,53
 175 23 175 23 175 32 c 0,54,55
 175 54 175 54 187 78.5 c 128,-1,56
 199 103 199 103 215 126 c 128,-1,57
 231 149 231 149 247.5 169 c 128,-1,58
 264 189 264 189 273 203 c 0,59,60
 297 240 297 240 312 288 c 128,-1,61
 327 336 327 336 327 378 c 1,62,-1
 315 378 l 1,63,64
 289 357 289 357 256 330.5 c 128,-1,65
 223 304 223 304 186.5 280.5 c 128,-1,66
 150 257 150 257 111.5 240.5 c 128,-1,67
 73 224 73 224 36 224 c 2,68,-1
 29 224 l 1,69,70
 24 228 24 228 17 234 c 128,-1,71
 10 240 10 240 3.5 247.5 c 128,-1,72
 -3 255 -3 255 -7.5 263 c 128,-1,73
 -12 271 -12 271 -12 280 c 0,74,75
 -12 286 -12 286 -11 295 c 128,-1,76
 -10 304 -10 304 -7 311.5 c 128,-1,77
 -4 319 -4 319 1 324.5 c 128,-1,78
 6 330 6 330 15 330 c 0,79,80
 27 330 27 330 28 320 c 128,-1,81
 29 310 29 310 29 298 c 256,82,83
 29 286 29 286 32.5 276 c 128,-1,84
 36 266 36 266 53 266 c 0,85,86
 92 266 92 266 129 291 c 128,-1,87
 166 316 166 316 202.5 346.5 c 128,-1,88
 239 377 239 377 275.5 402 c 128,-1,89
 312 427 312 427 351 427 c 0,90,91
 362 427 362 427 365 423 c 128,-1,92
 368 419 368 419 378 406 c 1,93,-1
 378 403 l 2,94,95
 378 378 378 378 373 351 c 128,-1,96
 368 324 368 324 357 301 c 1,97,-1
 364 294 l 1,98,99
 383 307 383 307 403 320.5 c 128,-1,100
 423 334 423 334 444 345.5 c 128,-1,101
 465 357 465 357 487.5 364.5 c 128,-1,102
 510 372 510 372 534 372 c 0,103,104
 559 372 559 372 572.5 363 c 128,-1,105
 586 354 586 354 592 339 c 128,-1,106
 598 324 598 324 599 305 c 128,-1,107
 600 286 600 286 600 266 c 1,108,-1
 616 266 l 1,109,110
 654 303 654 303 698 341.5 c 128,-1,111
 742 380 742 380 790.5 411.5 c 128,-1,112
 839 443 839 443 892 463 c 128,-1,113
 945 483 945 483 1001 483 c 0,114,115
 1027 483 1027 483 1048.5 466 c 128,-1,116
 1070 449 1070 449 1070 420 c 0,117,118
 1070 366 1070 366 1057.5 314.5 c 128,-1,119
 1045 263 1045 263 1025.5 213 c 128,-1,120
 1006 163 1006 163 982 113.5 c 128,-1,121
 958 64 958 64 935.5 14.5 c 128,-1,122
 913 -35 913 -35 894.5 -85 c 128,-1,123
 876 -135 876 -135 867 -187 c 1,124,125
 857 -195 857 -195 846 -195 c 0,126,127
 837 -195 837 -195 834.5 -188 c 128,-1,128
 832 -181 832 -181 832 -174 c 0,0,1
EndSplineSet
EndChar

StartChar: N
Encoding: 78 78 15
Width: 756
GlyphClass: 1
Flags: W
LayerCount: 2
Fore
SplineSet
4 71 m 0,0,1
 4 87 4 87 12.5 111.5 c 128,-1,2
 21 136 21 136 35 163 c 128,-1,3
 49 190 49 190 67.5 217.5 c 128,-1,4
 86 245 86 245 105.5 267 c 128,-1,5
 125 289 125 289 145 302.5 c 128,-1,6
 165 316 165 316 182 316 c 0,7,8
 195 316 195 316 204.5 304.5 c 128,-1,9
 214 293 214 293 214 281 c 0,10,11
 214 272 214 272 210.5 254.5 c 128,-1,12
 207 237 207 237 200 219.5 c 128,-1,13
 193 202 193 202 183.5 188.5 c 128,-1,14
 174 175 174 175 161 175 c 0,15,16
 155 175 155 175 152.5 180 c 128,-1,17
 150 185 150 185 150 190 c 0,18,19
 150 207 150 207 161 221.5 c 128,-1,20
 172 236 172 236 172 253 c 0,21,22
 172 258 172 258 169.5 262.5 c 128,-1,23
 167 267 167 267 161 267 c 0,24,25
 152 267 152 267 140 255 c 128,-1,26
 128 243 128 243 116 225 c 128,-1,27
 104 207 104 207 92 184.5 c 128,-1,28
 80 162 80 162 71 141.5 c 128,-1,29
 62 121 62 121 56.5 104.5 c 128,-1,30
 51 88 51 88 51 81 c 0,31,32
 51 78 51 78 51.5 66 c 128,-1,33
 52 54 52 54 53 50 c 0,34,35
 58 39 58 39 71.5 37 c 128,-1,36
 85 35 85 35 99 35 c 2,37,-1
 114 35 l 2,38,39
 162 35 162 35 206.5 59 c 128,-1,40
 251 83 251 83 291.5 121.5 c 128,-1,41
 332 160 332 160 368.5 209 c 128,-1,42
 405 258 405 258 436.5 308.5 c 128,-1,43
 468 359 468 359 494.5 406.5 c 128,-1,44
 521 454 521 454 542 490 c 0,45,46
 544 493 544 493 547 501.5 c 128,-1,47
 550 510 550 510 553.5 518 c 128,-1,48
 557 526 557 526 563 532.5 c 128,-1,49
 569 539 569 539 577 539 c 0,50,51
 582 539 582 539 585.5 538.5 c 128,-1,52
 589 538 589 538 591 532 c 2,53,-1
 591 508 l 2,54,55
 591 486 591 486 586.5 467 c 128,-1,56
 582 448 582 448 577 427 c 0,57,58
 561 358 561 358 548.5 286.5 c 128,-1,59
 536 215 536 215 536 143 c 1,60,61
 547 143 547 143 554.5 148 c 128,-1,62
 562 153 562 153 568 161 c 128,-1,63
 574 169 574 169 579 178.5 c 128,-1,64
 584 188 584 188 591 197 c 0,65,66
 602 212 602 212 621.5 237 c 128,-1,67
 641 262 641 262 659.5 286.5 c 128,-1,68
 678 311 678 311 693 329.5 c 128,-1,69
 708 348 708 348 710 350 c 0,70,71
 735 379 735 379 766.5 411 c 128,-1,72
 798 443 798 443 834.5 470 c 128,-1,73
 871 497 871 497 911 514.5 c 128,-1,74
 951 532 951 532 993 532 c 0,75,76
 1007 532 1007 532 1018 531.5 c 128,-1,77
 1029 531 1029 531 1036.5 527 c 128,-1,78
 1044 523 1044 523 1048 514 c 128,-1,79
 1052 505 1052 505 1052 489 c 0,80,81
 1052 482 1052 482 1047.5 475.5 c 128,-1,82
 1043 469 1043 469 1035 469 c 256,83,84
 1027 469 1027 469 1021.5 472.5 c 128,-1,85
 1016 476 1016 476 1011 480 c 128,-1,86
 1006 484 1006 484 999.5 487.5 c 128,-1,87
 993 491 993 491 984 491 c 0,88,89
 942 491 942 491 895 463.5 c 128,-1,90
 848 436 848 436 804.5 397 c 128,-1,91
 761 358 761 358 725 314.5 c 128,-1,92
 689 271 689 271 668 239 c 0,93,94
 660 227 660 227 640 196 c 128,-1,95
 620 165 620 165 598 130.5 c 128,-1,96
 576 96 576 96 556 65 c 128,-1,97
 536 34 536 34 528 22 c 0,98,99
 523 13 523 13 519.5 10 c 128,-1,100
 516 7 516 7 508 7 c 0,101,102
 498 7 498 7 492 10 c 128,-1,103
 486 13 486 13 486 24 c 0,104,105
 486 105 486 105 498 183.5 c 128,-1,106
 510 262 510 262 521 343 c 1,107,-1
 521 351 l 2,108,109
 521 356 521 356 520.5 359 c 128,-1,110
 520 362 520 362 514 364 c 1,111,-1
 500 350 l 1,112,-1
 367 148 l 2,113,114
 347 118 347 118 315.5 90 c 128,-1,115
 284 62 284 62 246.5 40.5 c 128,-1,116
 209 19 209 19 168.5 6.5 c 128,-1,117
 128 -6 128 -6 90 -6 c 0,118,119
 75 -6 75 -6 60 -0.5 c 128,-1,120
 45 5 45 5 32.5 15.5 c 128,-1,121
 20 26 20 26 12 40 c 128,-1,122
 4 54 4 54 4 71 c 0,0,1
EndSplineSet
EndChar

StartChar: O
Encoding: 79 79 16
Width: 445
GlyphClass: 1
Flags: W
LayerCount: 2
Fore
SplineSet
9 66 m 0,0,1
 9 86 9 86 14.5 102.5 c 128,-1,2
 20 119 20 119 31 136 c 0,3,4
 37 146 37 146 49.5 166.5 c 128,-1,5
 62 187 62 187 75.5 208 c 128,-1,6
 89 229 89 229 100.5 246.5 c 128,-1,7
 112 264 112 264 115 268 c 0,8,9
 123 280 123 280 143.5 309 c 128,-1,10
 164 338 164 338 187.5 370 c 128,-1,11
 211 402 211 402 232 431 c 128,-1,12
 253 460 253 460 261 471 c 256,13,14
 269 482 269 482 293 502 c 128,-1,15
 317 522 317 522 345 541.5 c 128,-1,16
 373 561 373 561 399.5 575.5 c 128,-1,17
 426 590 426 590 439 590 c 0,18,19
 464 590 464 590 477 580.5 c 128,-1,20
 490 571 490 571 499 548 c 0,21,22
 499 545 499 545 499 539.5 c 128,-1,23
 499 534 499 534 499.5 527 c 128,-1,24
 500 520 500 520 500 514.5 c 128,-1,25
 500 509 500 509 500 506 c 0,26,27
 500 464 500 464 481.5 410 c 128,-1,28
 463 356 463 356 431.5 299.5 c 128,-1,29
 400 243 400 243 358.5 188.5 c 128,-1,30
 317 134 317 134 270.5 91.5 c 128,-1,31
 224 49 224 49 176 23 c 128,-1,32
 128 -3 128 -3 83 -3 c 0,33,34
 51 -3 51 -3 30 15.5 c 128,-1,35
 9 34 9 34 9 66 c 0,0,1
51 69 m 0,36,37
 51 60 51 60 54.5 51.5 c 128,-1,38
 58 43 58 43 66 38 c 0,39,40
 69 38 69 38 78.5 37.5 c 128,-1,41
 88 37 88 37 90 37 c 0,42,43
 120 37 120 37 149.5 51.5 c 128,-1,44
 179 66 179 66 205.5 87 c 128,-1,45
 232 108 232 108 255 132.5 c 128,-1,46
 278 157 278 157 296 178 c 1,47,48
 290 186 290 186 282 190.5 c 128,-1,49
 274 195 274 195 265 199 c 128,-1,50
 256 203 256 203 248 207.5 c 128,-1,51
 240 212 240 212 234 220 c 0,52,53
 221 235 221 235 211.5 256.5 c 128,-1,54
 202 278 202 278 185 289 c 1,55,56
 168 275 168 275 145 247.5 c 128,-1,57
 122 220 122 220 101 187.5 c 128,-1,58
 80 155 80 155 65.5 123 c 128,-1,59
 51 91 51 91 51 69 c 0,36,37
240 316 m 0,60,61
 240 297 240 297 245.5 279.5 c 128,-1,62
 251 262 251 262 261.5 248.5 c 128,-1,63
 272 235 272 235 288 227 c 128,-1,64
 304 219 304 219 325 219 c 0,65,66
 333 219 333 219 335.5 221.5 c 128,-1,67
 338 224 338 224 345 234 c 0,68,69
 366 262 366 262 388.5 295.5 c 128,-1,70
 411 329 411 329 429.5 365 c 128,-1,71
 448 401 448 401 460 438.5 c 128,-1,72
 472 476 472 476 472 513 c 0,73,74
 472 516 472 516 471.5 527 c 128,-1,75
 471 538 471 538 471 541 c 0,76,77
 470 545 470 545 465.5 547 c 128,-1,78
 461 549 461 549 456 549.5 c 128,-1,79
 451 550 451 550 446.5 549.5 c 128,-1,80
 442 549 442 549 441 549 c 0,81,82
 428 549 428 549 408.5 536.5 c 128,-1,83
 389 524 389 524 366.5 503.5 c 128,-1,84
 344 483 344 483 321.5 457.5 c 128,-1,85
 299 432 299 432 281 406 c 128,-1,86
 263 380 263 380 251.5 356.5 c 128,-1,87
 240 333 240 333 240 316 c 0,60,61
EndSplineSet
EndChar

StartChar: P
Encoding: 80 80 17
Width: 580
GlyphClass: 1
Flags: W
LayerCount: 2
Fore
SplineSet
-6 16 m 0,0,1
 -6 45 -6 45 10.5 73.5 c 128,-1,2
 27 102 27 102 42 125 c 0,3,4
 47 132 47 132 62 154 c 128,-1,5
 77 176 77 176 95 201.5 c 128,-1,6
 113 227 113 227 129.5 251 c 128,-1,7
 146 275 146 275 154 286 c 0,8,9
 160 294 160 294 172 307.5 c 128,-1,10
 184 321 184 321 189 335 c 0,11,12
 196 344 196 344 215 367 c 128,-1,13
 234 390 234 390 255 415.5 c 128,-1,14
 276 441 276 441 295 463.5 c 128,-1,15
 314 486 314 486 322 495 c 0,16,17
 343 519 343 519 369 546.5 c 128,-1,18
 395 574 395 574 425 597 c 128,-1,19
 455 620 455 620 488.5 635 c 128,-1,20
 522 650 522 650 558 650 c 0,21,22
 609 650 609 650 637 620 c 128,-1,23
 665 590 665 590 665 539 c 0,24,25
 665 475 665 475 637 419.5 c 128,-1,26
 609 364 609 364 563 323.5 c 128,-1,27
 517 283 517 283 458 259.5 c 128,-1,28
 399 236 399 236 338 236 c 0,29,30
 323 236 323 236 306.5 240.5 c 128,-1,31
 290 245 290 245 276 250.5 c 128,-1,32
 262 256 262 256 250.5 260.5 c 128,-1,33
 239 265 239 265 234 265 c 2,34,-1
 231 265 l 1,35,-1
 217 251 l 1,36,-1
 49 27 l 2,37,38
 37 10 37 10 31 4.5 c 128,-1,39
 25 -1 25 -1 11 -1 c 0,40,41
 0 -1 0 -1 -3 2 c 128,-1,42
 -6 5 -6 5 -6 16 c 0,0,1
258 306 m 0,43,44
 258 289 258 289 275.5 283.5 c 128,-1,45
 293 278 293 278 310 278 c 2,46,-1
 328 278 l 2,47,48
 349 278 349 278 372 279 c 128,-1,49
 395 280 395 280 417 284 c 128,-1,50
 439 288 439 288 459.5 297 c 128,-1,51
 480 306 480 306 496 321 c 0,52,53
 521 344 521 344 545 368 c 128,-1,54
 569 392 569 392 587.5 418.5 c 128,-1,55
 606 445 606 445 617.5 475.5 c 128,-1,56
 629 506 629 506 629 544 c 0,57,58
 629 576 629 576 607 595.5 c 128,-1,59
 585 615 585 615 556 615 c 0,60,61
 523 615 523 615 492.5 600 c 128,-1,62
 462 585 462 585 434.5 561 c 128,-1,63
 407 537 407 537 382.5 506.5 c 128,-1,64
 358 476 358 476 337 444 c 128,-1,65
 316 412 316 412 298 381.5 c 128,-1,66
 280 351 280 351 266 328 c 0,67,68
 261 320 261 320 259.5 317 c 128,-1,69
 258 314 258 314 258 306 c 0,43,44
EndSplineSet
EndChar

StartChar: Q
Encoding: 81 81 18
Width: 433
GlyphClass: 1
Flags: W
LayerCount: 2
Fore
SplineSet
10 41 m 0,0,1
 10 75 10 75 25 115.5 c 128,-1,2
 40 156 40 156 58.5 192.5 c 128,-1,3
 77 229 77 229 93.5 256.5 c 128,-1,4
 110 284 110 284 113 292 c 0,5,6
 128 319 128 319 138 338 c 128,-1,7
 148 357 148 357 155.5 370.5 c 128,-1,8
 163 384 163 384 168 393 c 128,-1,9
 173 402 173 402 178 410 c 0,10,11
 191 432 191 432 205 459.5 c 128,-1,12
 219 487 219 487 237 510 c 128,-1,13
 255 533 255 533 278.5 549 c 128,-1,14
 302 565 302 565 335 565 c 0,15,16
 363 565 363 565 380.5 546 c 128,-1,17
 398 527 398 527 407.5 501 c 128,-1,18
 417 475 417 475 420 446 c 128,-1,19
 423 417 423 417 423 398 c 0,20,21
 423 347 423 347 413 297 c 128,-1,22
 403 247 403 247 380 201 c 0,23,24
 362 165 362 165 336.5 129.5 c 128,-1,25
 311 94 311 94 289 62 c 0,26,27
 284 54 284 54 283 51 c 128,-1,28
 282 48 282 48 282 41 c 0,29,30
 282 36 282 36 283 32.5 c 128,-1,31
 284 29 284 29 289 27 c 0,32,33
 293 27 293 27 305 26.5 c 128,-1,34
 317 26 317 26 321 26 c 0,35,36
 333 26 333 26 344 29.5 c 128,-1,37
 355 33 355 33 365.5 37 c 128,-1,38
 376 41 376 41 386.5 44.5 c 128,-1,39
 397 48 397 48 408 48 c 0,40,41
 413 48 413 48 417.5 46 c 128,-1,42
 422 44 422 44 422 37 c 2,43,-1
 422 34 l 1,44,45
 407 8 407 8 377 -6.5 c 128,-1,46
 347 -21 347 -21 318 -21 c 0,47,48
 306 -21 306 -21 296 -17.5 c 128,-1,49
 286 -14 286 -14 276.5 -10.5 c 128,-1,50
 267 -7 267 -7 257 -3.5 c 128,-1,51
 247 0 247 0 237 0 c 0,52,53
 223 0 223 0 209 -6.5 c 128,-1,54
 195 -13 195 -13 179 -21.5 c 128,-1,55
 163 -30 163 -30 145 -36.5 c 128,-1,56
 127 -43 127 -43 106 -43 c 0,57,58
 68 -43 68 -43 39 -21.5 c 128,-1,59
 10 0 10 0 10 41 c 0,0,1
51 43 m 0,60,61
 51 19 51 19 70 6 c 128,-1,62
 89 -7 89 -7 111 -7 c 0,63,64
 136 -7 136 -7 164 6.5 c 128,-1,65
 192 20 192 20 206 41 c 1,66,67
 199 96 199 96 213 144 c 128,-1,68
 227 192 227 192 247 243 c 0,69,70
 250 249 250 249 254 263 c 128,-1,71
 258 277 258 277 263 291.5 c 128,-1,72
 268 306 268 306 274.5 317 c 128,-1,73
 281 328 281 328 289 328 c 0,74,75
 298 328 298 328 301 323.5 c 128,-1,76
 304 319 304 319 304 311 c 0,77,78
 304 284 304 284 296 258.5 c 128,-1,79
 288 233 288 233 279 208.5 c 128,-1,80
 270 184 270 184 262 159 c 128,-1,81
 254 134 254 134 254 108 c 1,82,83
 262 108 262 108 266 109.5 c 128,-1,84
 270 111 270 111 275 118 c 0,85,86
 291 141 291 141 304 164.5 c 128,-1,87
 317 188 317 188 329 211.5 c 128,-1,88
 341 235 341 235 353.5 259 c 128,-1,89
 366 283 366 283 380 306 c 1,90,-1
 380 467 l 2,91,92
 380 474 380 474 377 485 c 128,-1,93
 374 496 374 496 368.5 506 c 128,-1,94
 363 516 363 516 355 523.5 c 128,-1,95
 347 531 347 531 338 531 c 0,96,97
 337 531 337 531 334.5 530.5 c 128,-1,98
 332 530 332 530 331 530 c 0,99,100
 311 514 311 514 296.5 498 c 128,-1,101
 282 482 282 482 269 465.5 c 128,-1,102
 256 449 256 449 244.5 430.5 c 128,-1,103
 233 412 233 412 219 390 c 0,104,105
 208 373 208 373 191.5 345.5 c 128,-1,106
 175 318 175 318 156 284.5 c 128,-1,107
 137 251 137 251 118.5 215 c 128,-1,108
 100 179 100 179 85 146.5 c 128,-1,109
 70 114 70 114 60.5 86.5 c 128,-1,110
 51 59 51 59 51 43 c 0,60,61
EndSplineSet
EndChar

StartChar: R
Encoding: 82 82 19
Width: 492
GlyphClass: 1
Flags: W
LayerCount: 2
Fore
SplineSet
226 171 m 0,0,1
 226 200 226 200 227 222 c 128,-1,2
 228 244 228 244 234 273 c 0,3,4
 238 282 238 282 242.5 285 c 128,-1,5
 247 288 247 288 255 288 c 0,6,7
 264 288 264 288 268.5 282.5 c 128,-1,8
 273 277 273 277 276 270 c 128,-1,9
 279 263 279 263 282.5 257.5 c 128,-1,10
 286 252 286 252 293 252 c 0,11,12
 308 252 308 252 326 269 c 128,-1,13
 344 286 344 286 362 312 c 128,-1,14
 380 338 380 338 397 369.5 c 128,-1,15
 414 401 414 401 427.5 430.5 c 128,-1,16
 441 460 441 460 449 484 c 128,-1,17
 457 508 457 508 457 518 c 0,18,19
 457 523 457 523 455 527.5 c 128,-1,20
 453 532 453 532 447 532 c 0,21,22
 438 532 438 532 426.5 526.5 c 128,-1,23
 415 521 415 521 403.5 513 c 128,-1,24
 392 505 392 505 382 497 c 128,-1,25
 372 489 372 489 366 483 c 0,26,27
 324 444 324 444 281.5 398.5 c 128,-1,28
 239 353 239 353 213 301 c 0,29,30
 211 299 211 299 206.5 288.5 c 128,-1,31
 202 278 202 278 197.5 266 c 128,-1,32
 193 254 193 254 189.5 243.5 c 128,-1,33
 186 233 186 233 185 231 c 0,34,35
 183 226 183 226 175.5 211 c 128,-1,36
 168 196 168 196 159 178 c 128,-1,37
 150 160 150 160 141.5 143.5 c 128,-1,38
 133 127 133 127 129 120 c 0,39,40
 123 108 123 108 109.5 86 c 128,-1,41
 96 64 96 64 81 42 c 128,-1,42
 66 20 66 20 51.5 3.5 c 128,-1,43
 37 -13 37 -13 28 -13 c 2,44,-1
 26 -13 l 2,45,46
 25 -13 25 -13 24 -12 c 0,47,48
 22 -10 22 -10 17 -5 c 128,-1,49
 12 0 12 0 10 1 c 2,50,-1
 10 4 l 2,51,52
 10 14 10 14 14 23 c 128,-1,53
 18 32 18 32 23.5 40 c 128,-1,54
 29 48 29 48 35 55.5 c 128,-1,55
 41 63 41 63 45 71 c 0,56,57
 48 77 48 77 60.5 101.5 c 128,-1,58
 73 126 73 126 87 154.5 c 128,-1,59
 101 183 101 183 113.5 207.5 c 128,-1,60
 126 232 126 232 129 238 c 0,61,62
 130 241 130 241 136 251.5 c 128,-1,63
 142 262 142 262 149 273.5 c 128,-1,64
 156 285 156 285 162.5 295 c 128,-1,65
 169 305 169 305 171 308 c 0,66,67
 178 320 178 320 187.5 348 c 128,-1,68
 197 376 197 376 208.5 404.5 c 128,-1,69
 220 433 220 433 233.5 455 c 128,-1,70
 247 477 247 477 261 477 c 0,71,72
 270 477 270 477 272 473.5 c 128,-1,73
 274 470 274 470 274 465 c 256,74,75
 274 460 274 460 275 455 c 128,-1,76
 276 450 276 450 282 448 c 1,77,78
 292 460 292 460 312.5 480 c 128,-1,79
 333 500 333 500 358 519.5 c 128,-1,80
 383 539 383 539 409 553 c 128,-1,81
 435 567 435 567 457 567 c 0,82,83
 468 567 468 567 477 560.5 c 128,-1,84
 486 554 486 554 492 546 c 0,85,86
 492 543 492 543 492.5 533.5 c 128,-1,87
 493 524 493 524 493 521 c 0,88,89
 493 492 493 492 479 452 c 128,-1,90
 465 412 465 412 444 372 c 128,-1,91
 423 332 423 332 398.5 297.5 c 128,-1,92
 374 263 374 263 352 245 c 0,93,94
 351 244 351 244 343 239 c 128,-1,95
 335 234 335 234 325 227.5 c 128,-1,96
 315 221 315 221 305 214.5 c 128,-1,97
 295 208 295 208 289 204 c 0,98,99
 288 203 288 203 282.5 200 c 128,-1,100
 277 197 277 197 275 197 c 2,101,-1
 268 190 l 2,102,103
 268 187 268 187 267.5 177.5 c 128,-1,104
 267 168 267 168 267 165 c 0,105,106
 267 127 267 127 286.5 94.5 c 128,-1,107
 306 62 306 62 337 40 c 128,-1,108
 368 18 368 18 405.5 9 c 128,-1,109
 443 0 443 0 478 8 c 1,110,-1
 485 1 l 1,111,-1
 485 -2 l 2,112,113
 485 -10 485 -10 479.5 -15 c 128,-1,114
 474 -20 474 -20 465.5 -22.5 c 128,-1,115
 457 -25 457 -25 447 -26 c 128,-1,116
 437 -27 437 -27 428 -27 c 2,117,-1
 410 -27 l 2,118,119
 371 -27 371 -27 337.5 -10 c 128,-1,120
 304 7 304 7 279 35 c 128,-1,121
 254 63 254 63 240 98.5 c 128,-1,122
 226 134 226 134 226 171 c 0,0,1
EndSplineSet
EndChar

StartChar: S
Encoding: 83 83 20
Width: 533
GlyphClass: 1
Flags: W
LayerCount: 2
Fore
SplineSet
-14 157 m 0,0,1
 -14 167 -14 167 -12 177.5 c 128,-1,2
 -10 188 -10 188 -5 197 c 128,-1,3
 0 206 0 206 8 211.5 c 128,-1,4
 16 217 16 217 29 217 c 0,5,6
 37 217 37 217 49 199.5 c 128,-1,7
 61 182 61 182 74 159 c 128,-1,8
 87 136 87 136 100.5 114 c 128,-1,9
 114 92 114 92 126 83 c 1,10,-1
 126 79 l 2,11,12
 126 69 126 69 118 65 c 128,-1,13
 110 61 110 61 102 61 c 0,14,15
 91 61 91 61 84.5 63.5 c 128,-1,16
 78 66 78 66 70 76 c 1,17,-1
 63 69 l 1,18,19
 88 37 88 37 119.5 24.5 c 128,-1,20
 151 12 151 12 189 12 c 0,21,22
 226 12 226 12 270 27 c 128,-1,23
 314 42 314 42 352 68 c 128,-1,24
 390 94 390 94 416 129 c 128,-1,25
 442 164 442 164 442 205 c 0,26,27
 442 232 442 232 429.5 254 c 128,-1,28
 417 276 417 276 402 297 c 128,-1,29
 387 318 387 318 374.5 341 c 128,-1,30
 362 364 362 364 362 394 c 0,31,32
 362 397 362 397 362 402.5 c 128,-1,33
 362 408 362 408 362.5 414 c 128,-1,34
 363 420 363 420 363 425 c 128,-1,35
 363 430 363 430 363 432 c 0,36,37
 375 460 375 460 400 483 c 128,-1,38
 425 506 425 506 456 523 c 128,-1,39
 487 540 487 540 520.5 549.5 c 128,-1,40
 554 559 554 559 582 559 c 0,41,42
 614 559 614 559 636 544.5 c 128,-1,43
 658 530 658 530 658 496 c 0,44,45
 658 480 658 480 657 473.5 c 128,-1,46
 656 467 656 467 650 453 c 0,47,48
 648 448 648 448 644.5 441 c 128,-1,49
 641 434 641 434 637.5 427.5 c 128,-1,50
 634 421 634 421 631.5 416 c 128,-1,51
 629 411 629 411 629 411 c 1,52,-1
 620 411 l 1,53,54
 620 434 620 434 624.5 451 c 128,-1,55
 629 468 629 468 629 488 c 0,56,57
 629 497 629 497 626.5 507.5 c 128,-1,58
 624 518 624 518 615 523 c 0,59,60
 611 524 611 524 599 524.5 c 128,-1,61
 587 525 587 525 584 525 c 0,62,63
 560 525 560 525 529.5 515.5 c 128,-1,64
 499 506 499 506 471 488.5 c 128,-1,65
 443 471 443 471 424 447.5 c 128,-1,66
 405 424 405 424 405 396 c 0,67,68
 405 365 405 365 417 341 c 128,-1,69
 429 317 429 317 444 294.5 c 128,-1,70
 459 272 459 272 471 247.5 c 128,-1,71
 483 223 483 223 483 192 c 0,72,73
 483 142 483 142 452 102.5 c 128,-1,74
 421 63 421 63 375.5 35 c 128,-1,75
 330 7 330 7 278 -7.5 c 128,-1,76
 226 -22 226 -22 184 -22 c 0,77,78
 148 -22 148 -22 112.5 -9 c 128,-1,79
 77 4 77 4 49 28 c 128,-1,80
 21 52 21 52 3.5 85 c 128,-1,81
 -14 118 -14 118 -14 157 c 0,0,1
26 142 m 1,82,83
 26 136 26 136 28.5 130 c 128,-1,84
 31 124 31 124 38 124 c 0,85,86
 39 124 39 124 40 124.5 c 128,-1,87
 41 125 41 125 42 125 c 1,88,89
 41 132 41 132 37.5 137 c 128,-1,90
 34 142 34 142 26 142 c 1,82,83
EndSplineSet
EndChar

StartChar: T
Encoding: 84 84 21
Width: 551
GlyphClass: 1
Flags: W
LayerCount: 2
Fore
SplineSet
177 -4 m 0,0,1
 177 5 177 5 185.5 17.5 c 128,-1,2
 194 30 194 30 205 43 c 128,-1,3
 216 56 216 56 226.5 66.5 c 128,-1,4
 237 77 237 77 241 82 c 0,5,6
 270 122 270 122 291 165 c 128,-1,7
 312 208 312 208 338 250 c 0,8,9
 371 304 371 304 404.5 354.5 c 128,-1,10
 438 405 438 405 471 459 c 0,11,12
 475 466 475 466 476.5 468.5 c 128,-1,13
 478 471 478 471 478 473 c 0,14,15
 478 476 478 476 477 479 c 128,-1,16
 476 482 476 482 476 491 c 1,17,18
 374 491 374 491 286.5 467.5 c 128,-1,19
 199 444 199 444 108 396 c 0,20,21
 92 388 92 388 85 377 c 128,-1,22
 78 366 78 366 73 356 c 128,-1,23
 68 346 68 346 61.5 339.5 c 128,-1,24
 55 333 55 333 40 333 c 0,25,26
 29 333 29 333 19 336.5 c 128,-1,27
 9 340 9 340 9 354 c 0,28,29
 9 355 9 355 9.5 357.5 c 128,-1,30
 10 360 10 360 10 361 c 0,31,32
 47 398 47 398 91.5 426 c 128,-1,33
 136 454 136 454 184.5 474 c 128,-1,34
 233 494 233 494 284.5 507.5 c 128,-1,35
 336 521 336 521 387 529 c 0,36,37
 390 529 390 529 399 530 c 128,-1,38
 408 531 408 531 418.5 532.5 c 128,-1,39
 429 534 429 534 438 535 c 128,-1,40
 447 536 447 536 450 536 c 0,41,42
 459 537 459 537 479.5 545 c 128,-1,43
 500 553 500 553 521 562 c 128,-1,44
 542 571 542 571 559.5 578 c 128,-1,45
 577 585 577 585 580 585 c 0,46,47
 589 585 589 585 590 577 c 128,-1,48
 591 569 591 569 591 563 c 0,49,50
 591 554 591 554 586 546 c 128,-1,51
 581 538 581 538 574 530.5 c 128,-1,52
 567 523 567 523 559.5 515.5 c 128,-1,53
 552 508 552 508 548 501 c 0,54,55
 541 491 541 491 527.5 470 c 128,-1,56
 514 449 514 449 496.5 422 c 128,-1,57
 479 395 479 395 460 365.5 c 128,-1,58
 441 336 441 336 423.5 309 c 128,-1,59
 406 282 406 282 392.5 260.5 c 128,-1,60
 379 239 379 239 373 229 c 0,61,62
 346 162 346 162 302 98.5 c 128,-1,63
 258 35 258 35 213 -22 c 0,64,65
 211 -22 211 -22 206 -22.5 c 128,-1,66
 201 -23 201 -23 199 -23 c 0,67,68
 187 -23 187 -23 182 -20 c 128,-1,69
 177 -17 177 -17 177 -4 c 0,0,1
EndSplineSet
EndChar

StartChar: U
Encoding: 85 85 22
Width: 615
GlyphClass: 1
Flags: W
LayerCount: 2
Fore
SplineSet
10 64 m 0,0,1
 10 83 10 83 12 99.5 c 128,-1,2
 14 116 14 116 17 136 c 0,3,4
 49 236 49 236 83 332 c 128,-1,5
 117 428 117 428 150 527 c 0,6,7
 154 538 154 538 161.5 547 c 128,-1,8
 169 556 169 556 182 556 c 0,9,10
 193 556 193 556 196 549 c 128,-1,11
 199 542 199 542 199 531 c 2,12,-1
 199 527 l 2,13,14
 196 516 196 516 187 490.5 c 128,-1,15
 178 465 178 465 167.5 436.5 c 128,-1,16
 157 408 157 408 148 382 c 128,-1,17
 139 356 139 356 136 345 c 0,18,19
 124 313 124 313 109 279 c 128,-1,20
 94 245 94 245 81.5 210 c 128,-1,21
 69 175 69 175 60 139.5 c 128,-1,22
 51 104 51 104 51 68 c 0,23,24
 51 57 51 57 61.5 47.5 c 128,-1,25
 72 38 72 38 83 38 c 0,26,27
 104 38 104 38 129.5 52 c 128,-1,28
 155 66 155 66 181.5 88.5 c 128,-1,29
 208 111 208 111 233.5 139 c 128,-1,30
 259 167 259 167 280 196 c 128,-1,31
 301 225 301 225 316.5 251.5 c 128,-1,32
 332 278 332 278 338 297 c 2,33,-1
 422 555 l 2,34,35
 427 569 427 569 442 571.5 c 128,-1,36
 457 574 457 574 467 574 c 1,37,38
 467 548 467 548 458 528 c 128,-1,39
 449 508 449 508 443 485 c 0,40,41
 435 450 435 450 423 414.5 c 128,-1,42
 411 379 411 379 400 343 c 128,-1,43
 389 307 389 307 381 270.5 c 128,-1,44
 373 234 373 234 373 198 c 0,45,46
 373 178 373 178 381 161.5 c 128,-1,47
 389 145 389 145 402.5 133 c 128,-1,48
 416 121 416 121 433.5 114 c 128,-1,49
 451 107 451 107 471 107 c 0,50,51
 489 107 489 107 506 113 c 128,-1,52
 523 119 523 119 539.5 126 c 128,-1,53
 556 133 556 133 573 139 c 128,-1,54
 590 145 590 145 608 145 c 1,55,56
 608 125 608 125 590 110 c 128,-1,57
 572 95 572 95 548 85 c 128,-1,58
 524 75 524 75 499 70 c 128,-1,59
 474 65 474 65 460 65 c 0,60,61
 427 65 427 65 404 80.5 c 128,-1,62
 381 96 381 96 364.5 114.5 c 128,-1,63
 348 133 348 133 337 148.5 c 128,-1,64
 326 164 326 164 317 164 c 0,65,66
 312 164 312 164 300 152 c 128,-1,67
 288 140 288 140 270.5 122 c 128,-1,68
 253 104 253 104 231.5 83 c 128,-1,69
 210 62 210 62 186 44 c 128,-1,70
 162 26 162 26 136 14 c 128,-1,71
 110 2 110 2 85 2 c 0,72,73
 55 2 55 2 32.5 15 c 128,-1,74
 10 28 10 28 10 64 c 0,0,1
EndSplineSet
EndChar

StartChar: V
Encoding: 86 86 23
Width: 375
GlyphClass: 1
Flags: W
LayerCount: 2
Fore
SplineSet
27 27 m 2,0,1
 27 54 27 54 30 81.5 c 128,-1,2
 33 109 33 109 42 135 c 1,3,-1
 56 442 l 1,4,5
 74 506 74 506 70 568 c 0,6,7
 72 575 72 575 77 575.5 c 128,-1,8
 82 576 82 576 87 576 c 0,9,10
 101 576 101 576 106.5 564 c 128,-1,11
 112 552 112 552 112 538 c 2,12,-1
 112 522 l 1,13,-1
 112 498 l 1,14,15
 104 420 104 420 94 345 c 128,-1,16
 84 270 84 270 84 189 c 0,17,18
 84 184 84 184 83.5 178 c 128,-1,19
 83 172 83 172 91 170 c 0,20,21
 93 171 93 171 98 176.5 c 128,-1,22
 103 182 103 182 105 184 c 0,23,24
 126 213 126 213 152.5 252 c 128,-1,25
 179 291 179 291 209.5 332 c 128,-1,26
 240 373 240 373 274 413 c 128,-1,27
 308 453 308 453 345 484.5 c 128,-1,28
 382 516 382 516 422 535.5 c 128,-1,29
 462 555 462 555 504 555 c 0,30,31
 536 555 536 555 555 536.5 c 128,-1,32
 574 518 574 518 574 485 c 0,33,34
 574 477 574 477 572 467 c 128,-1,35
 570 457 570 457 566 448 c 128,-1,36
 562 439 562 439 555 433 c 128,-1,37
 548 427 548 427 538 427 c 0,38,39
 529 427 529 427 523 433.5 c 128,-1,40
 517 440 517 440 517 449 c 0,41,42
 517 460 517 460 521 468 c 128,-1,43
 525 476 525 476 525 488 c 2,44,-1
 525 500 l 2,45,46
 525 510 525 510 517 512 c 0,47,48
 514 512 514 512 504.5 512.5 c 128,-1,49
 495 513 495 513 493 513 c 0,50,51
 451 513 451 513 407.5 485.5 c 128,-1,52
 364 458 364 458 321.5 413.5 c 128,-1,53
 279 369 279 369 239.5 313 c 128,-1,54
 200 257 200 257 166 201 c 128,-1,55
 132 145 132 145 105.5 94.5 c 128,-1,56
 79 44 79 44 63 9 c 0,57,58
 61 7 61 7 56 2.5 c 128,-1,59
 51 -2 51 -2 49 -4 c 0,60,61
 48 -5 48 -5 47 -5 c 2,62,-1
 45 -5 l 2,63,64
 34 -5 34 -5 30.5 2 c 128,-1,65
 27 9 27 9 27 17 c 2,66,-1
 27 27 l 2,0,1
EndSplineSet
EndChar

StartChar: W
Encoding: 87 87 24
Width: 815
GlyphClass: 1
Flags: W
LayerCount: 2
Fore
SplineSet
10 -2 m 0,0,1
 10 14 10 14 23.5 46 c 128,-1,2
 37 78 37 78 59 119 c 128,-1,3
 81 160 81 160 110 207 c 128,-1,4
 139 254 139 254 169 300 c 128,-1,5
 199 346 199 346 229 389 c 128,-1,6
 259 432 259 432 283 464.5 c 128,-1,7
 307 497 307 497 324 516.5 c 128,-1,8
 341 536 341 536 345 536 c 0,9,10
 354 536 354 536 357 531 c 128,-1,11
 360 526 360 526 360 518 c 0,12,13
 360 507 360 507 354 495.5 c 128,-1,14
 348 484 348 484 339.5 473.5 c 128,-1,15
 331 463 331 463 323 453.5 c 128,-1,16
 315 444 315 444 311 437 c 0,17,18
 306 429 306 429 294 411 c 128,-1,19
 282 393 282 393 268.5 373 c 128,-1,20
 255 353 255 353 243 335.5 c 128,-1,21
 231 318 231 318 227 312 c 0,22,23
 226 311 226 311 224 307 c 128,-1,24
 222 303 222 303 219.5 298 c 128,-1,25
 217 293 217 293 215 288.5 c 128,-1,26
 213 284 213 284 213 284 c 2,27,28
 210 279 210 279 200.5 264 c 128,-1,29
 191 249 191 249 178 229 c 128,-1,30
 165 209 165 209 150 186 c 128,-1,31
 135 163 135 163 122 143 c 128,-1,32
 109 123 109 123 99.5 108 c 128,-1,33
 90 93 90 93 87 88 c 0,34,35
 69 59 69 59 60 43 c 128,-1,36
 51 27 51 27 51 1 c 0,37,38
 51 -12 51 -12 59 -24.5 c 128,-1,39
 67 -37 67 -37 83 -37 c 2,40,-1
 87 -37 l 1,41,42
 158 -11 158 -11 216.5 32 c 128,-1,43
 275 75 275 75 325 128 c 128,-1,44
 375 181 375 181 419 241 c 128,-1,45
 463 301 463 301 506 361 c 0,46,47
 508 363 508 363 516.5 368 c 128,-1,48
 525 373 525 373 527 374 c 0,49,50
 528 375 528 375 531 375 c 0,51,52
 539 375 539 375 544 368 c 128,-1,53
 549 361 549 361 549 354 c 2,54,-1
 549 350 l 2,55,56
 549 348 549 348 548 347 c 0,57,58
 533 325 533 325 516 300 c 128,-1,59
 499 275 499 275 484.5 248 c 128,-1,60
 470 221 470 221 460 193 c 128,-1,61
 450 165 450 165 450 137 c 0,62,63
 450 110 450 110 461.5 91.5 c 128,-1,64
 473 73 473 73 503 73 c 0,65,66
 519 73 519 73 540 84 c 128,-1,67
 561 95 561 95 584 113 c 128,-1,68
 607 131 607 131 630 153 c 128,-1,69
 653 175 653 175 674 197 c 128,-1,70
 695 219 695 219 711.5 238.5 c 128,-1,71
 728 258 728 258 737 270 c 0,72,73
 756 309 756 309 775 347 c 128,-1,74
 794 385 794 385 810.5 423 c 128,-1,75
 827 461 827 461 839 500.5 c 128,-1,76
 851 540 851 540 856 584 c 0,77,78
 858 586 858 586 863 591.5 c 128,-1,79
 868 597 868 597 870 598 c 2,80,-1
 872 598 l 2,81,82
 873 598 873 598 873 598.5 c 128,-1,83
 873 599 873 599 874 599 c 0,84,85
 888 599 888 599 890 586.5 c 128,-1,86
 892 574 892 574 892 565 c 0,87,88
 892 547 892 547 887 526 c 128,-1,89
 882 505 882 505 875.5 484 c 128,-1,90
 869 463 869 463 861.5 443.5 c 128,-1,91
 854 424 854 424 849 409 c 0,92,93
 832 361 832 361 811 321 c 128,-1,94
 790 281 790 281 764.5 245.5 c 128,-1,95
 739 210 739 210 708 177 c 128,-1,96
 677 144 677 144 639 109 c 0,97,98
 610 81 610 81 574 56.5 c 128,-1,99
 538 32 538 32 496 32 c 0,100,101
 471 32 471 32 452.5 47.5 c 128,-1,102
 434 63 434 63 421 81 c 128,-1,103
 408 99 408 99 399 114.5 c 128,-1,104
 390 130 390 130 384 130 c 2,105,-1
 381 130 l 1,106,107
 376 125 376 125 364.5 113 c 128,-1,108
 353 101 353 101 339.5 87.5 c 128,-1,109
 326 74 326 74 314 62 c 128,-1,110
 302 50 302 50 297 46 c 0,111,112
 279 29 279 29 255.5 8.5 c 128,-1,113
 232 -12 232 -12 205.5 -30 c 128,-1,114
 179 -48 179 -48 151.5 -60 c 128,-1,115
 124 -72 124 -72 97 -72 c 0,116,117
 55 -72 55 -72 32.5 -58 c 128,-1,118
 10 -44 10 -44 10 -2 c 0,0,1
EndSplineSet
EndChar

StartChar: X
Encoding: 88 88 25
Width: 539
GlyphClass: 1
Flags: W
LayerCount: 2
Fore
SplineSet
-7 -43 m 0,0,1
 -7 -41 -7 -41 -6.5 -37.5 c 128,-1,2
 -6 -34 -6 -34 -6 -32 c 0,3,4
 16 1 16 1 47 31.5 c 128,-1,5
 78 62 78 62 112 92 c 128,-1,6
 146 122 146 122 179 153 c 128,-1,7
 212 184 212 184 238 219 c 1,8,-1
 238 222 l 1,9,-1
 238 226 l 1,10,11
 225 264 225 264 215.5 300 c 128,-1,12
 206 336 206 336 199.5 371.5 c 128,-1,13
 193 407 193 407 190 444 c 128,-1,14
 187 481 187 481 187 522 c 1,15,16
 190 522 190 522 201.5 521 c 128,-1,17
 213 520 213 520 217 519 c 0,18,19
 218 519 218 519 220.5 516.5 c 128,-1,20
 223 514 223 514 224 512 c 0,21,22
 227 488 227 488 229 458.5 c 128,-1,23
 231 429 231 429 235 398 c 128,-1,24
 239 367 239 367 246 336.5 c 128,-1,25
 253 306 253 306 266 281 c 0,26,27
 268 276 268 276 271.5 275 c 128,-1,28
 275 274 275 274 280 274 c 0,29,30
 289 274 289 274 303.5 287.5 c 128,-1,31
 318 301 318 301 335.5 321.5 c 128,-1,32
 353 342 353 342 372 367.5 c 128,-1,33
 391 393 391 393 409 417 c 128,-1,34
 427 441 427 441 442.5 461 c 128,-1,35
 458 481 458 481 468 491 c 2,36,-1
 580 603 l 1,37,-1
 584 603 l 2,38,39
 596 603 596 603 599 598 c 128,-1,40
 602 593 602 593 602 582 c 0,41,42
 602 580 602 580 601.5 575 c 128,-1,43
 601 570 601 570 601 568 c 0,44,45
 517 489 517 489 444.5 399 c 128,-1,46
 372 309 372 309 301 219 c 0,47,48
 300 218 300 218 300 215 c 2,49,-1
 300 212 l 2,50,51
 300 199 300 199 317.5 174 c 128,-1,52
 335 149 335 149 358.5 123.5 c 128,-1,53
 382 98 382 98 405 78.5 c 128,-1,54
 428 59 428 59 440 58 c 0,55,56
 441 58 441 58 451.5 58.5 c 128,-1,57
 462 59 462 59 473 58.5 c 128,-1,58
 484 58 484 58 493.5 54 c 128,-1,59
 503 50 503 50 503 41 c 0,60,61
 503 8 503 8 475 8 c 0,62,63
 448 8 448 8 423.5 20 c 128,-1,64
 399 32 399 32 377.5 50 c 128,-1,65
 356 68 356 68 337.5 89 c 128,-1,66
 319 110 319 110 304.5 128 c 128,-1,67
 290 146 290 146 279 158 c 128,-1,68
 268 170 268 170 262 170 c 0,69,70
 251 170 251 170 240.5 159.5 c 128,-1,71
 230 149 230 149 224 142 c 0,72,73
 222 140 222 140 213.5 130.5 c 128,-1,74
 205 121 205 121 196 110.5 c 128,-1,75
 187 100 187 100 178.5 90.5 c 128,-1,76
 170 81 170 81 168 79 c 0,77,78
 160 71 160 71 139 51 c 128,-1,79
 118 31 118 31 94.5 8.5 c 128,-1,80
 71 -14 71 -14 50 -33.5 c 128,-1,81
 29 -53 29 -53 21 -60 c 1,82,-1
 14 -60 l 2,83,84
 4 -60 4 -60 -1.5 -57 c 128,-1,85
 -7 -54 -7 -54 -7 -43 c 0,0,1
EndSplineSet
EndChar

StartChar: Y
Encoding: 89 89 26
Width: 516
GlyphClass: 1
Flags: W
LayerCount: 2
Fore
SplineSet
72 -183 m 0,0,1
 72 -165 72 -165 79.5 -144.5 c 128,-1,2
 87 -124 87 -124 98.5 -104.5 c 128,-1,3
 110 -85 110 -85 122 -67 c 128,-1,4
 134 -49 134 -49 143 -36 c 0,5,6
 146 -33 146 -33 152 -28 c 128,-1,7
 158 -23 158 -23 164.5 -16 c 128,-1,8
 171 -9 171 -9 177 -2 c 128,-1,9
 183 5 183 5 185 12 c 2,10,-1
 311 130 l 1,11,-1
 311 144 l 1,12,-1
 297 144 l 1,13,14
 275 127 275 127 251 108.5 c 128,-1,15
 227 90 227 90 200.5 74.5 c 128,-1,16
 174 59 174 59 145.5 49 c 128,-1,17
 117 39 117 39 87 39 c 0,18,19
 50 39 50 39 29.5 60.5 c 128,-1,20
 9 82 9 82 9 117 c 0,21,22
 9 143 9 143 18.5 166 c 128,-1,23
 28 189 28 189 41.5 211 c 128,-1,24
 55 233 55 233 69.5 254.5 c 128,-1,25
 84 276 84 276 94 298 c 0,26,27
 98 308 98 308 99 316 c 128,-1,28
 100 324 100 324 100.5 331.5 c 128,-1,29
 101 339 101 339 104 346 c 128,-1,30
 107 353 107 353 115 361 c 0,31,32
 116 363 116 363 125 365 c 128,-1,33
 134 367 134 367 136 368 c 0,34,35
 141 370 141 370 152 385.5 c 128,-1,36
 163 401 163 401 174.5 419 c 128,-1,37
 186 437 186 437 195 453 c 128,-1,38
 204 469 204 469 206 473 c 2,39,-1
 304 599 l 1,40,-1
 307 599 l 2,41,42
 309 599 309 599 310 599.5 c 128,-1,43
 311 600 311 600 313 600 c 0,44,45
 321 600 321 600 330 596 c 128,-1,46
 339 592 339 592 339 581 c 2,47,-1
 339 579 l 2,48,49
 339 578 339 578 338 578 c 1,50,51
 338 576 338 576 332.5 568 c 128,-1,52
 327 560 327 560 325 557 c 0,53,54
 249 454 249 454 177.5 350 c 128,-1,55
 106 246 106 246 52 130 c 0,56,57
 52 128 52 128 51.5 123 c 128,-1,58
 51 118 51 118 51 116 c 0,59,60
 51 81 51 81 88 81 c 0,61,62
 116 81 116 81 145.5 93.5 c 128,-1,63
 175 106 175 106 202.5 124.5 c 128,-1,64
 230 143 230 143 254.5 163.5 c 128,-1,65
 279 184 279 184 297 200 c 0,66,67
 303 206 303 206 318 220.5 c 128,-1,68
 333 235 333 235 349.5 251.5 c 128,-1,69
 366 268 366 268 381 283.5 c 128,-1,70
 396 299 396 299 401 305 c 0,71,72
 408 317 408 317 425.5 346 c 128,-1,73
 443 375 443 375 463 407 c 128,-1,74
 483 439 483 439 501 468 c 128,-1,75
 519 497 519 497 527 508 c 0,76,77
 528 509 528 509 536 519 c 128,-1,78
 544 529 544 529 555 542.5 c 128,-1,79
 566 556 566 556 577.5 569.5 c 128,-1,80
 589 583 589 583 597 592 c 0,81,82
 602 598 602 598 604 598.5 c 128,-1,83
 606 599 606 599 615 599 c 0,84,85
 623 599 623 599 631.5 595.5 c 128,-1,86
 640 592 640 592 640 581 c 2,87,-1
 639 578 l 2,88,89
 633 569 633 569 618 547.5 c 128,-1,90
 603 526 603 526 586.5 501 c 128,-1,91
 570 476 570 476 555 454.5 c 128,-1,92
 540 433 540 433 534 424 c 0,93,94
 527 413 527 413 513.5 393.5 c 128,-1,95
 500 374 500 374 484 349.5 c 128,-1,96
 468 325 468 325 451 298.5 c 128,-1,97
 434 272 434 272 420.5 248 c 128,-1,98
 407 224 407 224 398 204.5 c 128,-1,99
 389 185 389 185 389 175 c 1,100,101
 416 175 416 175 439 184.5 c 128,-1,102
 462 194 462 194 489 194 c 0,103,104
 496 194 496 194 505 193.5 c 128,-1,105
 514 193 514 193 514 183 c 0,106,107
 514 182 514 182 513.5 181 c 128,-1,108
 513 180 513 180 513 179 c 0,109,110
 493 170 493 170 466.5 158.5 c 128,-1,111
 440 147 440 147 413 133 c 128,-1,112
 386 119 386 119 362 102.5 c 128,-1,113
 338 86 338 86 325 68 c 0,114,115
 322 61 322 61 314 45 c 128,-1,116
 306 29 306 29 297 11.5 c 128,-1,117
 288 -6 288 -6 280 -21.5 c 128,-1,118
 272 -37 272 -37 269 -43 c 0,119,120
 267 -46 267 -46 260.5 -54.5 c 128,-1,121
 254 -63 254 -63 246.5 -73 c 128,-1,122
 239 -83 239 -83 231.5 -92.5 c 128,-1,123
 224 -102 224 -102 220 -106 c 2,124,-1
 157 -169 l 2,125,126
 137 -186 137 -186 126 -195.5 c 128,-1,127
 115 -205 115 -205 94 -205 c 0,128,129
 72 -205 72 -205 72 -183 c 0,0,1
143 -113 m 1,130,-1
 150 -120 l 1,131,132
 157 -114 157 -114 171.5 -99 c 128,-1,133
 186 -84 186 -84 200 -67 c 128,-1,134
 214 -50 214 -50 225 -33.5 c 128,-1,135
 236 -17 236 -17 236 -8 c 1,136,-1
 227 -8 l 1,137,138
 227 -8 227 -8 222.5 -12 c 128,-1,139
 218 -16 218 -16 212.5 -21.5 c 128,-1,140
 207 -27 207 -27 201 -33 c 128,-1,141
 195 -39 195 -39 192 -43 c 0,142,143
 190 -45 190 -45 186 -50 c 128,-1,144
 182 -55 182 -55 177.5 -60.5 c 128,-1,145
 173 -66 173 -66 169 -71 c 128,-1,146
 165 -76 165 -76 164 -78 c 0,147,148
 161 -82 161 -82 157.5 -88 c 128,-1,149
 154 -94 154 -94 150.5 -99.5 c 128,-1,150
 147 -105 147 -105 145 -109 c 128,-1,151
 143 -113 143 -113 143 -113 c 1,130,-1
EndSplineSet
EndChar

StartChar: Z
Encoding: 90 90 27
Width: 457
GlyphClass: 1
Flags: W
LayerCount: 2
Fore
SplineSet
9 -475 m 0,0,1
 9 -441 9 -441 21.5 -404.5 c 128,-1,2
 34 -368 34 -368 54.5 -334 c 128,-1,3
 75 -300 75 -300 100 -270.5 c 128,-1,4
 125 -241 125 -241 150 -220 c 0,5,6
 156 -215 156 -215 169 -205.5 c 128,-1,7
 182 -196 182 -196 196 -185 c 128,-1,8
 210 -174 210 -174 222.5 -163 c 128,-1,9
 235 -152 235 -152 240 -143 c 0,10,11
 247 -131 247 -131 254 -110 c 128,-1,12
 261 -89 261 -89 267.5 -66 c 128,-1,13
 274 -43 274 -43 279.5 -22 c 128,-1,14
 285 -1 285 -1 289 10 c 0,15,16
 298 38 298 38 310 71.5 c 128,-1,17
 322 105 322 105 333.5 140.5 c 128,-1,18
 345 176 345 176 352.5 211.5 c 128,-1,19
 360 247 360 247 360 279 c 0,20,21
 360 281 360 281 359.5 290.5 c 128,-1,22
 359 300 359 300 359 303 c 0,23,24
 359 308 359 308 352 310 c 2,25,-1
 351 310 l 2,26,27
 349 311 349 311 349 311 c 2,28,29
 348 311 348 311 348 310.5 c 128,-1,30
 348 310 348 310 347 310 c 2,31,-1
 345 310 l 1,32,33
 341 306 341 306 327.5 296 c 128,-1,34
 314 286 314 286 310 282 c 0,35,36
 302 275 302 275 283 256.5 c 128,-1,37
 264 238 264 238 243 216.5 c 128,-1,38
 222 195 222 195 203.5 176 c 128,-1,39
 185 157 185 157 178 149 c 1,40,-1
 167 149 l 2,41,42
 156 149 156 149 152.5 152.5 c 128,-1,43
 149 156 149 156 149 167 c 0,44,45
 149 187 149 187 164.5 215 c 128,-1,46
 180 243 180 243 198.5 274.5 c 128,-1,47
 217 306 217 306 232.5 338 c 128,-1,48
 248 370 248 370 248 398 c 0,49,50
 248 404 248 404 243.5 406 c 128,-1,51
 239 408 239 408 234 408 c 0,52,53
 204 408 204 408 175 386 c 128,-1,54
 146 364 146 364 119.5 337.5 c 128,-1,55
 93 311 93 311 70.5 289 c 128,-1,56
 48 267 48 267 31 267 c 0,57,58
 23 267 23 267 16.5 272 c 128,-1,59
 10 277 10 277 10 285 c 2,60,-1
 10 289 l 1,61,-1
 17 303 l 1,62,63
 38 324 38 324 64 350 c 128,-1,64
 90 376 90 376 119.5 398.5 c 128,-1,65
 149 421 149 421 181.5 436 c 128,-1,66
 214 451 214 451 249 451 c 0,67,68
 263 451 263 451 276.5 446 c 128,-1,69
 290 441 290 441 290 423 c 0,70,71
 290 396 290 396 283 370 c 128,-1,72
 276 344 276 344 276 317 c 1,73,-1
 289 317 l 2,74,75
 291 320 291 320 298 325.5 c 128,-1,76
 305 331 305 331 313 336.5 c 128,-1,77
 321 342 321 342 328 346.5 c 128,-1,78
 335 351 335 351 338 352 c 0,79,80
 339 352 339 352 346 352.5 c 128,-1,81
 353 353 353 353 357 353 c 0,82,83
 373 353 373 353 382.5 347 c 128,-1,84
 392 341 392 341 396 331 c 128,-1,85
 400 321 400 321 401 307.5 c 128,-1,86
 402 294 402 294 402 280 c 0,87,88
 402 259 402 259 398.5 233 c 128,-1,89
 395 207 395 207 388.5 180.5 c 128,-1,90
 382 154 382 154 373 129.5 c 128,-1,91
 364 105 364 105 352 87 c 1,92,-1
 303 -87 l 1,93,-1
 296 -101 l 1,94,-1
 296 -105 l 1,95,-1
 296 -108 l 1,96,-1
 303 -115 l 1,97,-1
 307 -115 l 1,98,-1
 310 -115 l 2,99,100
 312 -114 312 -114 320.5 -111 c 128,-1,101
 329 -108 329 -108 331 -108 c 0,102,103
 334 -107 334 -107 343 -105 c 128,-1,104
 352 -103 352 -103 362 -101 c 128,-1,105
 372 -99 372 -99 381 -97 c 128,-1,106
 390 -95 390 -95 394 -94 c 2,107,-1
 398 -94 l 2,108,109
 423 -94 423 -94 442 -101.5 c 128,-1,110
 461 -109 461 -109 461 -137 c 1,111,112
 447 -137 447 -137 434 -132.5 c 128,-1,113
 421 -128 421 -128 407 -128 c 0,114,115
 346 -128 346 -128 310 -157.5 c 128,-1,116
 274 -187 274 -187 250.5 -230.5 c 128,-1,117
 227 -274 227 -274 210 -324 c 128,-1,118
 193 -374 193 -374 171 -415 c 0,119,120
 151 -450 151 -450 129 -479 c 128,-1,121
 107 -508 107 -508 87 -541 c 1,122,-1
 24 -541 l 1,123,124
 21 -531 21 -531 18.5 -523.5 c 128,-1,125
 16 -516 16 -516 13.5 -509.5 c 128,-1,126
 11 -503 11 -503 10 -495 c 128,-1,127
 9 -487 9 -487 9 -475 c 0,0,1
44 -486 m 0,128,129
 44 -495 44 -495 46 -501 c 128,-1,130
 48 -507 48 -507 59 -507 c 256,131,132
 70 -507 70 -507 85 -488 c 128,-1,133
 100 -469 100 -469 116.5 -440 c 128,-1,134
 133 -411 133 -411 149 -377 c 128,-1,135
 165 -343 165 -343 178 -313.5 c 128,-1,136
 191 -284 191 -284 199 -263.5 c 128,-1,137
 207 -243 207 -243 207 -241 c 1,138,-1
 192 -241 l 2,139,140
 190 -241 190 -241 182.5 -248 c 128,-1,141
 175 -255 175 -255 165 -265 c 128,-1,142
 155 -275 155 -275 145 -286 c 128,-1,143
 135 -297 135 -297 129 -304 c 0,144,145
 115 -321 115 -321 100 -342.5 c 128,-1,146
 85 -364 85 -364 72.5 -388 c 128,-1,147
 60 -412 60 -412 52 -437 c 128,-1,148
 44 -462 44 -462 44 -486 c 0,128,129
EndSplineSet
EndChar

StartChar: a
Encoding: 97 97 28
Width: 494
GlyphClass: 1
Flags: W
LayerCount: 2
Fore
SplineSet
232 60 m 1,0,-1
 228 60 l 2,1,2
 213 60 213 60 198.5 49 c 128,-1,3
 184 38 184 38 167.5 25 c 128,-1,4
 151 12 151 12 130 1 c 128,-1,5
 109 -10 109 -10 81 -10 c 0,6,7
 78 -10 78 -10 66 -9.5 c 128,-1,8
 54 -9 54 -9 50 -9 c 0,9,10
 37 1 37 1 25.5 14.5 c 128,-1,11
 14 28 14 28 14 45 c 0,12,13
 14 68 14 68 26 99 c 128,-1,14
 38 130 38 130 58 163.5 c 128,-1,15
 78 197 78 197 104 230 c 128,-1,16
 130 263 130 263 158.5 289 c 128,-1,17
 187 315 187 315 215.5 331 c 128,-1,18
 244 347 244 347 270 347 c 0,19,20
 274 347 274 347 281.5 346 c 128,-1,21
 289 345 289 345 296.5 342.5 c 128,-1,22
 304 340 304 340 309.5 336 c 128,-1,23
 315 332 315 332 315 325 c 2,24,-1
 315 255 l 2,25,26
 315 250 315 250 318.5 248 c 128,-1,27
 322 246 322 246 326.5 244 c 128,-1,28
 331 242 331 242 334.5 238.5 c 128,-1,29
 338 235 338 235 338 227 c 0,30,31
 338 220 338 220 336 214 c 0,32,33
 333 208 333 208 326 194.5 c 128,-1,34
 319 181 319 181 311 165 c 128,-1,35
 303 149 303 149 296.5 135.5 c 128,-1,36
 290 122 290 122 287 116 c 0,37,38
 286 114 286 114 283.5 103.5 c 128,-1,39
 281 93 281 93 280 88 c 2,40,-1
 280 80 l 2,41,42
 280 63 280 63 292 51 c 128,-1,43
 304 39 304 39 321 31.5 c 128,-1,44
 338 24 338 24 356.5 20.5 c 128,-1,45
 375 17 375 17 387 17 c 0,46,47
 415 17 415 17 437.5 22 c 128,-1,48
 460 27 460 27 486 27 c 1,49,50
 486 14 486 14 477.5 5.5 c 128,-1,51
 469 -3 469 -3 456 -7.5 c 128,-1,52
 443 -12 443 -12 427 -14 c 128,-1,53
 411 -16 411 -16 397 -16 c 2,54,-1
 367 -16 l 2,55,56
 325 -16 325 -16 291 5.5 c 128,-1,57
 257 27 257 27 232 60 c 1,0,-1
49 52 m 0,58,59
 49 39 49 39 56 34.5 c 128,-1,60
 63 30 63 30 78 18 c 1,61,-1
 81 18 l 2,62,63
 104 18 104 18 128.5 34.5 c 128,-1,64
 153 51 153 51 176 77 c 128,-1,65
 199 103 199 103 219 135.5 c 128,-1,66
 239 168 239 168 254.5 199.5 c 128,-1,67
 270 231 270 231 279 259 c 128,-1,68
 288 287 288 287 288 305 c 0,69,70
 288 314 288 314 283 316.5 c 128,-1,71
 278 319 278 319 270 319 c 0,72,73
 250 319 250 319 225.5 303 c 128,-1,74
 201 287 201 287 176.5 262.5 c 128,-1,75
 152 238 152 238 129 207 c 128,-1,76
 106 176 106 176 88 146.5 c 128,-1,77
 70 117 70 117 59.5 91.5 c 128,-1,78
 49 66 49 66 49 52 c 0,58,59
EndSplineSet
EndChar

StartChar: b
Encoding: 98 98 29
Width: 383
GlyphClass: 1
Flags: W
LayerCount: 2
Fore
SplineSet
81 53 m 1,0,-1
 77 53 l 2,1,2
 68 53 68 53 62 45.5 c 128,-1,3
 56 38 56 38 50 28.5 c 128,-1,4
 44 19 44 19 37 11.5 c 128,-1,5
 30 4 30 4 18 4 c 0,6,7
 4 4 4 4 4 18 c 0,8,9
 4 19 4 19 15.5 39.5 c 128,-1,10
 27 60 27 60 46.5 93 c 128,-1,11
 66 126 66 126 90.5 168 c 128,-1,12
 115 210 115 210 141 253.5 c 128,-1,13
 167 297 167 297 192.5 339 c 128,-1,14
 218 381 218 381 239 413.5 c 128,-1,15
 260 446 260 446 273.5 466 c 128,-1,16
 287 486 287 486 290 486 c 0,17,18
 295 486 295 486 300 484 c 128,-1,19
 305 482 305 482 305 475 c 0,20,21
 305 474 305 474 304.5 474 c 128,-1,22
 304 474 304 474 304 473 c 2,23,-1
 304 472 l 1,24,-1
 199 269 l 1,25,-1
 199 257 l 1,26,27
 211 257 211 257 222.5 260.5 c 128,-1,28
 234 264 234 264 245 267.5 c 128,-1,29
 256 271 256 271 268 274.5 c 128,-1,30
 280 278 280 278 294 278 c 0,31,32
 296 278 296 278 301 278 c 128,-1,33
 306 278 306 278 312 277.5 c 128,-1,34
 318 277 318 277 323.5 276.5 c 128,-1,35
 329 276 329 276 332 276 c 0,36,37
 354 260 354 260 361 240.5 c 128,-1,38
 368 221 368 221 368 195 c 0,39,40
 368 178 368 178 364 163 c 128,-1,41
 360 148 360 148 354 133.5 c 128,-1,42
 348 119 348 119 342 104.5 c 128,-1,43
 336 90 336 90 332 74 c 1,44,-1
 269 11 l 1,45,46
 259 8 259 8 252 5.5 c 128,-1,47
 245 3 245 3 238.5 1 c 128,-1,48
 232 -1 232 -1 224.5 -2 c 128,-1,49
 217 -3 217 -3 207 -3 c 0,50,51
 186 -3 186 -3 171 0.5 c 128,-1,52
 156 4 156 4 142.5 11 c 128,-1,53
 129 18 129 18 114.5 28.5 c 128,-1,54
 100 39 100 39 81 53 c 1,0,-1
102 88 m 1,55,56
 127 59 127 59 149.5 45 c 128,-1,57
 172 31 172 31 210 31 c 0,58,59
 237 31 237 31 260 47 c 128,-1,60
 283 63 283 63 299 87 c 128,-1,61
 315 111 315 111 324 139 c 128,-1,62
 333 167 333 167 333 192 c 0,63,64
 333 202 333 202 331.5 212 c 128,-1,65
 330 222 330 222 326 230.5 c 128,-1,66
 322 239 322 239 314.5 244 c 128,-1,67
 307 249 307 249 294 249 c 0,68,69
 271 249 271 249 238 232 c 128,-1,70
 205 215 205 215 174.5 191 c 128,-1,71
 144 167 144 167 122.5 139.5 c 128,-1,72
 101 112 101 112 101 91 c 1,73,-1
 102 88 l 1,55,56
EndSplineSet
EndChar

StartChar: c
Encoding: 99 99 30
Width: 269
GlyphClass: 1
Flags: W
LayerCount: 2
Fore
SplineSet
-2 84 m 0,0,1
 -2 94 -2 94 -1 100 c 128,-1,2
 0 106 0 106 4 116 c 0,3,4
 8 120 8 120 19 131.5 c 128,-1,5
 30 143 30 143 42 155 c 128,-1,6
 54 167 54 167 65 177.5 c 128,-1,7
 76 188 76 188 81 192 c 0,8,9
 84 195 84 195 97.5 206 c 128,-1,10
 111 217 111 217 128 230.5 c 128,-1,11
 145 244 145 244 161 257 c 128,-1,12
 177 270 177 270 185 276 c 0,13,14
 195 283 195 283 207.5 286.5 c 128,-1,15
 220 290 220 290 231 290 c 0,16,17
 254 290 254 290 258.5 276 c 128,-1,18
 263 262 263 262 263 242 c 0,19,20
 263 233 263 233 258 215.5 c 128,-1,21
 253 198 253 198 244.5 180 c 128,-1,22
 236 162 236 162 225 149 c 128,-1,23
 214 136 214 136 203 136 c 0,24,25
 199 136 199 136 199 137 c 0,26,27
 197 138 197 138 192 143 c 128,-1,28
 187 148 187 148 185 150 c 2,29,-1
 185 154 l 1,30,-1
 185 157 l 1,31,32
 202 174 202 174 215 191 c 128,-1,33
 228 208 228 208 228 231 c 0,34,35
 228 237 228 237 226.5 242.5 c 128,-1,36
 225 248 225 248 217 248 c 0,37,38
 213 248 213 248 207 245.5 c 128,-1,39
 201 243 201 243 195 239.5 c 128,-1,40
 189 236 189 236 184.5 232.5 c 128,-1,41
 180 229 180 229 178 227 c 256,42,43
 176 225 176 225 161 212 c 128,-1,44
 146 199 146 199 127.5 182.5 c 128,-1,45
 109 166 109 166 90 149.5 c 128,-1,46
 71 133 71 133 60 123 c 0,47,48
 50 114 50 114 44 104.5 c 128,-1,49
 38 95 38 95 38 82 c 0,50,51
 38 55 38 55 60 39 c 1,52,-1
 68 39 l 2,53,54
 74 39 74 39 80.5 38.5 c 128,-1,55
 87 38 87 38 93 38 c 2,56,-1
 102 38 l 2,57,58
 128 38 128 38 150.5 45.5 c 128,-1,59
 173 53 173 53 199 53 c 0,60,61
 211 53 211 53 216 50 c 128,-1,62
 221 47 221 47 221 35 c 0,63,64
 221 26 221 26 212 19.5 c 128,-1,65
 203 13 203 13 189 9.5 c 128,-1,66
 175 6 175 6 158 4.5 c 128,-1,67
 141 3 141 3 126 3 c 2,68,-1
 93 3 l 2,69,70
 74 3 74 3 57 8 c 128,-1,71
 40 13 40 13 27 23 c 128,-1,72
 14 33 14 33 6 48.5 c 128,-1,73
 -2 64 -2 64 -2 84 c 0,0,1
EndSplineSet
EndChar

StartChar: d
Encoding: 100 100 31
Width: 504
GlyphClass: 1
Flags: W
LayerCount: 2
Fore
SplineSet
10 19 m 0,0,1
 10 37 10 37 25 62 c 128,-1,2
 40 87 40 87 63.5 114 c 128,-1,3
 87 141 87 141 116.5 167.5 c 128,-1,4
 146 194 146 194 175.5 214.5 c 128,-1,5
 205 235 205 235 231.5 248 c 128,-1,6
 258 261 258 261 276 261 c 0,7,8
 293 261 293 261 307 250 c 128,-1,9
 321 239 321 239 335 239 c 0,10,11
 345 239 345 239 364.5 263 c 128,-1,12
 384 287 384 287 408 323 c 128,-1,13
 432 359 432 359 457.5 400.5 c 128,-1,14
 483 442 483 442 506 478 c 128,-1,15
 529 514 529 514 546.5 538 c 128,-1,16
 564 562 564 562 571 562 c 0,17,18
 580 562 580 562 585 559.5 c 128,-1,19
 590 557 590 557 590 547 c 0,20,21
 590 539 590 539 585.5 530 c 128,-1,22
 581 521 581 521 575 512 c 128,-1,23
 569 503 569 503 563.5 495.5 c 128,-1,24
 558 488 558 488 555 484 c 0,25,26
 553 482 553 482 548 473 c 128,-1,27
 543 464 543 464 537 453 c 128,-1,28
 531 442 531 442 526 432.5 c 128,-1,29
 521 423 521 423 520 421 c 0,30,31
 515 412 515 412 502.5 393.5 c 128,-1,32
 490 375 490 375 476.5 355 c 128,-1,33
 463 335 463 335 451.5 318 c 128,-1,34
 440 301 440 301 436 295 c 0,35,36
 419 272 419 272 395 245.5 c 128,-1,37
 371 219 371 219 349 189.5 c 128,-1,38
 327 160 327 160 311.5 128.5 c 128,-1,39
 296 97 296 97 296 64 c 0,40,41
 296 52 296 52 304 45 c 128,-1,42
 312 38 312 38 323 34.5 c 128,-1,43
 334 31 334 31 346.5 30 c 128,-1,44
 359 29 359 29 367 29 c 0,45,46
 387 29 387 29 406.5 34.5 c 128,-1,47
 426 40 426 40 445 47 c 128,-1,48
 464 54 464 54 482.5 59.5 c 128,-1,49
 501 65 501 65 520 65 c 0,50,51
 530 65 530 65 536 63.5 c 128,-1,52
 542 62 542 62 542 51 c 0,53,54
 542 37 542 37 517 26.5 c 128,-1,55
 492 16 492 16 459.5 9 c 128,-1,56
 427 2 427 2 397.5 -1.5 c 128,-1,57
 368 -5 368 -5 359 -5 c 0,58,59
 344 -5 344 -5 330 -0.5 c 128,-1,60
 316 4 316 4 304 9 c 128,-1,61
 292 14 292 14 282 18.5 c 128,-1,62
 272 23 272 23 265 23 c 0,63,64
 257 23 257 23 251 19 c 128,-1,65
 245 15 245 15 237 15 c 0,66,67
 226 15 226 15 219.5 22.5 c 128,-1,68
 213 30 213 30 202 30 c 2,69,-1
 199 30 l 1,70,71
 183 20 183 20 167.5 9 c 128,-1,72
 152 -2 152 -2 135.5 -11.5 c 128,-1,73
 119 -21 119 -21 101.5 -27 c 128,-1,74
 84 -33 84 -33 65 -33 c 0,75,76
 39 -33 39 -33 24.5 -18.5 c 128,-1,77
 10 -4 10 -4 10 19 c 0,0,1
51 26 m 0,78,79
 51 14 51 14 56 11 c 128,-1,80
 61 8 61 8 72 8 c 0,81,82
 99 8 99 8 137.5 29.5 c 128,-1,83
 176 51 176 51 211.5 81.5 c 128,-1,84
 247 112 247 112 272 145.5 c 128,-1,85
 297 179 297 179 297 204 c 0,86,87
 297 218 297 218 293.5 222 c 128,-1,88
 290 226 290 226 276 226 c 0,89,90
 261 226 261 226 249.5 220 c 128,-1,91
 238 214 238 214 227 205 c 0,92,93
 221 200 221 200 210 191.5 c 128,-1,94
 199 183 199 183 187.5 174 c 128,-1,95
 176 165 176 165 167 157.5 c 128,-1,96
 158 150 158 150 157 149 c 0,97,98
 151 144 151 144 137 130.5 c 128,-1,99
 123 117 123 117 107 101 c 128,-1,100
 91 85 91 85 77.5 71 c 128,-1,101
 64 57 64 57 59 51 c 0,102,103
 53 45 53 45 52 39.5 c 128,-1,104
 51 34 51 34 51 26 c 0,78,79
EndSplineSet
EndChar

StartChar: e
Encoding: 101 101 32
Width: 421
GlyphClass: 1
Flags: W
LayerCount: 2
Fore
SplineSet
386 318 m 1,0,1
 386 285 386 285 370 254 c 128,-1,2
 354 223 354 223 331 194.5 c 128,-1,3
 308 166 308 166 282 139.5 c 128,-1,4
 256 113 256 113 237 90 c 0,5,6
 228 79 228 79 222 72.5 c 128,-1,7
 216 66 216 66 216 55 c 0,8,9
 216 49 216 49 219 41.5 c 128,-1,10
 222 34 222 34 230 34 c 2,11,-1
 321 34 l 1,12,-1
 335 41 l 2,13,14
 339 42 339 42 348 45 c 128,-1,15
 357 48 357 48 367 51.5 c 128,-1,16
 377 55 377 55 386 58 c 128,-1,17
 395 61 395 61 398 62 c 2,18,-1
 402 62 l 2,19,20
 410 62 410 62 415 55.5 c 128,-1,21
 420 49 420 49 420 41 c 0,22,23
 420 27 420 27 400 17.5 c 128,-1,24
 380 8 380 8 353.5 2.5 c 128,-1,25
 327 -3 327 -3 301 -5.5 c 128,-1,26
 275 -8 275 -8 264 -8 c 0,27,28
 249 -8 249 -8 236.5 -2.5 c 128,-1,29
 224 3 224 3 212.5 9.5 c 128,-1,30
 201 16 201 16 190.5 21.5 c 128,-1,31
 180 27 180 27 171 27 c 2,32,-1
 168 27 l 1,33,34
 147 16 147 16 125.5 4.5 c 128,-1,35
 104 -7 104 -7 82.5 -16 c 128,-1,36
 61 -25 61 -25 38 -31 c 128,-1,37
 15 -37 15 -37 -9 -37 c 1,38,39
 -9 -20 -9 -20 1 -10 c 128,-1,40
 11 0 11 0 27 6.5 c 128,-1,41
 43 13 43 13 62.5 17.5 c 128,-1,42
 82 22 82 22 100.5 28 c 128,-1,43
 119 34 119 34 133.5 43.5 c 128,-1,44
 148 53 148 53 154 69 c 0,45,46
 154 70 154 70 155 76.5 c 128,-1,47
 156 83 156 83 157 90 c 128,-1,48
 158 97 158 97 159 103 c 128,-1,49
 160 109 160 109 161 111 c 0,50,51
 162 115 162 115 167.5 124 c 128,-1,52
 173 133 173 133 179.5 143 c 128,-1,53
 186 153 186 153 192.5 161.5 c 128,-1,54
 199 170 199 170 203 174 c 0,55,56
 208 179 208 179 225 195.5 c 128,-1,57
 242 212 242 212 262 230.5 c 128,-1,58
 282 249 282 249 300.5 266.5 c 128,-1,59
 319 284 319 284 328 292 c 0,60,61
 344 306 344 306 354.5 312 c 128,-1,62
 365 318 365 318 386 318 c 1,0,1
EndSplineSet
EndChar

StartChar: f
Encoding: 102 102 33
Width: 422
GlyphClass: 1
Flags: W
LayerCount: 2
Fore
SplineSet
-137 -221 m 0,0,1
 -137 -197 -137 -197 -128.5 -183 c 128,-1,2
 -120 -169 -120 -169 -101 -150 c 2,3,-1
 192 149 l 1,4,-1
 185 156 l 2,5,6
 184 157 184 157 179 155 c 128,-1,7
 174 153 174 153 167 149.5 c 128,-1,8
 160 146 160 146 153.5 142 c 128,-1,9
 147 138 147 138 143 135 c 0,10,11
 140 133 140 133 134 127 c 128,-1,12
 128 121 128 121 121 114.5 c 128,-1,13
 114 108 114 108 108.5 102 c 128,-1,14
 103 96 103 96 101 93 c 2,15,-1
 84 93 l 1,16,17
 84 127 84 127 102 146.5 c 128,-1,18
 120 166 120 166 146 177.5 c 128,-1,19
 172 189 172 189 201.5 196 c 128,-1,20
 231 203 231 203 254 212 c 0,21,22
 256 213 256 213 261 218.5 c 128,-1,23
 266 224 266 224 268 226 c 0,24,25
 327 299 327 299 379.5 376 c 128,-1,26
 432 453 432 453 492 527 c 0,27,28
 509 547 509 547 523.5 555.5 c 128,-1,29
 538 564 538 564 564 564 c 1,30,31
 564 547 564 547 550 535.5 c 128,-1,32
 536 524 536 524 527 513 c 0,33,34
 465 437 465 437 411 355.5 c 128,-1,35
 357 274 357 274 296 198 c 0,36,37
 296 192 296 192 296.5 177.5 c 128,-1,38
 297 163 297 163 297 146 c 256,39,40
 297 129 297 129 296.5 114 c 128,-1,41
 296 99 296 99 296 93 c 0,42,43
 296 90 296 90 293.5 79.5 c 128,-1,44
 291 69 291 69 289 66 c 0,45,46
 274 33 274 33 253.5 -5 c 128,-1,47
 233 -43 233 -43 207 -81 c 128,-1,48
 181 -119 181 -119 150 -154.5 c 128,-1,49
 119 -190 119 -190 83.5 -217 c 128,-1,50
 48 -244 48 -244 9.5 -260.5 c 128,-1,51
 -29 -277 -29 -277 -70 -277 c 0,52,53
 -99 -277 -99 -277 -118 -266 c 128,-1,54
 -137 -255 -137 -255 -137 -221 c 0,0,1
-102 -220 m 2,55,56
 -102 -233 -102 -233 -93.5 -237.5 c 128,-1,57
 -85 -242 -85 -242 -74 -242 c 0,58,59
 -42 -242 -42 -242 -4.5 -222.5 c 128,-1,60
 33 -203 33 -203 71 -171.5 c 128,-1,61
 109 -140 109 -140 145 -100 c 128,-1,62
 181 -60 181 -60 208.5 -18.5 c 128,-1,63
 236 23 236 23 252.5 62.5 c 128,-1,64
 269 102 269 102 269 132 c 0,65,66
 269 138 269 138 267.5 144 c 128,-1,67
 266 150 266 150 258 150 c 0,68,69
 255 150 255 150 254 149 c 0,70,71
 175 65 175 65 91 -11 c 128,-1,72
 7 -87 7 -87 -73 -171 c 0,73,74
 -75 -173 -75 -173 -79.5 -179 c 128,-1,75
 -84 -185 -84 -185 -88.5 -191.5 c 128,-1,76
 -93 -198 -93 -198 -96.5 -204 c 128,-1,77
 -100 -210 -100 -210 -101 -213 c 0,78,79
 -102 -214 -102 -214 -102 -215 c 2,80,-1
 -102 -220 l 2,55,56
EndSplineSet
EndChar

StartChar: g
Encoding: 103 103 34
Width: 356
GlyphClass: 1
Flags: W
LayerCount: 2
Fore
SplineSet
24 -281 m 1,0,-1
 24 -273 l 2,1,2
 24 -267 24 -267 23.5 -260.5 c 128,-1,3
 23 -254 23 -254 23 -248 c 2,4,-1
 23 -239 l 2,5,6
 23 -165 23 -165 59.5 -104.5 c 128,-1,7
 96 -44 96 -44 150 4 c 1,8,-1
 150 29 l 1,9,10
 137 29 137 29 125.5 25 c 128,-1,11
 114 21 114 21 103 16.5 c 128,-1,12
 92 12 92 12 80 8 c 128,-1,13
 68 4 68 4 55 4 c 0,14,15
 32 4 32 4 20.5 10 c 128,-1,16
 9 16 9 16 9 40 c 0,17,18
 9 57 9 57 17 76.5 c 128,-1,19
 25 96 25 96 37 114.5 c 128,-1,20
 49 133 49 133 62.5 150 c 128,-1,21
 76 167 76 167 87 179 c 0,22,23
 91 184 91 184 107 200 c 128,-1,24
 123 216 123 216 141.5 235 c 128,-1,25
 160 254 160 254 178 271.5 c 128,-1,26
 196 289 196 289 205 297 c 0,27,28
 213 305 213 305 227 315 c 128,-1,29
 241 325 241 325 254 325 c 0,30,31
 263 325 263 325 273.5 322.5 c 128,-1,32
 284 320 284 320 289 311 c 0,33,34
 289 306 289 306 290 293 c 128,-1,35
 291 280 291 280 291 269 c 2,36,-1
 291 259 l 2,37,38
 291 230 291 230 284 204 c 128,-1,39
 277 178 277 178 269 153 c 128,-1,40
 261 128 261 128 254 104 c 128,-1,41
 247 80 247 80 247 56 c 0,42,43
 247 51 247 51 262.5 47.5 c 128,-1,44
 278 44 278 44 296.5 35 c 128,-1,45
 315 26 315 26 330.5 8 c 128,-1,46
 346 -10 346 -10 346 -44 c 0,47,48
 346 -60 346 -60 341.5 -73 c 128,-1,49
 337 -86 337 -86 317 -86 c 0,50,51
 312 -86 312 -86 308.5 -85 c 128,-1,52
 305 -84 305 -84 303 -79 c 0,53,54
 304 -66 304 -66 305 -51 c 128,-1,55
 306 -36 306 -36 303.5 -23.5 c 128,-1,56
 301 -11 301 -11 293 -3 c 128,-1,57
 285 5 285 5 269 5 c 0,58,59
 245 5 245 5 232 -6 c 128,-1,60
 219 -17 219 -17 212 -34.5 c 128,-1,61
 205 -52 205 -52 201 -73 c 128,-1,62
 197 -94 197 -94 191 -114 c 0,63,64
 177 -165 177 -165 166 -213.5 c 128,-1,65
 155 -262 155 -262 129 -309 c 1,66,67
 118 -319 118 -319 104.5 -325 c 128,-1,68
 91 -331 91 -331 76 -331 c 0,69,70
 56 -331 56 -331 43.5 -314.5 c 128,-1,71
 31 -298 31 -298 24 -281 c 1,0,-1
51 -241 m 0,72,73
 51 -246 51 -246 51.5 -255.5 c 128,-1,74
 52 -265 52 -265 54.5 -274 c 128,-1,75
 57 -283 57 -283 62 -289.5 c 128,-1,76
 67 -296 67 -296 76 -296 c 0,77,78
 91 -296 91 -296 103 -274 c 128,-1,79
 115 -252 115 -252 124.5 -223.5 c 128,-1,80
 134 -195 134 -195 140.5 -167.5 c 128,-1,81
 147 -140 147 -140 150 -128 c 0,82,83
 151 -124 151 -124 154 -112.5 c 128,-1,84
 157 -101 157 -101 160 -89 c 128,-1,85
 163 -77 163 -77 166 -66 c 128,-1,86
 169 -55 169 -55 171 -51 c 0,87,88
 170 -49 170 -49 167.5 -47 c 128,-1,89
 165 -45 165 -45 164 -44 c 0,90,91
 163 -44 163 -44 162 -43.5 c 128,-1,92
 161 -43 161 -43 160 -43 c 2,93,-1
 157 -44 l 1,94,95
 136 -61 136 -61 117 -83.5 c 128,-1,96
 98 -106 98 -106 83.5 -132 c 128,-1,97
 69 -158 69 -158 60 -186 c 128,-1,98
 51 -214 51 -214 51 -241 c 0,72,73
51 60 m 0,99,100
 51 45 51 45 66 45 c 0,101,102
 73 45 73 45 76 46.5 c 128,-1,103
 79 48 79 48 87 53 c 0,104,105
 112 70 112 70 141.5 92 c 128,-1,106
 171 114 171 114 196 140 c 128,-1,107
 221 166 221 166 238 196.5 c 128,-1,108
 255 227 255 227 255 262 c 0,109,110
 255 267 255 267 252.5 272 c 128,-1,111
 250 277 250 277 244 277 c 0,112,113
 243 277 243 277 242 276.5 c 128,-1,114
 241 276 241 276 240 276 c 0,115,116
 236 274 236 274 225.5 265.5 c 128,-1,117
 215 257 215 257 212 255 c 0,118,119
 204 247 204 247 187.5 229.5 c 128,-1,120
 171 212 171 212 153 193.5 c 128,-1,121
 135 175 135 175 120 158.5 c 128,-1,122
 105 142 105 142 101 137 c 0,123,124
 98 133 98 133 91 123.5 c 128,-1,125
 84 114 84 114 76 102.5 c 128,-1,126
 68 91 68 91 61 81 c 128,-1,127
 54 71 54 71 52 67 c 0,128,129
 52 66 52 66 51.5 63.5 c 128,-1,130
 51 61 51 61 51 60 c 0,99,100
EndSplineSet
EndChar

StartChar: h
Encoding: 104 104 35
Width: 463
GlyphClass: 1
Flags: W
LayerCount: 2
Fore
SplineSet
-1 4 m 0,0,1
 -1 28 -1 28 22 63 c 128,-1,2
 45 98 45 98 72.5 136.5 c 128,-1,3
 100 175 100 175 123 211 c 128,-1,4
 146 247 146 247 146 273 c 0,5,6
 146 279 146 279 145.5 287 c 128,-1,7
 145 295 145 295 135 295 c 0,8,9
 123 295 123 295 112.5 291 c 128,-1,10
 102 287 102 287 88 287 c 0,11,12
 80 287 80 287 69.5 289 c 128,-1,13
 59 291 59 291 49.5 295.5 c 128,-1,14
 40 300 40 300 33.5 307.5 c 128,-1,15
 27 315 27 315 27 326 c 0,16,17
 27 344 27 344 41 344 c 0,18,19
 56 344 56 344 65.5 336 c 128,-1,20
 75 328 75 328 92 328 c 0,21,22
 103 328 103 328 117 329 c 128,-1,23
 131 330 131 330 144.5 333 c 128,-1,24
 158 336 158 336 169.5 341.5 c 128,-1,25
 181 347 181 347 188 357 c 0,26,27
 193 366 193 366 204.5 390 c 128,-1,28
 216 414 216 414 229.5 441 c 128,-1,29
 243 468 243 468 254.5 492 c 128,-1,30
 266 516 266 516 271 525 c 0,31,32
 281 546 281 546 291 556.5 c 128,-1,33
 301 567 301 567 309 571.5 c 128,-1,34
 317 576 317 576 322 577 c 128,-1,35
 327 578 327 578 327 581 c 0,36,37
 344 583 344 583 358.5 589 c 128,-1,38
 373 595 373 595 390 595 c 0,39,40
 409 595 409 595 417.5 588 c 128,-1,41
 426 581 426 581 426 564 c 0,42,43
 426 535 426 535 415.5 511.5 c 128,-1,44
 405 488 405 488 390 462 c 1,45,-1
 285 357 l 2,46,47
 278 351 278 351 265.5 344.5 c 128,-1,48
 253 338 253 338 240.5 330 c 128,-1,49
 228 322 228 322 219 312.5 c 128,-1,50
 210 303 210 303 210 290 c 1,51,52
 223 290 223 290 235 294 c 128,-1,53
 247 298 247 298 259 303 c 128,-1,54
 271 308 271 308 283.5 312 c 128,-1,55
 296 316 296 316 310 316 c 0,56,57
 341 316 341 316 352 302.5 c 128,-1,58
 363 289 363 289 363 261 c 0,59,60
 363 235 363 235 349.5 211.5 c 128,-1,61
 336 188 336 188 320.5 164.5 c 128,-1,62
 305 141 305 141 291.5 117 c 128,-1,63
 278 93 278 93 278 66 c 0,64,65
 278 50 278 50 287 41 c 128,-1,66
 296 32 296 32 309 27.5 c 128,-1,67
 322 23 322 23 336.5 22 c 128,-1,68
 351 21 351 21 362 21 c 0,69,70
 380 21 380 21 396.5 26.5 c 128,-1,71
 413 32 413 32 427 39 c 128,-1,72
 441 46 441 46 452.5 51.5 c 128,-1,73
 464 57 464 57 474 57 c 0,74,75
 483 57 483 57 486 52 c 128,-1,76
 489 47 489 47 489 39 c 0,77,78
 489 22 489 22 475 11.5 c 128,-1,79
 461 1 461 1 441.5 -4.5 c 128,-1,80
 422 -10 422 -10 401.5 -11.5 c 128,-1,81
 381 -13 381 -13 369 -13 c 0,82,83
 349 -13 349 -13 326 -9.5 c 128,-1,84
 303 -6 303 -6 283 3 c 128,-1,85
 263 12 263 12 249.5 28 c 128,-1,86
 236 44 236 44 236 70 c 0,87,88
 236 83 236 83 237.5 91 c 128,-1,89
 239 99 239 99 244 113 c 0,90,91
 248 119 248 119 258 136 c 128,-1,92
 268 153 268 153 279 172 c 128,-1,93
 290 191 290 191 299.5 208 c 128,-1,94
 309 225 309 225 313 232 c 0,95,96
 318 240 318 240 319.5 247 c 128,-1,97
 321 254 321 254 321 263 c 0,98,99
 321 269 321 269 319.5 275 c 128,-1,100
 318 281 318 281 310 281 c 0,101,102
 274 281 274 281 242.5 259 c 128,-1,103
 211 237 211 237 183 204.5 c 128,-1,104
 155 172 155 172 130.5 134 c 128,-1,105
 106 96 106 96 86 63.5 c 128,-1,106
 66 31 66 31 49.5 9 c 128,-1,107
 33 -13 33 -13 20 -13 c 0,108,109
 -1 -13 -1 -13 -1 4 c 0,0,1
261 406 m 1,110,-1
 278 406 l 2,111,112
 279 406 279 406 288.5 415 c 128,-1,113
 298 424 298 424 310.5 436 c 128,-1,114
 323 448 323 448 335.5 461 c 128,-1,115
 348 474 348 474 355 483 c 2,116,117
 355 483 355 483 358.5 489 c 128,-1,118
 362 495 362 495 366.5 502.5 c 128,-1,119
 371 510 371 510 375.5 518.5 c 128,-1,120
 380 527 380 527 383 532 c 0,121,122
 385 534 385 534 387.5 539.5 c 128,-1,123
 390 545 390 545 390 546 c 2,124,-1
 390 548 l 2,125,126
 390 549 390 549 390.5 549 c 128,-1,127
 391 549 391 549 391 550 c 2,128,-1
 390 553 l 2,129,130
 390 554 390 554 387.5 556.5 c 128,-1,131
 385 559 385 559 383 560 c 2,132,-1
 380 560 l 2,133,134
 365 560 365 560 346 549 c 128,-1,135
 327 538 327 538 320 525 c 2,136,-1
 261 406 l 1,110,-1
EndSplineSet
EndChar

StartChar: i
Encoding: 105 105 36
Width: 228
GlyphClass: 1
Flags: W
LayerCount: 2
Fore
SplineSet
10 58 m 0,0,1
 10 68 10 68 11 75 c 128,-1,2
 12 82 12 82 17 93 c 0,3,4
 23 100 23 100 38.5 119 c 128,-1,5
 54 138 54 138 72 159 c 128,-1,6
 90 180 90 180 106 199 c 128,-1,7
 122 218 122 218 129 225 c 0,8,9
 131 228 131 228 138 235 c 128,-1,10
 145 242 145 242 152.5 250 c 128,-1,11
 160 258 160 258 167 264.5 c 128,-1,12
 174 271 174 271 177 274 c 0,13,14
 178 274 178 274 180.5 274.5 c 128,-1,15
 183 275 183 275 184 275 c 0,16,17
 198 275 198 275 198 256 c 2,18,-1
 198 253 l 2,19,20
 197 251 197 251 195 246 c 128,-1,21
 193 241 193 241 191 239 c 0,22,23
 184 231 184 231 167 212.5 c 128,-1,24
 150 194 150 194 131.5 173 c 128,-1,25
 113 152 113 152 96 133 c 128,-1,26
 79 114 79 114 73 107 c 0,27,28
 65 97 65 97 58 85 c 128,-1,29
 51 73 51 73 51 60 c 0,30,31
 51 52 51 52 53 46.5 c 128,-1,32
 55 41 55 41 66 37 c 0,33,34
 68 37 68 37 78 36.5 c 128,-1,35
 88 36 88 36 90 36 c 0,36,37
 111 36 111 36 129.5 43 c 128,-1,38
 148 50 148 50 164.5 58 c 128,-1,39
 181 66 181 66 197 73 c 128,-1,40
 213 80 213 80 231 80 c 1,41,42
 231 57 231 57 214.5 41 c 128,-1,43
 198 25 198 25 174.5 14.5 c 128,-1,44
 151 4 151 4 125.5 -0.5 c 128,-1,45
 100 -5 100 -5 83 -5 c 0,46,47
 52 -5 52 -5 31 10 c 128,-1,48
 10 25 10 25 10 58 c 0,0,1
212 382 m 256,49,50
 212 390 212 390 214.5 395 c 128,-1,51
 217 400 217 400 226 400 c 256,52,53
 235 400 235 400 241.5 393.5 c 128,-1,54
 248 387 248 387 248 378 c 256,55,56
 248 369 248 369 241.5 363 c 128,-1,57
 235 357 235 357 226 357 c 0,58,59
 215 357 215 357 213.5 365.5 c 128,-1,60
 212 374 212 374 212 382 c 256,49,50
EndSplineSet
EndChar

StartChar: j
Encoding: 106 106 37
Width: 217
GlyphClass: 1
Flags: W
LayerCount: 2
Fore
SplineSet
-77 -182 m 0,0,1
 -77 -154 -77 -154 -67 -128 c 128,-1,2
 -57 -102 -57 -102 -41 -78.5 c 128,-1,3
 -25 -55 -25 -55 -5.5 -35 c 128,-1,4
 14 -15 14 -15 34 2 c 0,5,6
 47 14 47 14 66.5 28.5 c 128,-1,7
 86 43 86 43 96 58 c 0,8,9
 105 71 105 71 117.5 98.5 c 128,-1,10
 130 126 130 126 142 156.5 c 128,-1,11
 154 187 154 187 163 214 c 128,-1,12
 172 241 172 241 173 253 c 1,13,-1
 204 253 l 1,14,15
 204 231 204 231 198 213 c 128,-1,16
 192 195 192 195 184.5 178.5 c 128,-1,17
 177 162 177 162 169.5 144.5 c 128,-1,18
 162 127 162 127 159 107 c 0,19,20
 156 81 156 81 151.5 68 c 128,-1,21
 147 55 147 55 140.5 45 c 128,-1,22
 134 35 134 35 126.5 23.5 c 128,-1,23
 119 12 119 12 110 -11 c 0,24,25
 109 -15 109 -15 104 -30 c 128,-1,26
 99 -45 99 -45 92.5 -63 c 128,-1,27
 86 -81 86 -81 81 -96 c 128,-1,28
 76 -111 76 -111 75 -115 c 0,29,30
 69 -133 69 -133 58.5 -154 c 128,-1,31
 48 -175 48 -175 34 -193 c 128,-1,32
 20 -211 20 -211 1.5 -223 c 128,-1,33
 -17 -235 -17 -235 -39 -235 c 0,34,35
 -49 -235 -49 -235 -56 -230 c 128,-1,36
 -63 -225 -63 -225 -67.5 -217 c 128,-1,37
 -72 -209 -72 -209 -74.5 -199.5 c 128,-1,38
 -77 -190 -77 -190 -77 -182 c 0,0,1
-36 -171 m 0,39,40
 -36 -177 -36 -177 -35 -185 c 128,-1,41
 -34 -193 -34 -193 -25 -193 c 0,42,43
 -14 -193 -14 -193 0 -175.5 c 128,-1,44
 14 -158 14 -158 26 -134.5 c 128,-1,45
 38 -111 38 -111 46.5 -87.5 c 128,-1,46
 55 -64 55 -64 55 -52 c 2,47,-1
 55 -41 l 2,48,49
 55 -33 55 -33 48 -32 c 1,50,51
 33 -45 33 -45 18 -60.5 c 128,-1,52
 3 -76 3 -76 -9 -93.5 c 128,-1,53
 -21 -111 -21 -111 -28.5 -130.5 c 128,-1,54
 -36 -150 -36 -150 -36 -171 c 0,39,40
211 354 m 256,55,56
 211 362 211 362 213.5 367 c 128,-1,57
 216 372 216 372 225 372 c 256,58,59
 234 372 234 372 240.5 365.5 c 128,-1,60
 247 359 247 359 247 350 c 256,61,62
 247 341 247 341 240.5 335 c 128,-1,63
 234 329 234 329 225 329 c 0,64,65
 214 329 214 329 212.5 337.5 c 128,-1,66
 211 346 211 346 211 354 c 256,55,56
EndSplineSet
EndChar

StartChar: k
Encoding: 107 107 38
Width: 335
GlyphClass: 1
Flags: W
LayerCount: 2
Fore
SplineSet
258 385 m 0,0,1
 266 385 266 385 267.5 376.5 c 128,-1,2
 269 368 269 368 269 363 c 0,3,4
 269 362 269 362 268.5 361.5 c 128,-1,5
 268 361 268 361 268 360 c 2,6,-1
 268 357 l 1,7,-1
 143 155 l 2,8,9
 142 154 142 154 142 151 c 256,10,11
 142 148 142 148 143 148 c 1,12,13
 143 141 143 141 150 141 c 1,14,15
 150 140 150 140 153 140 c 0,16,17
 158 140 158 140 169.5 147.5 c 128,-1,18
 181 155 181 155 194 164.5 c 128,-1,19
 207 174 207 174 218 183 c 128,-1,20
 229 192 229 192 233 196 c 256,21,22
 237 200 237 200 248 211 c 128,-1,23
 259 222 259 222 271.5 234 c 128,-1,24
 284 246 284 246 295 257 c 128,-1,25
 306 268 306 268 310 273 c 0,26,27
 311 273 311 273 312 273.5 c 128,-1,28
 313 274 313 274 314 274 c 0,29,30
 320 274 320 274 322 269.5 c 128,-1,31
 324 265 324 265 324 260 c 0,32,33
 324 252 324 252 322.5 246 c 128,-1,34
 321 240 321 240 317 231 c 0,35,36
 276 186 276 186 237.5 155 c 128,-1,37
 199 124 199 124 150 92 c 0,38,39
 148 91 148 91 145.5 88.5 c 128,-1,40
 143 86 143 86 143 85 c 1,41,42
 142 85 142 85 142 81 c 0,43,44
 142 73 142 73 150 67 c 128,-1,45
 158 61 158 61 168.5 57.5 c 128,-1,46
 179 54 179 54 189.5 52 c 128,-1,47
 200 50 200 50 205 50 c 0,48,49
 211 50 211 50 227 49.5 c 128,-1,50
 243 49 243 49 261 49 c 256,51,52
 279 49 279 49 295 49.5 c 128,-1,53
 311 50 311 50 317 50 c 0,54,55
 323 48 323 48 324 44.5 c 128,-1,56
 325 41 325 41 325 36 c 0,57,58
 325 22 325 22 313.5 16 c 128,-1,59
 302 10 302 10 286.5 8 c 128,-1,60
 271 6 271 6 255.5 6.5 c 128,-1,61
 240 7 240 7 233 7 c 0,62,63
 213 7 213 7 194.5 7.5 c 128,-1,64
 176 8 176 8 157 15 c 0,65,66
 153 16 153 16 144 21.5 c 128,-1,67
 135 27 135 27 124 33.5 c 128,-1,68
 113 40 113 40 103 45 c 128,-1,69
 93 50 93 50 87 50 c 0,70,71
 74 50 74 50 65.5 41 c 128,-1,72
 57 32 57 32 49.5 21 c 128,-1,73
 42 10 42 10 32 1 c 128,-1,74
 22 -8 22 -8 6 -8 c 1,75,76
 6 18 6 18 18.5 33.5 c 128,-1,77
 31 49 31 49 45 71 c 0,78,79
 49 78 49 78 62.5 99 c 128,-1,80
 76 120 76 120 94 148 c 128,-1,81
 112 176 112 176 132 207 c 128,-1,82
 152 238 152 238 170 266 c 128,-1,83
 188 294 188 294 201.5 315 c 128,-1,84
 215 336 215 336 219 343 c 0,85,86
 220 344 220 344 224.5 351 c 128,-1,87
 229 358 229 358 235 365.5 c 128,-1,88
 241 373 241 373 247 379 c 128,-1,89
 253 385 253 385 258 385 c 0,0,1
EndSplineSet
EndChar

StartChar: l
Encoding: 108 108 39
Width: 474
GlyphClass: 1
Flags: W
LayerCount: 2
Fore
SplineSet
-48 -19 m 0,0,1
 -48 -18 -48 -18 -47.5 -15.5 c 128,-1,2
 -47 -13 -47 -13 -47 -12 c 1,3,4
 -44 -12 -44 -12 -33 -9.5 c 128,-1,5
 -22 -7 -22 -7 -19 -5 c 0,6,7
 12 7 12 7 51.5 22 c 128,-1,8
 91 37 91 37 130 56.5 c 128,-1,9
 169 76 169 76 203 100.5 c 128,-1,10
 237 125 237 125 259 155 c 0,11,12
 275 175 275 175 282.5 198.5 c 128,-1,13
 290 222 290 222 301 245 c 0,14,15
 317 278 317 278 335 316.5 c 128,-1,16
 353 355 353 355 374 393 c 128,-1,17
 395 431 395 431 420 465.5 c 128,-1,18
 445 500 445 500 476 525 c 1,19,-1
 480 525 l 1,20,-1
 483 525 l 1,21,-1
 490 518 l 1,22,-1
 490 514 l 1,23,-1
 490 511 l 1,24,25
 484 502 484 502 470 478.5 c 128,-1,26
 456 455 456 455 441 428 c 128,-1,27
 426 401 426 401 412 377 c 128,-1,28
 398 353 398 353 392 343 c 2,29,-1
 371 301 l 2,30,31
 371 300 371 300 372 297.5 c 128,-1,32
 373 295 373 295 373 294 c 1,33,-1
 378 294 l 1,34,35
 378 294 378 294 381.5 299 c 128,-1,36
 385 304 385 304 389.5 310.5 c 128,-1,37
 394 317 394 317 398.5 324 c 128,-1,38
 403 331 403 331 406 336 c 0,39,40
 412 346 412 346 419.5 362.5 c 128,-1,41
 427 379 427 379 436 395.5 c 128,-1,42
 445 412 445 412 456 424 c 128,-1,43
 467 436 467 436 479 436 c 1,44,45
 479 397 479 397 453.5 353.5 c 128,-1,46
 428 310 428 310 397 268.5 c 128,-1,47
 366 227 366 227 340.5 191.5 c 128,-1,48
 315 156 315 156 315 132 c 0,49,50
 315 101 315 101 326.5 89 c 128,-1,51
 338 77 338 77 369 77 c 0,52,53
 389 77 389 77 407 84.5 c 128,-1,54
 425 92 425 92 445 92 c 0,55,56
 450 92 450 92 456 90.5 c 128,-1,57
 462 89 462 89 462 81 c 256,58,59
 462 73 462 73 448.5 64 c 128,-1,60
 435 55 435 55 417 47.5 c 128,-1,61
 399 40 399 40 381.5 34.5 c 128,-1,62
 364 29 364 29 357 29 c 0,63,64
 333 29 333 29 319.5 39 c 128,-1,65
 306 49 306 49 296.5 60.5 c 128,-1,66
 287 72 287 72 279.5 82 c 128,-1,67
 272 92 272 92 260 92 c 0,68,69
 247 92 247 92 236 86.5 c 128,-1,70
 225 81 225 81 215 73.5 c 128,-1,71
 205 66 205 66 195.5 57.5 c 128,-1,72
 186 49 186 49 176 43 c 0,73,74
 162 35 162 35 134.5 21 c 128,-1,75
 107 7 107 7 77 -6.5 c 128,-1,76
 47 -20 47 -20 20.5 -30 c 128,-1,77
 -6 -40 -6 -40 -19 -40 c 0,78,79
 -29 -40 -29 -40 -38.5 -35 c 128,-1,80
 -48 -30 -48 -30 -48 -19 c 0,0,1
EndSplineSet
EndChar

StartChar: m
Encoding: 109 109 40
Width: 496
GlyphClass: 1
Flags: W
LayerCount: 2
Fore
SplineSet
352 25 m 0,0,1
 352 62 352 62 368 101 c 128,-1,2
 384 140 384 140 401 172 c 0,3,4
 401 173 401 173 401.5 175.5 c 128,-1,5
 402 178 402 178 402 179 c 0,6,7
 402 193 402 193 387 193 c 0,8,9
 369 193 369 193 349.5 181 c 128,-1,10
 330 169 330 169 311 151 c 128,-1,11
 292 133 292 133 274 112 c 128,-1,12
 256 91 256 91 240.5 73 c 128,-1,13
 225 55 225 55 212.5 43 c 128,-1,14
 200 31 200 31 192 31 c 0,15,16
 177 31 177 31 177 46 c 2,17,-1
 177 49 l 2,18,19
 177 52 177 52 178 53 c 2,20,-1
 213 158 l 1,21,-1
 213 168 l 2,22,23
 213 173 213 173 211.5 179.5 c 128,-1,24
 210 186 210 186 202 186 c 2,25,-1
 199 186 l 2,26,27
 196 185 196 185 188 182.5 c 128,-1,28
 180 180 180 180 178 179 c 0,29,30
 168 170 168 170 154 157 c 128,-1,31
 140 144 140 144 126 129.5 c 128,-1,32
 112 115 112 115 99.5 100.5 c 128,-1,33
 87 86 87 86 80 74 c 0,34,35
 71 62 71 62 65 48 c 128,-1,36
 59 34 59 34 52 22 c 128,-1,37
 45 10 45 10 34.5 2.5 c 128,-1,38
 24 -5 24 -5 6 -5 c 1,39,40
 6 5 6 5 12 24.5 c 128,-1,41
 18 44 18 44 28 67.5 c 128,-1,42
 38 91 38 91 50.5 115.5 c 128,-1,43
 63 140 63 140 76 160.5 c 128,-1,44
 89 181 89 181 101 194 c 128,-1,45
 113 207 113 207 122 207 c 0,46,47
 129 207 129 207 134 203 c 128,-1,48
 139 199 139 199 146 199 c 0,49,50
 159 199 159 199 177 210 c 128,-1,51
 195 221 195 221 216 221 c 2,52,-1
 228 221 l 2,53,54
 239 221 239 221 241 220 c 0,55,56
 245 217 245 217 248 209 c 128,-1,57
 251 201 251 201 254 192.5 c 128,-1,58
 257 184 257 184 260 178 c 128,-1,59
 263 172 263 172 268 172 c 0,60,61
 279 172 279 172 295 182 c 128,-1,62
 311 192 311 192 330 204 c 128,-1,63
 349 216 349 216 371 226 c 128,-1,64
 393 236 393 236 416 236 c 0,65,66
 420 236 420 236 427.5 235.5 c 128,-1,67
 435 235 435 235 436 234 c 2,68,-1
 443 227 l 2,69,70
 443 226 443 226 443.5 217.5 c 128,-1,71
 444 209 444 209 444 205 c 0,72,73
 444 181 444 181 436 159 c 128,-1,74
 428 137 428 137 419 115 c 128,-1,75
 410 93 410 93 402 70.5 c 128,-1,76
 394 48 394 48 394 24 c 0,77,78
 394 12 394 12 402.5 7.5 c 128,-1,79
 411 3 411 3 421 3 c 0,80,81
 438 3 438 3 453.5 8 c 128,-1,82
 469 13 469 13 488 13 c 1,83,84
 488 -5 488 -5 483 -14 c 128,-1,85
 478 -23 478 -23 469 -26.5 c 128,-1,86
 460 -30 460 -30 447 -30.5 c 128,-1,87
 434 -31 434 -31 418 -31 c 0,88,89
 390 -31 390 -31 371 -18.5 c 128,-1,90
 352 -6 352 -6 352 25 c 0,0,1
EndSplineSet
EndChar

StartChar: n
Encoding: 110 110 41
Width: 387
GlyphClass: 1
Flags: W
LayerCount: 2
Fore
SplineSet
-8 10 m 0,0,1
 -8 20 -8 20 -6.5 23 c 128,-1,2
 -5 26 -5 26 0 35 c 0,3,4
 27 80 27 80 54 129 c 128,-1,5
 81 178 81 178 111 223 c 0,6,7
 112 225 112 225 128.5 231 c 128,-1,8
 145 237 145 237 166 243 c 128,-1,9
 187 249 187 249 205.5 254 c 128,-1,10
 224 259 224 259 230 259 c 0,11,12
 242 259 242 259 253.5 250 c 128,-1,13
 265 241 265 241 265 228 c 0,14,15
 265 212 265 212 260.5 197.5 c 128,-1,16
 256 183 256 183 250.5 168.5 c 128,-1,17
 245 154 245 154 240.5 139.5 c 128,-1,18
 236 125 236 125 236 110 c 0,19,20
 236 92 236 92 245.5 81 c 128,-1,21
 255 70 255 70 275 70 c 0,22,23
 291 70 291 70 304 77.5 c 128,-1,24
 317 85 317 85 329 94.5 c 128,-1,25
 341 104 341 104 353 111.5 c 128,-1,26
 365 119 365 119 379 119 c 0,27,28
 387 119 387 119 392.5 116.5 c 128,-1,29
 398 114 398 114 398 104 c 0,30,31
 398 92 398 92 382 78.5 c 128,-1,32
 366 65 366 65 344 53.5 c 128,-1,33
 322 42 322 42 300.5 34.5 c 128,-1,34
 279 27 279 27 268 27 c 0,35,36
 236 27 236 27 215 48.5 c 128,-1,37
 194 70 194 70 194 102 c 0,38,39
 194 115 194 115 197.5 127 c 128,-1,40
 201 139 201 139 205 150.5 c 128,-1,41
 209 162 209 162 212.5 174 c 128,-1,42
 216 186 216 186 216 199 c 0,43,44
 216 202 216 202 215.5 209 c 128,-1,45
 215 216 215 216 208 216 c 0,46,47
 187 216 187 216 167 199.5 c 128,-1,48
 147 183 147 183 128.5 158 c 128,-1,49
 110 133 110 133 93 104.5 c 128,-1,50
 76 76 76 76 60.5 51 c 128,-1,51
 45 26 45 26 31.5 9.5 c 128,-1,52
 18 -7 18 -7 6 -7 c 0,53,54
 -8 -7 -8 -7 -8 10 c 0,0,1
EndSplineSet
EndChar

StartChar: o
Encoding: 111 111 42
Width: 287
GlyphClass: 1
Flags: W
LayerCount: 2
Fore
SplineSet
3 18 m 0,0,1
 3 49 3 49 20 71.5 c 128,-1,2
 37 94 37 94 53 118 c 0,3,4
 67 141 67 141 84.5 172.5 c 128,-1,5
 102 204 102 204 124 232.5 c 128,-1,6
 146 261 146 261 173 281 c 128,-1,7
 200 301 200 301 234 301 c 0,8,9
 256 301 256 301 269.5 291.5 c 128,-1,10
 283 282 283 282 283 259 c 0,11,12
 283 215 283 215 264.5 163.5 c 128,-1,13
 246 112 246 112 214 68 c 128,-1,14
 182 24 182 24 139.5 -5 c 128,-1,15
 97 -34 97 -34 49 -34 c 0,16,17
 39 -34 39 -34 30.5 -29 c 128,-1,18
 22 -24 22 -24 16 -16.5 c 128,-1,19
 10 -9 10 -9 6.5 0.5 c 128,-1,20
 3 10 3 10 3 18 c 0,0,1
45 28 m 0,21,22
 45 16 45 16 52.5 14.5 c 128,-1,23
 60 13 60 13 70 13 c 0,24,25
 77 13 77 13 88.5 16 c 128,-1,26
 100 19 100 19 110.5 24 c 128,-1,27
 121 29 121 29 129 36 c 128,-1,28
 137 43 137 43 137 52 c 0,29,30
 137 56 137 56 129 62 c 128,-1,31
 121 68 121 68 111 75 c 0,32,33
 100 82 100 82 84 91 c 0,34,35
 76 91 76 91 69 83 c 128,-1,36
 62 75 62 75 57 64.5 c 128,-1,37
 52 54 52 54 48.5 43.5 c 128,-1,38
 45 33 45 33 45 28 c 0,21,22
122 140 m 0,39,40
 122 97 122 97 165 97 c 0,41,42
 182 97 182 97 197 116.5 c 128,-1,43
 212 136 212 136 223.5 162 c 128,-1,44
 235 188 235 188 241.5 214.5 c 128,-1,45
 248 241 248 241 248 255 c 0,46,47
 248 261 248 261 243.5 263.5 c 128,-1,48
 239 266 239 266 234 266 c 0,49,50
 222 266 222 266 203 250.5 c 128,-1,51
 184 235 184 235 166 214 c 128,-1,52
 148 193 148 193 135 172 c 128,-1,53
 122 151 122 151 122 140 c 0,39,40
EndSplineSet
EndChar

StartChar: p
Encoding: 112 112 43
Width: 439
GlyphClass: 1
Flags: W
LayerCount: 2
Fore
SplineSet
-95 -188 m 0,0,1
 -95 -174 -95 -174 -91.5 -165 c 128,-1,2
 -88 -156 -88 -156 -80 -142 c 0,3,4
 -74 -132 -74 -132 -59.5 -108 c 128,-1,5
 -45 -84 -45 -84 -28.5 -57.5 c 128,-1,6
 -12 -31 -12 -31 3 -7.5 c 128,-1,7
 18 16 18 16 24 25 c 0,8,9
 28 30 28 30 39 44.5 c 128,-1,10
 50 59 50 59 63.5 76 c 128,-1,11
 77 93 77 93 89.5 108 c 128,-1,12
 102 123 102 123 108 129 c 0,13,14
 128 151 128 151 151 177 c 128,-1,15
 174 203 174 203 200.5 225 c 128,-1,16
 227 247 227 247 257 262 c 128,-1,17
 287 277 287 277 321 277 c 0,18,19
 369 277 369 277 399.5 246.5 c 128,-1,20
 430 216 430 216 430 168 c 0,21,22
 430 122 430 122 405.5 90.5 c 128,-1,23
 381 59 381 59 344 39.5 c 128,-1,24
 307 20 307 20 264 11.5 c 128,-1,25
 221 3 221 3 184 3 c 2,26,-1
 172 3 l 1,27,-1
 153 3 l 2,28,29
 143 3 143 3 134 3.5 c 128,-1,30
 125 4 125 4 122 4 c 2,31,-1
 108 11 l 1,32,-1
 104 11 l 1,33,-1
 101 11 l 2,34,35
 99 9 99 9 94 4.5 c 128,-1,36
 89 0 89 0 87 -2 c 0,37,38
 46 -58 46 -58 11.5 -108.5 c 128,-1,39
 -23 -159 -23 -159 -73 -205 c 0,40,41
 -74 -205 -74 -205 -76.5 -205.5 c 128,-1,42
 -79 -206 -79 -206 -80 -206 c 0,43,44
 -89 -206 -89 -206 -92 -201 c 128,-1,45
 -95 -196 -95 -196 -95 -188 c 0,0,1
128 56 m 256,46,47
 128 53 128 53 129 53 c 0,48,49
 130 51 130 51 135.5 45.5 c 128,-1,50
 141 40 141 40 143 39 c 0,51,52
 146 38 146 38 160 38 c 2,53,-1
 177 38 l 2,54,55
 204 38 204 38 241.5 45 c 128,-1,56
 279 52 279 52 313 68 c 128,-1,57
 347 84 347 84 371 109.5 c 128,-1,58
 395 135 395 135 395 171 c 0,59,60
 395 202 395 202 373.5 222 c 128,-1,61
 352 242 352 242 322 242 c 0,62,63
 298 242 298 242 275.5 232 c 128,-1,64
 253 222 253 222 232.5 206 c 128,-1,65
 212 190 212 190 194.5 171.5 c 128,-1,66
 177 153 177 153 164 136 c 1,67,68
 159 117 159 117 147 95.5 c 128,-1,69
 135 74 135 74 129 60 c 0,70,71
 128 59 128 59 128 56 c 256,46,47
EndSplineSet
EndChar

StartChar: q
Encoding: 113 113 44
Width: 356
GlyphClass: 1
Flags: W
LayerCount: 2
Fore
SplineSet
16 -277 m 0,0,1
 16 -247 16 -247 26.5 -219.5 c 128,-1,2
 37 -192 37 -192 52 -166.5 c 128,-1,3
 67 -141 67 -141 84 -116.5 c 128,-1,4
 101 -92 101 -92 115 -69 c 0,5,6
 119 -62 119 -62 120.5 -59.5 c 128,-1,7
 122 -57 122 -57 122 -55 c 0,8,9
 122 -54 122 -54 121 -51.5 c 128,-1,10
 120 -49 120 -49 120 -41 c 1,11,-1
 52 -41 l 2,12,13
 40 -41 40 -41 32 -33.5 c 128,-1,14
 24 -26 24 -26 19 -15.5 c 128,-1,15
 14 -5 14 -5 11.5 6 c 128,-1,16
 9 17 9 17 9 24 c 0,17,18
 9 36 9 36 9.5 47.5 c 128,-1,19
 10 59 10 59 17 70 c 0,20,21
 21 77 21 77 31.5 94 c 128,-1,22
 42 111 42 111 54 130 c 128,-1,23
 66 149 66 149 77.5 165.5 c 128,-1,24
 89 182 89 182 94 188 c 0,25,26
 109 209 109 209 129.5 237 c 128,-1,27
 150 265 150 265 174 290 c 128,-1,28
 198 315 198 315 225.5 332.5 c 128,-1,29
 253 350 253 350 282 350 c 0,30,31
 285 350 285 350 296 349.5 c 128,-1,32
 307 349 307 349 310 349 c 0,33,34
 326 342 326 342 328.5 324.5 c 128,-1,35
 331 307 331 307 331 293 c 0,36,37
 331 268 331 268 324 237 c 128,-1,38
 317 206 317 206 305.5 175 c 128,-1,39
 294 144 294 144 280.5 116 c 128,-1,40
 267 88 267 88 254 70 c 1,41,-1
 254 63 l 2,42,43
 254 55 254 55 268 49 c 128,-1,44
 282 43 282 43 299.5 32 c 128,-1,45
 317 21 317 21 331 2 c 128,-1,46
 345 -17 345 -17 345 -51 c 0,47,48
 345 -97 345 -97 333 -134.5 c 128,-1,49
 321 -172 321 -172 300.5 -205 c 128,-1,50
 280 -238 280 -238 252 -267.5 c 128,-1,51
 224 -297 224 -297 191 -327 c 0,52,53
 174 -343 174 -343 150 -353 c 128,-1,54
 126 -363 126 -363 103 -363 c 0,55,56
 85 -363 85 -363 69 -356 c 128,-1,57
 53 -349 53 -349 41.5 -337.5 c 128,-1,58
 30 -326 30 -326 23 -310.5 c 128,-1,59
 16 -295 16 -295 16 -277 c 0,0,1
58 -264 m 0,60,61
 58 -290 58 -290 71.5 -305.5 c 128,-1,62
 85 -321 85 -321 112 -321 c 0,63,64
 125 -321 125 -321 133.5 -317.5 c 128,-1,65
 142 -314 142 -314 157 -306 c 1,66,67
 184 -281 184 -281 210.5 -255 c 128,-1,68
 237 -229 237 -229 257.5 -200.5 c 128,-1,69
 278 -172 278 -172 291 -139.5 c 128,-1,70
 304 -107 304 -107 304 -68 c 0,71,72
 304 -47 304 -47 302.5 -30.5 c 128,-1,73
 301 -14 301 -14 294 -2.5 c 128,-1,74
 287 9 287 9 273.5 15 c 128,-1,75
 260 21 260 21 236 21 c 0,76,77
 226 21 226 21 209 2 c 128,-1,78
 192 -17 192 -17 172 -46.5 c 128,-1,79
 152 -76 152 -76 132 -111 c 128,-1,80
 112 -146 112 -146 95.5 -177.5 c 128,-1,81
 79 -209 79 -209 68.5 -233 c 128,-1,82
 58 -257 58 -257 58 -264 c 0,60,61
51 32 m 0,83,84
 51 15 51 15 55 10.5 c 128,-1,85
 59 6 59 6 76 6 c 0,86,87
 118 6 118 6 158 37.5 c 128,-1,88
 198 69 198 69 228.5 114.5 c 128,-1,89
 259 160 259 160 278 210 c 128,-1,90
 297 260 297 260 297 298 c 0,91,92
 297 304 297 304 296.5 312.5 c 128,-1,93
 296 321 296 321 286 321 c 0,94,95
 270 321 270 321 246 303 c 128,-1,96
 222 285 222 285 196 257.5 c 128,-1,97
 170 230 170 230 144 196 c 128,-1,98
 118 162 118 162 97.5 129.5 c 128,-1,99
 77 97 77 97 64 71 c 128,-1,100
 51 45 51 45 51 32 c 0,83,84
EndSplineSet
EndChar

StartChar: r
Encoding: 114 114 45
Width: 439
GlyphClass: 1
Flags: W
LayerCount: 2
Fore
SplineSet
214 288 m 0,0,1
 220 288 220 288 225 284 c 128,-1,2
 230 280 230 280 234.5 274 c 128,-1,3
 239 268 239 268 243 262 c 128,-1,4
 247 256 247 256 252 252 c 0,5,6
 263 244 263 244 278 239.5 c 128,-1,7
 293 235 293 235 306 229.5 c 128,-1,8
 319 224 319 224 328 214.5 c 128,-1,9
 337 205 337 205 337 186 c 0,10,11
 337 168 337 168 328 152.5 c 128,-1,12
 319 137 319 137 308.5 122 c 128,-1,13
 298 107 298 107 289 91.5 c 128,-1,14
 280 76 280 76 280 60 c 0,15,16
 280 53 280 53 284.5 48.5 c 128,-1,17
 289 44 289 44 296 41 c 128,-1,18
 303 38 303 38 310 36.5 c 128,-1,19
 317 35 317 35 322 35 c 0,20,21
 337 35 337 35 351 39.5 c 128,-1,22
 365 44 365 44 379 49.5 c 128,-1,23
 393 55 393 55 406.5 59.5 c 128,-1,24
 420 64 420 64 434 64 c 0,25,26
 444 64 444 64 450 61 c 128,-1,27
 456 58 456 58 456 47 c 0,28,29
 456 33 456 33 438 23 c 128,-1,30
 420 13 420 13 396.5 7 c 128,-1,31
 373 1 373 1 350.5 -2 c 128,-1,32
 328 -5 328 -5 318 -5 c 0,33,34
 304 -5 304 -5 289.5 -2 c 128,-1,35
 275 1 275 1 263.5 8.5 c 128,-1,36
 252 16 252 16 245 27 c 128,-1,37
 238 38 238 38 238 55 c 0,38,39
 238 73 238 73 246 87.5 c 128,-1,40
 254 102 254 102 263 116 c 128,-1,41
 272 130 272 130 280 144.5 c 128,-1,42
 288 159 288 159 288 176 c 0,43,44
 288 188 288 188 281.5 194.5 c 128,-1,45
 275 201 275 201 265 205 c 128,-1,46
 255 209 255 209 244 210 c 128,-1,47
 233 211 233 211 223 211 c 0,48,49
 206 211 206 211 192.5 195 c 128,-1,50
 179 179 179 179 167.5 157.5 c 128,-1,51
 156 136 156 136 144.5 113.5 c 128,-1,52
 133 91 133 91 120 78 c 0,53,54
 115 73 115 73 103 61 c 128,-1,55
 91 49 91 49 78 35.5 c 128,-1,56
 65 22 65 22 53 10.5 c 128,-1,57
 41 -1 41 -1 36 -5 c 0,58,59
 25 -11 25 -11 11.5 -12.5 c 128,-1,60
 -2 -14 -2 -14 -15 -14 c 1,61,62
 -15 -1 -15 -1 -13.5 4 c 128,-1,63
 -12 9 -12 9 -8 12 c 128,-1,64
 -4 15 -4 15 1.5 18 c 128,-1,65
 7 21 7 21 15 29 c 2,66,-1
 106 120 l 2,67,68
 107 122 107 122 114 132.5 c 128,-1,69
 121 143 121 143 130 156.5 c 128,-1,70
 139 170 139 170 148 183 c 128,-1,71
 157 196 157 196 162 204 c 0,72,73
 168 213 168 213 171.5 227 c 128,-1,74
 175 241 175 241 180 254.5 c 128,-1,75
 185 268 185 268 192.5 278 c 128,-1,76
 200 288 200 288 214 288 c 0,0,1
EndSplineSet
EndChar

StartChar: s
Encoding: 115 115 46
Width: 381
GlyphClass: 1
Flags: W
LayerCount: 2
Fore
SplineSet
-47 -16 m 2,0,-1
 -47 -12 l 1,1,-1
 -40 -5 l 2,2,3
 -39 -4 -39 -4 -33 1.5 c 128,-1,4
 -27 7 -27 7 -19.5 13.5 c 128,-1,5
 -12 20 -12 20 -4 27 c 128,-1,6
 4 34 4 34 10 39 c 0,7,8
 23 51 23 51 25 52 c 128,-1,9
 27 53 27 53 29 57 c 2,10,-1
 29 60 l 1,11,-1
 29 64 l 2,12,13
 29 66 29 66 27 73 c 128,-1,14
 25 80 25 80 22 88.5 c 128,-1,15
 19 97 19 97 17 104 c 128,-1,16
 15 111 15 111 15 113 c 0,17,18
 14 114 14 114 14 115 c 2,19,-1
 14 120 l 2,20,21
 14 130 14 130 17.5 136 c 128,-1,22
 21 142 21 142 32 142 c 0,23,24
 41 142 41 142 46.5 136 c 128,-1,25
 52 130 52 130 56 123.5 c 128,-1,26
 60 117 60 117 64 111 c 128,-1,27
 68 105 68 105 75 105 c 2,28,-1
 78 106 l 1,29,-1
 280 308 l 2,30,31
 281 309 281 309 284 309 c 2,32,-1
 289 309 l 2,33,34
 303 309 303 309 306 304 c 128,-1,35
 309 299 309 299 309 285 c 0,36,37
 309 262 309 262 303.5 240.5 c 128,-1,38
 298 219 298 219 291 197.5 c 128,-1,39
 284 176 284 176 278.5 155 c 128,-1,40
 273 134 273 134 273 112 c 0,41,42
 273 107 273 107 275 102.5 c 128,-1,43
 277 98 277 98 284 98 c 0,44,45
 314 98 314 98 332 120 c 128,-1,46
 350 142 350 142 350 169 c 1,47,-1
 354 169 l 2,48,49
 364 169 364 169 370 164.5 c 128,-1,50
 376 160 376 160 383 155 c 128,-1,51
 390 150 390 150 400 145.5 c 128,-1,52
 410 141 410 141 429 141 c 1,53,54
 429 112 429 112 406.5 96 c 128,-1,55
 384 80 384 80 353 70.5 c 128,-1,56
 322 61 322 61 289.5 54 c 128,-1,57
 257 47 257 47 238 36 c 0,58,59
 218 24 218 24 199 9.5 c 128,-1,60
 180 -5 180 -5 155 -5 c 0,61,62
 126 -5 126 -5 104.5 7 c 128,-1,63
 83 19 83 19 56 30 c 0,64,65
 55 30 55 30 54.5 29.5 c 128,-1,66
 54 29 54 29 53 29 c 2,67,-1
 50 29 l 1,68,-1
 -19 -26 l 2,69,70
 -20 -27 -20 -27 -22 -27 c 2,71,-1
 -28 -27 l 2,72,73
 -34 -27 -34 -27 -40.5 -25.5 c 128,-1,74
 -47 -24 -47 -24 -47 -16 c 2,0,-1
105 74 m 2,75,-1
 105 72 l 2,76,77
 105 71 105 71 106 71 c 1,78,79
 106 66 106 66 113 64 c 0,80,81
 115 64 115 64 124.5 63.5 c 128,-1,82
 134 63 134 63 137 63 c 0,83,84
 157 63 157 63 172 65.5 c 128,-1,85
 187 68 187 68 197.5 75.5 c 128,-1,86
 208 83 208 83 216 95 c 128,-1,87
 224 107 224 107 231 127 c 0,88,89
 236 142 236 142 240 151.5 c 128,-1,90
 244 161 244 161 247 168.5 c 128,-1,91
 250 176 250 176 251.5 184 c 128,-1,92
 253 192 253 192 253 203 c 2,93,-1
 253 215 l 2,94,95
 253 222 253 222 245 224 c 1,96,97
 207 190 207 190 175.5 151.5 c 128,-1,98
 144 113 144 113 106 78 c 0,99,100
 106 77 106 77 105.5 76 c 128,-1,101
 105 75 105 75 105 74 c 2,75,-1
EndSplineSet
EndChar

StartChar: t
Encoding: 116 116 47
Width: 340
GlyphClass: 1
Flags: W
LayerCount: 2
Fore
SplineSet
51 72 m 0,0,1
 51 91 51 91 56.5 109.5 c 128,-1,2
 62 128 62 128 70 145.5 c 128,-1,3
 78 163 78 163 86.5 179 c 128,-1,4
 95 195 95 195 100 209 c 0,5,6
 101 212 101 212 96.5 210.5 c 128,-1,7
 92 209 92 209 87 209 c 2,8,-1
 17 209 l 2,9,10
 16 209 16 209 13.5 215.5 c 128,-1,11
 11 222 11 222 10 226 c 2,12,-1
 10 230 l 1,13,-1
 10 233 l 2,14,15
 12 235 12 235 17 240.5 c 128,-1,16
 22 246 22 246 24 247 c 0,17,18
 28 247 28 247 47 248 c 128,-1,19
 66 249 66 249 87 251 c 128,-1,20
 108 253 108 253 125.5 255.5 c 128,-1,21
 143 258 143 258 146 262 c 0,22,23
 169 297 169 297 191.5 342.5 c 128,-1,24
 214 388 214 388 232 428.5 c 128,-1,25
 250 469 250 469 261.5 496.5 c 128,-1,26
 273 524 273 524 273 524 c 1,27,-1
 317 523 l 1,28,29
 308 495 308 495 293 460.5 c 128,-1,30
 278 426 278 426 262.5 392.5 c 128,-1,31
 247 359 247 359 233 329.5 c 128,-1,32
 219 300 219 300 212 282 c 0,33,34
 210 277 210 277 212 271 c 128,-1,35
 214 265 214 265 219 265 c 2,36,-1
 345 265 l 2,37,38
 346 265 346 265 348.5 260.5 c 128,-1,39
 351 256 351 256 352 254 c 2,40,-1
 352 251 l 2,41,42
 352 244 352 244 344 239.5 c 128,-1,43
 336 235 336 235 331 233 c 0,44,45
 313 232 313 232 292 230 c 128,-1,46
 271 228 271 228 248.5 226 c 128,-1,47
 226 224 226 224 204 221 c 128,-1,48
 182 218 182 218 164 215 c 1,49,50
 155 206 155 206 142.5 188 c 128,-1,51
 130 170 130 170 119 149 c 128,-1,52
 108 128 108 128 100.5 108 c 128,-1,53
 93 88 93 88 93 74 c 0,54,55
 93 45 93 45 112 37.5 c 128,-1,56
 131 30 131 30 158 30 c 0,57,58
 216 30 216 30 261 52 c 0,59,60
 262 52 262 52 270 57.5 c 128,-1,61
 278 63 278 63 282 66 c 0,62,63
 284 68 284 68 296 76.5 c 128,-1,64
 308 85 308 85 310 87 c 2,65,-1
 314 87 l 1,66,-1
 317 87 l 1,67,-1
 331 73 l 1,68,-1
 331 71 l 2,69,70
 332 69 332 69 332 69 c 1,71,72
 332 48 332 48 310.5 33 c 128,-1,73
 289 18 289 18 260.5 8 c 128,-1,74
 232 -2 232 -2 203.5 -6.5 c 128,-1,75
 175 -11 175 -11 162 -11 c 0,76,77
 141 -11 141 -11 121 -6.5 c 128,-1,78
 101 -2 101 -2 85.5 7.5 c 128,-1,79
 70 17 70 17 60.5 33 c 128,-1,80
 51 49 51 49 51 72 c 0,0,1
EndSplineSet
EndChar

StartChar: u
Encoding: 117 117 48
Width: 412
GlyphClass: 1
Flags: W
LayerCount: 2
Fore
SplineSet
10 59 m 0,0,1
 10 67 10 67 16 87.5 c 128,-1,2
 22 108 22 108 31 134 c 128,-1,3
 40 160 40 160 51 188 c 128,-1,4
 62 216 62 216 72 239 c 256,5,6
 82 262 82 262 90 277 c 128,-1,7
 98 292 98 292 101 293 c 256,8,9
 104 294 104 294 116.5 295 c 128,-1,10
 129 296 129 296 132 296 c 1,11,12
 132 266 132 266 120.5 238 c 128,-1,13
 109 210 109 210 95 182 c 128,-1,14
 81 154 81 154 69.5 125.5 c 128,-1,15
 58 97 58 97 58 66 c 0,16,17
 58 53 58 53 63.5 50.5 c 128,-1,18
 69 48 69 48 81 48 c 0,19,20
 89 48 89 48 93.5 48.5 c 128,-1,21
 98 49 98 49 101.5 51 c 128,-1,22
 105 53 105 53 109.5 57.5 c 128,-1,23
 114 62 114 62 122 70 c 2,24,-1
 178 126 l 2,25,26
 182 134 182 134 192 153.5 c 128,-1,27
 202 173 202 173 213 195.5 c 128,-1,28
 224 218 224 218 233.5 237.5 c 128,-1,29
 243 257 243 257 247 265 c 0,30,31
 252 274 252 274 261.5 287.5 c 128,-1,32
 271 301 271 301 283 301 c 0,33,34
 291 301 291 301 294 294 c 128,-1,35
 297 287 297 287 297 279 c 0,36,37
 297 256 297 256 287 234.5 c 128,-1,38
 277 213 277 213 265 192 c 128,-1,39
 253 171 253 171 243 149 c 128,-1,40
 233 127 233 127 233 103 c 0,41,42
 233 92 233 92 239 81 c 128,-1,43
 245 70 245 70 255 61.5 c 128,-1,44
 265 53 265 53 276.5 47.5 c 128,-1,45
 288 42 288 42 299 42 c 0,46,47
 312 42 312 42 322 45.5 c 128,-1,48
 332 49 332 49 341 53 c 128,-1,49
 350 57 350 57 359.5 60.5 c 128,-1,50
 369 64 369 64 380 64 c 0,51,52
 389 64 389 64 395.5 61.5 c 128,-1,53
 402 59 402 59 402 48 c 0,54,55
 402 42 402 42 396.5 35 c 128,-1,56
 391 28 391 28 383 21.5 c 128,-1,57
 375 15 375 15 366.5 11 c 128,-1,58
 358 7 358 7 352 7 c 2,59,-1
 261 7 l 2,60,61
 259 7 259 7 248.5 12.5 c 128,-1,62
 238 18 238 18 233 21 c 0,63,64
 230 23 230 23 224 28.5 c 128,-1,65
 218 34 218 34 211.5 41 c 128,-1,66
 205 48 205 48 199.5 54 c 128,-1,67
 194 60 194 60 192 63 c 2,68,-1
 188 63 l 2,69,70
 179 63 179 63 164.5 53 c 128,-1,71
 150 43 150 43 134.5 31.5 c 128,-1,72
 119 20 119 20 102.5 10 c 128,-1,73
 86 0 86 0 73 0 c 0,74,75
 49 0 49 0 29.5 16.5 c 128,-1,76
 10 33 10 33 10 59 c 0,0,1
EndSplineSet
EndChar

StartChar: v
Encoding: 118 118 49
Width: 310
GlyphClass: 1
Flags: W
LayerCount: 2
Fore
SplineSet
10 18 m 0,0,1
 10 27 10 27 13 49 c 128,-1,2
 16 71 16 71 20.5 99 c 128,-1,3
 25 127 25 127 31.5 156.5 c 128,-1,4
 38 186 38 186 45.5 210.5 c 128,-1,5
 53 235 53 235 60.5 251 c 128,-1,6
 68 267 68 267 76 267 c 0,7,8
 86 267 86 267 93.5 262 c 128,-1,9
 101 257 101 257 101 246 c 0,10,11
 101 229 101 229 96.5 213 c 128,-1,12
 92 197 92 197 86.5 181.5 c 128,-1,13
 81 166 81 166 76.5 150.5 c 128,-1,14
 72 135 72 135 72 119 c 0,15,16
 72 114 72 114 74.5 109.5 c 128,-1,17
 77 105 77 105 83 105 c 0,18,19
 84 105 84 105 85 105.5 c 128,-1,20
 86 106 86 106 87 106 c 0,21,22
 103 122 103 122 126 143.5 c 128,-1,23
 149 165 149 165 175.5 184.5 c 128,-1,24
 202 204 202 204 229.5 218 c 128,-1,25
 257 232 257 232 283 232 c 0,26,27
 297 232 297 232 304 221 c 128,-1,28
 311 210 311 210 311 198 c 0,29,30
 311 188 311 188 309 181.5 c 128,-1,31
 307 175 307 175 296 175 c 0,32,33
 288 175 288 175 282 179 c 128,-1,34
 276 183 276 183 268 183 c 0,35,36
 254 183 254 183 238.5 172.5 c 128,-1,37
 223 162 223 162 212 154 c 0,38,39
 207 150 207 150 198 143 c 128,-1,40
 189 136 189 136 180 129.5 c 128,-1,41
 171 123 171 123 164 118 c 128,-1,42
 157 113 157 113 157 113 c 2,43,44
 150 107 150 107 134 91 c 128,-1,45
 118 75 118 75 100 57 c 128,-1,46
 82 39 82 39 66.5 23 c 128,-1,47
 51 7 51 7 45 1 c 0,48,49
 43 1 43 1 38 0.5 c 128,-1,50
 33 0 33 0 31 0 c 0,51,52
 20 0 20 0 15 3 c 128,-1,53
 10 6 10 6 10 18 c 0,0,1
EndSplineSet
EndChar

StartChar: w
Encoding: 119 119 50
Width: 504
GlyphClass: 1
Flags: W
LayerCount: 2
Fore
SplineSet
-8 7 m 0,0,1
 -8 8 -8 8 -7.5 10.5 c 128,-1,2
 -7 13 -7 13 -7 14 c 0,3,4
 -5 18 -5 18 0 28 c 128,-1,5
 5 38 5 38 10 49 c 128,-1,6
 15 60 15 60 20 70 c 128,-1,7
 25 80 25 80 27 84 c 256,8,9
 29 88 29 88 36.5 100.5 c 128,-1,10
 44 113 44 113 53 127.5 c 128,-1,11
 62 142 62 142 70.5 155.5 c 128,-1,12
 79 169 79 169 83 175 c 0,13,14
 87 182 87 182 92 191.5 c 128,-1,15
 97 201 97 201 104 210 c 128,-1,16
 111 219 111 219 119.5 225 c 128,-1,17
 128 231 128 231 139 231 c 0,18,19
 153 231 153 231 153 216 c 2,20,-1
 153 210 l 1,21,22
 147 201 147 201 133 178 c 128,-1,23
 119 155 119 155 103.5 129.5 c 128,-1,24
 88 104 88 104 74 81 c 128,-1,25
 60 58 60 58 55 49 c 0,26,27
 50 41 50 41 45.5 30.5 c 128,-1,28
 41 20 41 20 41 10 c 256,29,30
 41 0 41 0 54 0 c 0,31,32
 75 0 75 0 100 16.5 c 128,-1,33
 125 33 125 33 150.5 58 c 128,-1,34
 176 83 176 83 200.5 112 c 128,-1,35
 225 141 225 141 245.5 166 c 128,-1,36
 266 191 266 191 282 207.5 c 128,-1,37
 298 224 298 224 306 224 c 0,38,39
 317 224 317 224 319 217.5 c 128,-1,40
 321 211 321 211 321 202 c 0,41,42
 321 185 321 185 313 170.5 c 128,-1,43
 305 156 305 156 296 141.5 c 128,-1,44
 287 127 287 127 279 112.5 c 128,-1,45
 271 98 271 98 271 80 c 0,46,47
 271 69 271 69 274.5 65.5 c 128,-1,48
 278 62 278 62 289 62 c 0,49,50
 308 62 308 62 331 74.5 c 128,-1,51
 354 87 354 87 376 105 c 128,-1,52
 398 123 398 123 416.5 142 c 128,-1,53
 435 161 435 161 446 175 c 0,54,55
 448 177 448 177 450.5 185 c 128,-1,56
 453 193 453 193 453 196 c 0,57,58
 453 200 453 200 453.5 211 c 128,-1,59
 454 222 454 222 454 234 c 256,60,61
 454 246 454 246 453.5 257 c 128,-1,62
 453 268 453 268 453 272 c 0,63,64
 455 278 455 278 459 279 c 128,-1,65
 463 280 463 280 468 280 c 0,66,67
 487 280 487 280 491.5 265.5 c 128,-1,68
 496 251 496 251 496 237 c 0,69,70
 496 197 496 197 476.5 158 c 128,-1,71
 457 119 457 119 425.5 88.5 c 128,-1,72
 394 58 394 58 354.5 39 c 128,-1,73
 315 20 315 20 276 20 c 0,74,75
 261 20 261 20 252.5 26.5 c 128,-1,76
 244 33 244 33 239 41.5 c 128,-1,77
 234 50 234 50 230 56.5 c 128,-1,78
 226 63 226 63 219 63 c 2,79,-1
 216 63 l 1,80,81
 198 46 198 46 179.5 27.5 c 128,-1,82
 161 9 161 9 140.5 -6.5 c 128,-1,83
 120 -22 120 -22 97 -32 c 128,-1,84
 74 -42 74 -42 47 -42 c 0,85,86
 25 -42 25 -42 8.5 -30 c 128,-1,87
 -8 -18 -8 -18 -8 7 c 0,0,1
EndSplineSet
EndChar

StartChar: x
Encoding: 120 120 51
Width: 270
GlyphClass: 1
Flags: W
LayerCount: 2
Fore
SplineSet
10 -12 m 1,0,-1
 10 -8 l 1,1,2
 14 -3 14 -3 25 10 c 128,-1,3
 36 23 36 23 48.5 37 c 128,-1,4
 61 51 61 51 72 64 c 128,-1,5
 83 77 83 77 87 82 c 0,6,7
 89 84 89 84 94 92 c 128,-1,8
 99 100 99 100 101 103 c 0,9,10
 101 109 101 109 102 123.5 c 128,-1,11
 103 138 103 138 104 155 c 128,-1,12
 105 172 105 172 106 186.5 c 128,-1,13
 107 201 107 201 108 207 c 0,14,15
 110 223 110 223 113.5 233 c 128,-1,16
 117 243 117 243 133 243 c 0,17,18
 147 243 147 243 148.5 233 c 128,-1,19
 150 223 150 223 148.5 211 c 128,-1,20
 147 199 147 199 147.5 189 c 128,-1,21
 148 179 148 179 160 179 c 0,22,23
 171 179 171 179 183 194.5 c 128,-1,24
 195 210 195 210 209 228.5 c 128,-1,25
 223 247 223 247 240 262.5 c 128,-1,26
 257 278 257 278 278 278 c 0,27,28
 288 278 288 278 296 276.5 c 128,-1,29
 304 275 304 275 304 263 c 0,30,31
 304 258 304 258 283 240.5 c 128,-1,32
 262 223 262 223 237 200 c 128,-1,33
 212 177 212 177 191 152 c 128,-1,34
 170 127 170 127 170 106 c 0,35,36
 170 89 170 89 179.5 77.5 c 128,-1,37
 189 66 189 66 203.5 59 c 128,-1,38
 218 52 218 52 233.5 49.5 c 128,-1,39
 249 47 249 47 261 47 c 1,40,41
 261 45 261 45 261.5 41.5 c 128,-1,42
 262 38 262 38 262 36 c 0,43,44
 262 19 262 19 251.5 15 c 128,-1,45
 241 11 241 11 227 11 c 0,46,47
 198 11 198 11 177 26 c 128,-1,48
 156 41 156 41 136 61 c 1,49,-1
 129 61 l 1,50,-1
 31 -36 l 2,51,52
 30 -37 30 -37 29 -37 c 2,53,-1
 27 -37 l 1,54,-1
 24 -36 l 2,55,56
 22 -34 22 -34 17 -26 c 128,-1,57
 12 -18 12 -18 10 -15 c 2,58,-1
 10 -12 l 1,0,-1
EndSplineSet
EndChar

StartChar: y
Encoding: 121 121 52
Width: 363
GlyphClass: 1
Flags: W
LayerCount: 2
Fore
SplineSet
10 -245 m 0,0,1
 10 -206 10 -206 26.5 -170.5 c 128,-1,2
 43 -135 43 -135 68 -102.5 c 128,-1,3
 93 -70 93 -70 122.5 -42 c 128,-1,4
 152 -14 152 -14 178 9 c 0,5,6
 180 11 180 11 182.5 16 c 128,-1,7
 185 21 185 21 185 23 c 0,8,9
 185 30 185 30 178 30 c 0,10,11
 154 22 154 22 130 9 c 128,-1,12
 106 -4 106 -4 80 -4 c 0,13,14
 51 -4 51 -4 33.5 8 c 128,-1,15
 16 20 16 20 16 50 c 0,16,17
 16 62 16 62 23.5 81.5 c 128,-1,18
 31 101 31 101 43.5 123 c 128,-1,19
 56 145 56 145 72.5 167 c 128,-1,20
 89 189 89 189 106 207 c 128,-1,21
 123 225 123 225 140 236 c 128,-1,22
 157 247 157 247 171 247 c 256,23,24
 185 247 185 247 185 233 c 2,25,-1
 185 226 l 1,26,27
 181 222 181 222 172 212.5 c 128,-1,28
 163 203 163 203 153 191.5 c 128,-1,29
 143 180 143 180 134 170 c 128,-1,30
 125 160 125 160 122 156 c 0,31,32
 120 153 120 153 112.5 143 c 128,-1,33
 105 133 105 133 96 121 c 128,-1,34
 87 109 87 109 78.5 97 c 128,-1,35
 70 85 70 85 66 79 c 0,36,37
 61 72 61 72 59.5 68.5 c 128,-1,38
 58 65 58 65 58 58 c 0,39,40
 58 47 58 47 65.5 41.5 c 128,-1,41
 73 36 73 36 83 36 c 0,42,43
 111 36 111 36 140 54 c 128,-1,44
 169 72 169 72 197 99.5 c 128,-1,45
 225 127 225 127 251 159 c 128,-1,46
 277 191 277 191 298 218.5 c 128,-1,47
 319 246 319 246 335 264 c 128,-1,48
 351 282 351 282 359 282 c 256,49,50
 367 282 367 282 373.5 277 c 128,-1,51
 380 272 380 272 380 264 c 0,52,53
 380 255 380 255 369 236.5 c 128,-1,54
 358 218 358 218 342 194.5 c 128,-1,55
 326 171 326 171 306.5 144.5 c 128,-1,56
 287 118 287 118 271 93 c 128,-1,57
 255 68 255 68 244 47 c 128,-1,58
 233 26 233 26 233 13 c 0,59,60
 233 2 233 2 246.5 -3.5 c 128,-1,61
 260 -9 260 -9 275.5 -16.5 c 128,-1,62
 291 -24 291 -24 304.5 -36.5 c 128,-1,63
 318 -49 318 -49 318 -73 c 0,64,65
 318 -79 318 -79 317.5 -88.5 c 128,-1,66
 317 -98 317 -98 314.5 -107 c 128,-1,67
 312 -116 312 -116 307 -123 c 128,-1,68
 302 -130 302 -130 293 -130 c 0,69,70
 289 -130 289 -130 289 -129 c 0,71,72
 286 -127 286 -127 280.5 -122 c 128,-1,73
 275 -117 275 -117 275 -115 c 2,74,-1
 275 -67 l 2,75,76
 275 -61 275 -61 268.5 -55.5 c 128,-1,77
 262 -50 262 -50 253 -46 c 128,-1,78
 244 -42 244 -42 235 -40 c 128,-1,79
 226 -38 226 -38 222 -38 c 0,80,81
 205 -38 205 -38 190 -54 c 128,-1,82
 175 -70 175 -70 162 -91 c 128,-1,83
 149 -112 149 -112 139 -133 c 128,-1,84
 129 -154 129 -154 122 -164 c 0,85,86
 119 -167 119 -167 110 -179 c 128,-1,87
 101 -191 101 -191 90 -205.5 c 128,-1,88
 79 -220 79 -220 68.5 -234 c 128,-1,89
 58 -248 58 -248 52 -255 c 0,90,91
 47 -260 47 -260 41 -264.5 c 128,-1,92
 35 -269 35 -269 27 -269 c 0,93,94
 20 -269 20 -269 15 -260 c 128,-1,95
 10 -251 10 -251 10 -245 c 0,0,1
EndSplineSet
EndChar

StartChar: z
Encoding: 122 122 53
Width: 370
GlyphClass: 1
Flags: W
LayerCount: 2
Fore
SplineSet
51 -120 m 0,0,1
 51 -93 51 -93 60.5 -63 c 128,-1,2
 70 -33 70 -33 86.5 -5.5 c 128,-1,3
 103 22 103 22 125 45 c 128,-1,4
 147 68 147 68 171 81 c 0,5,6
 183 88 183 88 200.5 95 c 128,-1,7
 218 102 218 102 226 116 c 0,8,9
 232 137 232 137 237 150 c 128,-1,10
 242 163 242 163 245 174 c 128,-1,11
 248 185 248 185 250 196.5 c 128,-1,12
 252 208 252 208 252 225 c 1,13,14
 230 225 230 225 212.5 209 c 128,-1,15
 195 193 195 193 178.5 173.5 c 128,-1,16
 162 154 162 154 144.5 138 c 128,-1,17
 127 122 127 122 105 122 c 0,18,19
 94 122 94 122 90 125.5 c 128,-1,20
 86 129 86 129 86 140 c 0,21,22
 86 149 86 149 90.5 159.5 c 128,-1,23
 95 170 95 170 101 180.5 c 128,-1,24
 107 191 107 191 113 199.5 c 128,-1,25
 119 208 119 208 122 214 c 0,26,27
 122 221 122 221 115 221 c 0,28,29
 98 221 98 221 86.5 207 c 128,-1,30
 75 193 75 193 64 176.5 c 128,-1,31
 53 160 53 160 40 146.5 c 128,-1,32
 27 133 27 133 8 133 c 1,33,34
 8 155 8 155 25 184 c 128,-1,35
 42 213 42 213 67 238 c 128,-1,36
 92 263 92 263 120 280.5 c 128,-1,37
 148 298 148 298 171 298 c 0,38,39
 183 298 183 298 187 291.5 c 128,-1,40
 191 285 191 285 193 276.5 c 128,-1,41
 195 268 195 268 197.5 261.5 c 128,-1,42
 200 255 200 255 209 255 c 2,43,-1
 211 255 l 2,44,45
 212 255 212 255 212 256 c 0,46,47
 219 259 219 259 228 265 c 128,-1,48
 237 271 237 271 246 277 c 128,-1,49
 255 283 255 283 264.5 287 c 128,-1,50
 274 291 274 291 283 291 c 0,51,52
 298 291 298 291 301 279.5 c 128,-1,53
 304 268 304 268 304 257 c 0,54,55
 304 239 304 239 299.5 221.5 c 128,-1,56
 295 204 295 204 289.5 187.5 c 128,-1,57
 284 171 284 171 279.5 154 c 128,-1,58
 275 137 275 137 275 119 c 0,59,60
 275 102 275 102 288.5 93 c 128,-1,61
 302 84 302 84 317.5 74 c 128,-1,62
 333 64 333 64 346.5 48.5 c 128,-1,63
 360 33 360 33 360 3 c 0,64,65
 360 -6 360 -6 356 -18 c 128,-1,66
 352 -30 352 -30 339 -30 c 2,67,-1
 334 -30 l 2,68,69
 332 -30 332 -30 331 -29 c 0,70,71
 327 -28 327 -28 320.5 -25.5 c 128,-1,72
 314 -23 314 -23 314 -22 c 2,73,-1
 314 32 l 2,74,75
 314 38 314 38 308 42 c 128,-1,76
 302 46 302 46 294.5 48.5 c 128,-1,77
 287 51 287 51 279 52.5 c 128,-1,78
 271 54 271 54 268 54 c 0,79,80
 256 54 256 54 244 37 c 128,-1,81
 232 20 232 20 219 -5.5 c 128,-1,82
 206 -31 206 -31 192 -61 c 128,-1,83
 178 -91 178 -91 162 -116.5 c 128,-1,84
 146 -142 146 -142 127.5 -159 c 128,-1,85
 109 -176 109 -176 87 -176 c 0,86,87
 75 -176 75 -176 67.5 -171 c 128,-1,88
 60 -166 60 -166 56.5 -157.5 c 128,-1,89
 53 -149 53 -149 52 -139 c 128,-1,90
 51 -129 51 -129 51 -120 c 0,0,1
181 40 m 0,91,92
 167 40 167 40 151.5 19 c 128,-1,93
 136 -2 136 -2 122 -29.5 c 128,-1,94
 108 -57 108 -57 99 -84 c 128,-1,95
 90 -111 90 -111 90 -122 c 1,96,97
 106 -122 106 -122 124 -103 c 128,-1,98
 142 -84 142 -84 157 -58.5 c 128,-1,99
 172 -33 172 -33 182 -8 c 128,-1,100
 192 17 192 17 192 29 c 0,101,102
 192 32 192 32 191 32 c 1,103,104
 191 34 191 34 188.5 36.5 c 128,-1,105
 186 39 186 39 185 39 c 0,106,107
 184 40 184 40 181 40 c 0,91,92
EndSplineSet
EndChar

StartChar: B
Encoding: 66 66 54
Width: 542
GlyphClass: 1
Flags: W
LayerCount: 2
Fore
SplineSet
82 22 m 0,0,1
 73 22 73 22 66 18 c 128,-1,2
 59 14 59 14 52 8.5 c 128,-1,3
 45 3 45 3 37 -1 c 128,-1,4
 29 -5 29 -5 19 -5 c 0,5,6
 11 -5 11 -5 8.5 -0.5 c 128,-1,7
 6 4 6 4 6 12 c 0,8,9
 6 18 6 18 10.5 21 c 128,-1,10
 15 24 15 24 20.5 26.5 c 128,-1,11
 26 29 26 29 30.5 32.5 c 128,-1,12
 35 36 35 36 35 43 c 0,13,14
 35 52 35 52 31.5 59.5 c 128,-1,15
 28 67 28 67 23.5 74.5 c 128,-1,16
 19 82 19 82 15.5 89.5 c 128,-1,17
 12 97 12 97 12 106 c 0,18,19
 12 124 12 124 23 133 c 128,-1,20
 34 142 34 142 51 142 c 0,21,22
 65 142 65 142 73 134 c 128,-1,23
 81 126 81 126 93 126 c 0,24,25
 101 126 101 126 117 148.5 c 128,-1,26
 133 171 133 171 150 200 c 128,-1,27
 167 229 167 229 181.5 256.5 c 128,-1,28
 196 284 196 284 202 294 c 0,29,30
 206 301 206 301 217 318 c 128,-1,31
 228 335 228 335 240 354 c 128,-1,32
 252 373 252 373 263 390 c 128,-1,33
 274 407 274 407 278 413 c 1,34,35
 274 435 274 435 290 453.5 c 128,-1,36
 306 472 306 472 330.5 485 c 128,-1,37
 355 498 355 498 382 505 c 128,-1,38
 409 512 409 512 427 512 c 256,39,40
 445 512 445 512 460 508 c 128,-1,41
 475 504 475 504 475 482 c 0,42,43
 475 461 475 461 467 442 c 128,-1,44
 459 423 459 423 450 406 c 128,-1,45
 441 389 441 389 433 374.5 c 128,-1,46
 425 360 425 360 425 347 c 0,47,48
 425 339 425 339 440.5 334 c 128,-1,49
 456 329 456 329 474.5 318.5 c 128,-1,50
 493 308 493 308 508.5 289 c 128,-1,51
 524 270 524 270 524 234 c 0,52,53
 524 181 524 181 501.5 136 c 128,-1,54
 479 91 479 91 441.5 58 c 128,-1,55
 404 25 404 25 356.5 6.5 c 128,-1,56
 309 -12 309 -12 258 -12 c 0,57,58
 231 -12 231 -12 201.5 -8 c 128,-1,59
 172 -4 172 -4 146 1 c 0,60,61
 129 5 129 5 114 13.5 c 128,-1,62
 99 22 99 22 82 22 c 0,0,1
124 85 m 0,63,64
 124 62 124 62 138.5 48 c 128,-1,65
 153 34 153 34 173.5 26.5 c 128,-1,66
 194 19 194 19 216 17 c 128,-1,67
 238 15 238 15 254 15 c 0,68,69
 296 15 296 15 338 32 c 128,-1,70
 380 49 380 49 413.5 78 c 128,-1,71
 447 107 447 107 468 145.5 c 128,-1,72
 489 184 489 184 489 228 c 0,73,74
 489 260 489 260 468.5 281 c 128,-1,75
 448 302 448 302 415 302 c 0,76,77
 396 302 396 302 381.5 292 c 128,-1,78
 367 282 367 282 354 270 c 128,-1,79
 341 258 341 258 327.5 248 c 128,-1,80
 314 238 314 238 296 238 c 0,81,82
 288 238 288 238 283 240.5 c 128,-1,83
 278 243 278 243 278 252 c 2,84,-1
 278 259 l 1,85,86
 298 274 298 274 325 297 c 128,-1,87
 352 320 352 320 376 347 c 128,-1,88
 400 374 400 374 416.5 403 c 128,-1,89
 433 432 433 432 433 459 c 0,90,91
 433 473 433 473 427 475 c 128,-1,92
 421 477 421 477 408 477 c 0,93,94
 388 477 388 477 363.5 468.5 c 128,-1,95
 339 460 339 460 327 441 c 0,96,97
 279 356 279 356 231 273.5 c 128,-1,98
 183 191 183 191 132 106 c 0,99,100
 127 98 127 98 125.5 95.5 c 128,-1,101
 124 93 124 93 124 85 c 0,63,64
EndSplineSet
EndChar

StartChar: A
Encoding: 65 65 55
Width: 762
GlyphClass: 1
Flags: W
LayerCount: 2
Fore
SplineSet
637 -83 m 2,0,-1
 637 -52 l 2,1,2
 637 5 637 5 644.5 61 c 128,-1,3
 652 117 652 117 652 177 c 2,4,-1
 652 192 l 2,5,6
 652 202 652 202 651.5 212 c 128,-1,7
 651 222 651 222 651 229 c 2,8,-1
 651 238 l 1,9,-1
 644 245 l 1,10,-1
 637 245 l 2,11,12
 632 245 632 245 625 245.5 c 128,-1,13
 618 246 618 246 611 246 c 2,14,-1
 600 246 l 2,15,16
 589 246 589 246 571.5 246.5 c 128,-1,17
 554 247 554 247 534.5 246.5 c 128,-1,18
 515 246 515 246 497 242.5 c 128,-1,19
 479 239 479 239 469 231 c 0,20,21
 438 198 438 198 398.5 156.5 c 128,-1,22
 359 115 359 115 314.5 79 c 128,-1,23
 270 43 270 43 222 18 c 128,-1,24
 174 -7 174 -7 126 -7 c 0,25,26
 102 -7 102 -7 79.5 1.5 c 128,-1,27
 57 10 57 10 39.5 25 c 128,-1,28
 22 40 22 40 11.5 61 c 128,-1,29
 1 82 1 82 1 108 c 2,30,-1
 1 126 l 2,31,32
 3 131 3 131 8.5 143 c 128,-1,33
 14 155 14 155 21 168.5 c 128,-1,34
 28 182 28 182 34 193.5 c 128,-1,35
 40 205 40 205 43 210 c 0,36,37
 51 220 51 220 59 230 c 0,38,39
 66 238 66 238 73 246 c 128,-1,40
 80 254 80 254 85 259 c 0,41,42
 90 265 90 265 98 272.5 c 128,-1,43
 106 280 106 280 117 280 c 0,44,45
 124 280 124 280 129 270.5 c 128,-1,46
 134 261 134 261 134 255 c 0,47,48
 134 253 134 253 119.5 239.5 c 128,-1,49
 105 226 105 226 88 205 c 128,-1,50
 71 184 71 184 56.5 159 c 128,-1,51
 42 134 42 134 42 110 c 0,52,53
 42 93 42 93 49 78 c 128,-1,54
 56 63 56 63 68 51.5 c 128,-1,55
 80 40 80 40 96 33.5 c 128,-1,56
 112 27 112 27 129 27 c 0,57,58
 169 27 169 27 208 47 c 128,-1,59
 247 67 247 67 283 96 c 128,-1,60
 319 125 319 125 350.5 158 c 128,-1,61
 382 191 382 191 406 217 c 0,62,63
 407 217 407 217 407 218 c 2,64,-1
 407 220 l 2,65,66
 407 223 407 223 406 224 c 0,67,68
 405 226 405 226 402.5 230 c 128,-1,69
 400 234 400 234 399 234 c 2,70,-1
 316 234 l 2,71,72
 305 234 305 234 299.5 242 c 128,-1,73
 294 250 294 250 294 259 c 0,74,75
 294 265 294 265 297 269 c 128,-1,76
 300 273 300 273 309 273 c 0,77,78
 347 271 347 271 385.5 273 c 128,-1,79
 424 275 424 275 462 280 c 1,80,81
 485 301 485 301 506.5 322.5 c 128,-1,82
 528 344 528 344 546 370 c 0,83,84
 584 424 584 424 616 480 c 128,-1,85
 648 536 648 536 686 587 c 0,86,87
 693 595 693 595 696 598.5 c 128,-1,88
 699 602 699 602 707 602 c 0,89,90
 720 602 720 602 728 587 c 1,91,-1
 728 578 l 2,92,93
 728 572 728 572 728.5 564.5 c 128,-1,94
 729 557 729 557 729 551 c 2,95,-1
 729 542 l 2,96,97
 729 512 729 512 724.5 482.5 c 128,-1,98
 720 453 720 453 714 423.5 c 128,-1,99
 708 394 708 394 703.5 364.5 c 128,-1,100
 699 335 699 335 699 306 c 0,101,102
 699 288 699 288 711.5 283 c 128,-1,103
 724 278 724 278 738.5 277 c 128,-1,104
 753 276 753 276 765.5 274 c 128,-1,105
 778 272 778 272 778 259 c 0,106,107
 778 252 778 252 775 249 c 128,-1,108
 772 246 772 246 763 245 c 0,109,110
 760 245 760 245 751 244.5 c 128,-1,111
 742 244 742 244 732 244 c 256,112,113
 722 244 722 244 713 244.5 c 128,-1,114
 704 245 704 245 700 245 c 2,115,-1
 693 238 l 1,116,117
 693 227 693 227 692.5 200 c 128,-1,118
 692 173 692 173 691 143 c 128,-1,119
 690 113 690 113 688.5 86 c 128,-1,120
 687 59 687 59 686 49 c 256,121,122
 685 39 685 39 684 16 c 128,-1,123
 683 -7 683 -7 679 -31 c 128,-1,124
 675 -55 675 -55 668.5 -73 c 128,-1,125
 662 -91 662 -91 651 -91 c 0,126,127
 646 -91 646 -91 642.5 -90 c 128,-1,128
 639 -89 639 -89 637 -83 c 2,0,-1
532 297 m 2,129,-1
 532 294 l 2,130,131
 533 292 533 292 535.5 289.5 c 128,-1,132
 538 287 538 287 539 287 c 2,133,-1
 651 287 l 2,134,135
 658 287 658 287 663.5 307 c 128,-1,136
 669 327 669 327 673.5 353.5 c 128,-1,137
 678 380 678 380 681 405 c 128,-1,138
 684 430 684 430 686 440 c 0,139,140
 687 448 687 448 688.5 460.5 c 128,-1,141
 690 473 690 473 691 486 c 0,142,143
 692 501 692 501 693 517 c 1,144,-1
 686 524 l 1,145,146
 681 520 681 520 667.5 502.5 c 128,-1,147
 654 485 654 485 637 460.5 c 128,-1,148
 620 436 620 436 601.5 408.5 c 128,-1,149
 583 381 583 381 567.5 357 c 128,-1,150
 552 333 552 333 542 316 c 128,-1,151
 532 299 532 299 532 297 c 2,129,-1
EndSplineSet
EndChar

StartChar: Aacute
Encoding: 193 193 56
Width: 762
Flags: W
LayerCount: 2
Fore
SplineSet
826 734 m 1,0,-1
 772 634 l 1,1,-1
 724 658 l 1,2,-1
 780 759 l 1,3,-1
 826 734 l 1,0,-1
637 -83 m 1,4,-1
 637 -52 l 2,5,6
 637 5 637 5 644.5 61 c 128,-1,7
 652 117 652 117 652 177 c 2,8,-1
 652 192 l 2,9,10
 652 202 652 202 651.5 212 c 128,-1,11
 651 222 651 222 651 229 c 2,12,-1
 651 238 l 1,13,-1
 644 245 l 1,14,-1
 637 245 l 2,15,16
 632 245 632 245 625 245.5 c 128,-1,17
 618 246 618 246 611 246 c 2,18,-1
 600 246 l 2,19,20
 589 246 589 246 571.5 246.5 c 128,-1,21
 554 247 554 247 534.5 246.5 c 128,-1,22
 515 246 515 246 497 242.5 c 128,-1,23
 479 239 479 239 469 231 c 0,24,25
 438 198 438 198 398.5 156.5 c 128,-1,26
 359 115 359 115 314.5 79 c 128,-1,27
 270 43 270 43 222 18 c 128,-1,28
 174 -7 174 -7 126 -7 c 0,29,30
 102 -7 102 -7 79.5 1.5 c 128,-1,31
 57 10 57 10 39.5 25 c 128,-1,32
 22 40 22 40 11.5 61 c 128,-1,33
 1 82 1 82 1 108 c 2,34,-1
 1 126 l 2,35,36
 3 131 3 131 8.5 143 c 128,-1,37
 14 155 14 155 21 168.5 c 128,-1,38
 28 182 28 182 34 193.5 c 128,-1,39
 40 205 40 205 43 210 c 2,40,-1
 59 230 l 1,41,-1
 73 246 l 2,42,43
 80 254 80 254 85 259 c 0,44,45
 90 265 90 265 98 272.5 c 128,-1,46
 106 280 106 280 117 280 c 0,47,48
 124 280 124 280 129 270.5 c 128,-1,49
 134 261 134 261 134 255 c 0,50,51
 134 253 134 253 119.5 239.5 c 128,-1,52
 105 226 105 226 88 205 c 128,-1,53
 71 184 71 184 56.5 159 c 128,-1,54
 42 134 42 134 42 110 c 0,55,56
 42 93 42 93 49 78 c 128,-1,57
 56 63 56 63 68 51.5 c 128,-1,58
 80 40 80 40 96 33.5 c 128,-1,59
 112 27 112 27 129 27 c 0,60,61
 169 27 169 27 208 47 c 128,-1,62
 247 67 247 67 283 96 c 128,-1,63
 319 125 319 125 350.5 158 c 128,-1,64
 382 191 382 191 406 217 c 0,65,66
 407 217 407 217 407 218 c 2,67,-1
 407 220 l 2,68,69
 407 223 407 223 406 224 c 0,70,71
 405 226 405 226 402.5 230 c 128,-1,72
 400 234 400 234 399 234 c 2,73,-1
 316 234 l 2,74,75
 305 234 305 234 299.5 242 c 128,-1,76
 294 250 294 250 294 259 c 0,77,78
 294 265 294 265 297 269 c 128,-1,79
 300 273 300 273 309 273 c 0,80,81
 347 271 347 271 385.5 273 c 128,-1,82
 424 275 424 275 462 280 c 1,83,84
 485 301 485 301 506.5 322.5 c 128,-1,85
 528 344 528 344 546 370 c 0,86,87
 584 424 584 424 616 480 c 128,-1,88
 648 536 648 536 686 587 c 0,89,90
 693 595 693 595 696 598.5 c 128,-1,91
 699 602 699 602 707 602 c 0,92,93
 720 602 720 602 728 587 c 1,94,-1
 728 578 l 2,95,96
 728 572 728 572 728.5 564.5 c 128,-1,97
 729 557 729 557 729 551 c 2,98,-1
 729 542 l 2,99,100
 729 512 729 512 724.5 482.5 c 128,-1,101
 720 453 720 453 714 423.5 c 128,-1,102
 708 394 708 394 703.5 364.5 c 128,-1,103
 699 335 699 335 699 306 c 0,104,105
 699 288 699 288 711.5 283 c 128,-1,106
 724 278 724 278 738.5 277 c 128,-1,107
 753 276 753 276 765.5 274 c 128,-1,108
 778 272 778 272 778 259 c 0,109,110
 778 252 778 252 775 249 c 128,-1,111
 772 246 772 246 763 245 c 0,112,113
 760 245 760 245 751 244.5 c 128,-1,114
 742 244 742 244 732 244 c 256,115,116
 722 244 722 244 713 244.5 c 128,-1,117
 704 245 704 245 700 245 c 2,118,-1
 693 238 l 1,119,120
 693 227 693 227 692.5 200 c 128,-1,121
 692 173 692 173 691 143 c 128,-1,122
 690 113 690 113 688.5 86 c 128,-1,123
 687 59 687 59 686 49 c 256,124,125
 685 39 685 39 684 16 c 128,-1,126
 683 -7 683 -7 679 -31 c 128,-1,127
 675 -55 675 -55 668.5 -73 c 128,-1,128
 662 -91 662 -91 651 -91 c 0,129,130
 646 -91 646 -91 642.5 -90 c 128,-1,131
 639 -89 639 -89 637 -83 c 1,4,-1
532 297 m 2,132,-1
 532 294 l 2,133,134
 533 292 533 292 535.5 289.5 c 128,-1,135
 538 287 538 287 539 287 c 2,136,-1
 651 287 l 2,137,138
 658 287 658 287 663.5 307 c 128,-1,139
 669 327 669 327 673.5 353.5 c 128,-1,140
 678 380 678 380 681 405 c 128,-1,141
 684 430 684 430 686 440 c 0,142,143
 687 448 687 448 688.5 460.5 c 128,-1,144
 690 473 690 473 691 486 c 0,145,146
 692 501 692 501 693 517 c 1,147,-1
 686 524 l 1,148,149
 681 520 681 520 667.5 502.5 c 128,-1,150
 654 485 654 485 637 460.5 c 128,-1,151
 620 436 620 436 601.5 408.5 c 128,-1,152
 583 381 583 381 567.5 357 c 128,-1,153
 552 333 552 333 542 316 c 128,-1,154
 532 299 532 299 532 297 c 2,132,-1
EndSplineSet
EndChar

StartChar: Eacute
Encoding: 201 201 57
Width: 527
Flags: W
LayerCount: 2
Fore
SplineSet
580 817 m 1,0,-1
 642 793 l 1,1,-1
 578 668 l 1,2,-1
 514 687 l 1,3,-1
 580 817 l 1,0,-1
9 70 m 0,4,5
 9 97 9 97 27.5 119 c 128,-1,6
 46 141 46 141 66 155 c 0,7,8
 74 161 74 161 94.5 175 c 128,-1,9
 115 189 115 189 138.5 205 c 128,-1,10
 162 221 162 221 183 234.5 c 128,-1,11
 204 248 204 248 213 253 c 0,12,13
 214 253 214 253 216.5 255.5 c 128,-1,14
 219 258 219 258 220 260 c 2,15,-1
 220 263 l 2,16,17
 220 276 220 276 216 287.5 c 128,-1,18
 212 299 212 299 212 312 c 0,19,20
 212 338 212 338 225 361 c 128,-1,21
 238 384 238 384 257 403.5 c 128,-1,22
 276 423 276 423 298.5 439.5 c 128,-1,23
 321 456 321 456 339 469 c 0,24,25
 346 474 346 474 363.5 486 c 128,-1,26
 381 498 381 498 401.5 511 c 128,-1,27
 422 524 422 524 439.5 536 c 128,-1,28
 457 548 457 548 464 553 c 0,29,30
 483 557 483 557 500 565.5 c 128,-1,31
 517 574 517 574 533.5 582 c 128,-1,32
 550 590 550 590 567 596.5 c 128,-1,33
 584 603 584 603 604 603 c 0,34,35
 613 603 613 603 624 601.5 c 128,-1,36
 635 600 635 600 645 596.5 c 128,-1,37
 655 593 655 593 661.5 585.5 c 128,-1,38
 668 578 668 578 668 566 c 0,39,40
 668 553 668 553 649 540.5 c 128,-1,41
 630 528 630 528 605 518.5 c 128,-1,42
 580 509 580 509 556.5 503 c 128,-1,43
 533 497 533 497 523 497 c 0,44,45
 517 497 517 497 515 502 c 128,-1,46
 513 507 513 507 513 512 c 0,47,48
 513 518 513 518 520 522.5 c 128,-1,49
 527 527 527 527 536 530.5 c 128,-1,50
 545 534 545 534 552.5 536 c 128,-1,51
 560 538 560 538 562 539 c 0,52,53
 565 541 565 541 569.5 543 c 128,-1,54
 574 545 574 545 579 547 c 0,55,56
 584 550 584 550 590 553 c 1,57,-1
 590 558 l 1,58,59
 572 558 572 558 540 545.5 c 128,-1,60
 508 533 508 533 470.5 513 c 128,-1,61
 433 493 433 493 394.5 467.5 c 128,-1,62
 356 442 356 442 325 415 c 128,-1,63
 294 388 294 388 274 362.5 c 128,-1,64
 254 337 254 337 254 317 c 2,65,-1
 254 299 l 2,66,67
 254 287 254 287 265 287 c 0,68,69
 277 287 277 287 289 292.5 c 128,-1,70
 301 298 301 298 312.5 305 c 128,-1,71
 324 312 324 312 336.5 317.5 c 128,-1,72
 349 323 349 323 363 323 c 256,73,74
 377 323 377 323 389.5 319 c 128,-1,75
 402 315 402 315 402 298 c 0,76,77
 402 275 402 275 386 264 c 128,-1,78
 370 253 370 253 348 248.5 c 128,-1,79
 326 244 326 244 303.5 243 c 128,-1,80
 281 242 281 242 269 239 c 0,81,82
 262 238 262 238 243.5 228 c 128,-1,83
 225 218 225 218 201 203 c 128,-1,84
 177 188 177 188 150.5 169 c 128,-1,85
 124 150 124 150 102 131 c 128,-1,86
 80 112 80 112 65.5 95 c 128,-1,87
 51 78 51 78 51 67 c 0,88,89
 51 51 51 51 63.5 37.5 c 128,-1,90
 76 24 76 24 87 15 c 1,91,-1
 98 15 l 2,92,93
 106 15 106 15 115 14.5 c 128,-1,94
 124 14 124 14 132 14 c 2,95,-1
 143 14 l 2,96,97
 182 14 182 14 227.5 20.5 c 128,-1,98
 273 27 273 27 311 36 c 0,99,100
 313 36 313 36 327 40.5 c 128,-1,101
 341 45 341 45 359 50.5 c 128,-1,102
 377 56 377 56 394.5 62 c 128,-1,103
 412 68 412 68 422 71 c 0,104,105
 424 71 424 71 429.5 74 c 128,-1,106
 435 77 435 77 436 78 c 2,107,-1
 443 78 l 2,108,109
 449 78 449 78 457 76.5 c 128,-1,110
 465 75 465 75 465 68 c 0,111,112
 465 60 465 60 461.5 49.5 c 128,-1,113
 458 39 458 39 450 36 c 0,114,115
 438 31 438 31 408.5 21 c 128,-1,116
 379 11 379 11 347 0.5 c 128,-1,117
 315 -10 315 -10 288.5 -18 c 128,-1,118
 262 -26 262 -26 255 -26 c 2,119,-1
 108 -26 l 2,120,121
 91 -26 91 -26 73 -17 c 128,-1,122
 55 -8 55 -8 41 5.5 c 128,-1,123
 27 19 27 19 18 36 c 128,-1,124
 9 53 9 53 9 70 c 0,4,5
EndSplineSet
EndChar

StartChar: Iacute
Encoding: 205 205 58
Width: 551
Flags: W
LayerCount: 2
Fore
SplineSet
658 839 m 1,0,-1
 722 819 l 1,1,-1
 670 663 l 1,2,-1
 604 683 l 1,3,-1
 658 839 l 1,0,-1
24 261 m 0,4,5
 32 261 32 261 34.5 251 c 128,-1,6
 37 241 37 241 39 226.5 c 128,-1,7
 41 212 41 212 46.5 195 c 128,-1,8
 52 178 52 178 66 164 c 128,-1,9
 80 150 80 150 106.5 141.5 c 128,-1,10
 133 133 133 133 178 135 c 1,11,-1
 178 124 l 2,12,13
 178 112 178 112 171 107.5 c 128,-1,14
 164 103 164 103 154 101.5 c 128,-1,15
 144 100 144 100 132.5 101 c 128,-1,16
 121 102 121 102 113 102 c 0,17,18
 101 102 101 102 101 90 c 0,19,20
 101 75 101 75 110.5 63.5 c 128,-1,21
 120 52 120 52 134 44.5 c 128,-1,22
 148 37 148 37 163.5 33 c 128,-1,23
 179 29 179 29 191 29 c 256,24,25
 203 29 203 29 223.5 33 c 128,-1,26
 244 37 244 37 264.5 44 c 128,-1,27
 285 51 285 51 302 60 c 128,-1,28
 319 69 319 69 325 79 c 1,29,30
 326 106 326 106 327 125.5 c 128,-1,31
 328 145 328 145 331 161.5 c 128,-1,32
 334 178 334 178 340.5 195 c 128,-1,33
 347 212 347 212 359 233 c 0,34,35
 367 243 367 243 383 264.5 c 128,-1,36
 399 286 399 286 419 314 c 128,-1,37
 439 342 439 342 460.5 372.5 c 128,-1,38
 482 403 482 403 502 430.5 c 2,39,-1
 538 480 l 2,40,41
 554 502 554 502 562 512 c 0,42,43
 563 513 563 513 569.5 521 c 128,-1,44
 576 529 576 529 585 539 c 2,45,-1
 603 559 l 2,46,47
 612 569 612 569 618 575 c 2,48,-1
 641.5 598.5 l 2,49,50
 654 611 654 611 670 611 c 0,51,52
 675 611 675 611 680.5 610.5 c 128,-1,53
 686 610 686 610 688 603 c 0,54,55
 688 600 688 600 688.5 590.5 c 128,-1,56
 689 581 689 581 689 579 c 0,57,58
 689 547 689 547 678 516 c 128,-1,59
 667 485 667 485 653 456 c 0,60,61
 628 402 628 402 603.5 353.5 c 128,-1,62
 579 305 579 305 551.5 260.5 c 128,-1,63
 524 216 524 216 491 174.5 c 128,-1,64
 458 133 458 133 415 93 c 1,65,-1
 415 89 l 1,66,-1
 415 86 l 2,67,68
 416 84 416 84 419 78.5 c 128,-1,69
 422 73 422 73 422 72 c 2,70,-1
 422 70 l 1,71,-1
 423 68 l 1,72,-1
 422 65 l 2,73,74
 422 63 422 63 419.5 58 c 128,-1,75
 417 53 417 53 415 51 c 0,76,77
 383 54 383 54 356.5 45.5 c 128,-1,78
 330 37 330 37 304 26 c 128,-1,79
 278 15 278 15 251 5 c 128,-1,80
 224 -5 224 -5 192 -5 c 2,81,-1
 183 -5 l 2,82,83
 177 -5 177 -5 170.5 -4.5 c 128,-1,84
 164 -4 164 -4 158 -4 c 2,85,-1
 150 -4 l 1,86,87
 126 1 126 1 105.5 20.5 c 128,-1,88
 85 40 85 40 68.5 64.5 c 128,-1,89
 52 89 52 89 39.5 114 c 128,-1,90
 27 139 27 139 17 156 c 0,91,92
 15 158 15 158 12.5 163.5 c 128,-1,93
 10 169 10 169 10 170 c 2,94,-1
 10 254 l 2,95,96
 10 259 10 259 15.5 260 c 128,-1,97
 21 261 21 261 24 261 c 0,4,5
359 137 m 0,98,99
 359 129 359 129 363 121 c 128,-1,100
 367 113 367 113 377 113 c 0,101,102
 393 113 393 113 419.5 140 c 128,-1,103
 446 167 446 167 476 209 c 128,-1,104
 506 251 506 251 536.5 302 c 128,-1,105
 567 353 567 353 591 400 c 128,-1,106
 615 447 615 447 630.5 485 c 128,-1,107
 646 523 646 523 646 540 c 0,108,109
 646 547 646 547 639 547 c 1,110,-1
 576 484 l 2,111,112
 573 481 573 481 553 454 c 128,-1,113
 533 427 533 427 507 391.5 c 128,-1,114
 481 356 481 356 455.5 319.5 c 128,-1,115
 430 283 430 283 415 261 c 0,116,117
 406 248 406 248 396.5 233.5 c 128,-1,118
 387 219 387 219 378.5 203 c 128,-1,119
 370 187 370 187 364.5 170 c 128,-1,120
 359 153 359 153 359 137 c 0,98,99
EndSplineSet
EndChar

StartChar: Oacute
Encoding: 211 211 59
Width: 445
Flags: W
LayerCount: 2
Fore
SplineSet
460 775 m 1,0,-1
 534 772 l 1,1,-1
 456 649 l 1,2,-1
 390 653 l 1,3,-1
 460 775 l 1,0,-1
9 66 m 0,4,5
 9 86 9 86 14.5 102.5 c 128,-1,6
 20 119 20 119 31 136 c 0,7,8
 37 146 37 146 49.5 166.5 c 128,-1,9
 62 187 62 187 75.5 208 c 128,-1,10
 89 229 89 229 100.5 246.5 c 128,-1,11
 112 264 112 264 115 268 c 0,12,13
 123 280 123 280 143.5 309 c 128,-1,14
 164 338 164 338 187.5 370 c 128,-1,15
 211 402 211 402 232 431 c 128,-1,16
 253 460 253 460 261 471 c 256,17,18
 269 482 269 482 293 502 c 128,-1,19
 317 522 317 522 345 541.5 c 128,-1,20
 373 561 373 561 399.5 575.5 c 128,-1,21
 426 590 426 590 439 590 c 0,22,23
 464 590 464 590 477 580.5 c 128,-1,24
 490 571 490 571 499 548 c 1,25,-1
 499 539.5 l 2,26,27
 499 534 499 534 499.5 527 c 128,-1,28
 500 520 500 520 500 514.5 c 2,29,-1
 500 506 l 2,30,31
 500 464 500 464 481.5 410 c 128,-1,32
 463 356 463 356 431.5 299.5 c 128,-1,33
 400 243 400 243 358.5 188.5 c 128,-1,34
 317 134 317 134 270.5 91.5 c 128,-1,35
 224 49 224 49 176 23 c 128,-1,36
 128 -3 128 -3 83 -3 c 0,37,38
 51 -3 51 -3 30 15.5 c 128,-1,39
 9 34 9 34 9 66 c 0,4,5
51 69 m 0,40,41
 51 60 51 60 54.5 51.5 c 128,-1,42
 58 43 58 43 66 38 c 0,43,44
 69 38 69 38 78.5 37.5 c 128,-1,45
 88 37 88 37 90 37 c 0,46,47
 120 37 120 37 149.5 51.5 c 128,-1,48
 179 66 179 66 205.5 87 c 128,-1,49
 232 108 232 108 255 132.5 c 128,-1,50
 278 157 278 157 296 178 c 1,51,52
 290 186 290 186 282 190.5 c 128,-1,53
 274 195 274 195 265 199 c 128,-1,54
 256 203 256 203 248 207.5 c 128,-1,55
 240 212 240 212 234 220 c 0,56,57
 221 235 221 235 211.5 256.5 c 128,-1,58
 202 278 202 278 185 289 c 1,59,60
 168 275 168 275 145 247.5 c 128,-1,61
 122 220 122 220 101 187.5 c 128,-1,62
 80 155 80 155 65.5 123 c 128,-1,63
 51 91 51 91 51 69 c 0,40,41
240 316 m 0,64,65
 240 297 240 297 245.5 279.5 c 128,-1,66
 251 262 251 262 261.5 248.5 c 128,-1,67
 272 235 272 235 288 227 c 128,-1,68
 304 219 304 219 325 219 c 0,69,70
 333 219 333 219 335.5 221.5 c 128,-1,71
 338 224 338 224 345 234 c 0,72,73
 366 262 366 262 388.5 295.5 c 128,-1,74
 411 329 411 329 429.5 365 c 128,-1,75
 448 401 448 401 460 438.5 c 128,-1,76
 472 476 472 476 472 513 c 0,77,78
 472 516 472 516 471.5 527 c 128,-1,79
 471 538 471 538 471 541 c 0,80,81
 470 545 470 545 465.5 547 c 128,-1,82
 461 549 461 549 456 549.5 c 128,-1,83
 451 550 451 550 446.5 549.5 c 128,-1,84
 442 549 442 549 441 549 c 0,85,86
 428 549 428 549 408.5 536.5 c 128,-1,87
 389 524 389 524 366.5 503.5 c 128,-1,88
 344 483 344 483 321.5 457.5 c 128,-1,89
 299 432 299 432 281 406 c 128,-1,90
 263 380 263 380 251.5 356.5 c 128,-1,91
 240 333 240 333 240 316 c 0,64,65
EndSplineSet
EndChar

StartChar: Uacute
Encoding: 218 218 60
Width: 615
Flags: W
LayerCount: 2
Fore
SplineSet
327 737 m 1,0,-1
 369 726 l 1,1,-1
 335 631 l 1,2,-1
 292 639 l 1,3,-1
 327 737 l 1,0,-1
10 64 m 0,4,5
 10 83 10 83 12 99.5 c 128,-1,6
 14 116 14 116 17 136 c 0,7,8
 49 236 49 236 83 332 c 128,-1,9
 117 428 117 428 150 527 c 0,10,11
 154 538 154 538 161.5 547 c 128,-1,12
 169 556 169 556 182 556 c 0,13,14
 193 556 193 556 196 549 c 128,-1,15
 199 542 199 542 199 531 c 2,16,-1
 199 527 l 2,17,18
 196 516 196 516 187 490.5 c 128,-1,19
 178 465 178 465 167.5 436.5 c 128,-1,20
 157 408 157 408 148 382 c 128,-1,21
 139 356 139 356 136 345 c 0,22,23
 124 313 124 313 109 279 c 128,-1,24
 94 245 94 245 81.5 210 c 128,-1,25
 69 175 69 175 60 139.5 c 128,-1,26
 51 104 51 104 51 68 c 0,27,28
 51 57 51 57 61.5 47.5 c 128,-1,29
 72 38 72 38 83 38 c 0,30,31
 104 38 104 38 129.5 52 c 128,-1,32
 155 66 155 66 181.5 88.5 c 128,-1,33
 208 111 208 111 233.5 139 c 128,-1,34
 259 167 259 167 280 196 c 128,-1,35
 301 225 301 225 316.5 251.5 c 128,-1,36
 332 278 332 278 338 297 c 2,37,-1
 422 555 l 2,38,39
 427 569 427 569 442 571.5 c 128,-1,40
 457 574 457 574 467 574 c 1,41,42
 467 548 467 548 458 528 c 128,-1,43
 449 508 449 508 443 485 c 0,44,45
 435 450 435 450 423 414.5 c 128,-1,46
 411 379 411 379 400 343 c 128,-1,47
 389 307 389 307 381 270.5 c 128,-1,48
 373 234 373 234 373 198 c 0,49,50
 373 178 373 178 381 161.5 c 128,-1,51
 389 145 389 145 402.5 133 c 128,-1,52
 416 121 416 121 433.5 114 c 128,-1,53
 451 107 451 107 471 107 c 0,54,55
 489 107 489 107 506 113 c 128,-1,56
 523 119 523 119 539.5 126 c 128,-1,57
 556 133 556 133 573 139 c 128,-1,58
 590 145 590 145 608 145 c 1,59,60
 608 125 608 125 590 110 c 128,-1,61
 572 95 572 95 548 85 c 128,-1,62
 524 75 524 75 499 70 c 128,-1,63
 474 65 474 65 460 65 c 0,64,65
 427 65 427 65 404 80.5 c 128,-1,66
 381 96 381 96 364.5 114.5 c 128,-1,67
 348 133 348 133 337 148.5 c 128,-1,68
 326 164 326 164 317 164 c 0,69,70
 312 164 312 164 300 152 c 128,-1,71
 288 140 288 140 270.5 122 c 128,-1,72
 253 104 253 104 231.5 83 c 128,-1,73
 210 62 210 62 186 44 c 128,-1,74
 162 26 162 26 136 14 c 128,-1,75
 110 2 110 2 85 2 c 0,76,77
 55 2 55 2 32.5 15 c 128,-1,78
 10 28 10 28 10 64 c 0,4,5
EndSplineSet
EndChar

StartChar: aacute
Encoding: 225 225 61
Width: 494
Flags: W
LayerCount: 2
Fore
SplineSet
317 448 m 1,0,-1
 345 439 l 1,1,-1
 301 371 l 1,2,-1
 272 379 l 1,3,-1
 317 448 l 1,0,-1
232 60 m 1,4,-1
 228 60 l 2,5,6
 213 60 213 60 198.5 49 c 128,-1,7
 184 38 184 38 167.5 25 c 128,-1,8
 151 12 151 12 130 1 c 128,-1,9
 109 -10 109 -10 81 -10 c 0,10,11
 78 -10 78 -10 66 -9.5 c 128,-1,12
 54 -9 54 -9 50 -9 c 0,13,14
 37 1 37 1 25.5 14.5 c 128,-1,15
 14 28 14 28 14 45 c 0,16,17
 14 68 14 68 26 99 c 128,-1,18
 38 130 38 130 58 163.5 c 128,-1,19
 78 197 78 197 104 230 c 128,-1,20
 130 263 130 263 158.5 289 c 128,-1,21
 187 315 187 315 215.5 331 c 128,-1,22
 244 347 244 347 270 347 c 0,23,24
 274 347 274 347 281.5 346 c 128,-1,25
 289 345 289 345 296.5 342.5 c 128,-1,26
 304 340 304 340 309.5 336 c 128,-1,27
 315 332 315 332 315 325 c 2,28,-1
 315 255 l 2,29,30
 315 250 315 250 318.5 248 c 128,-1,31
 322 246 322 246 326.5 244 c 128,-1,32
 331 242 331 242 334.5 238.5 c 128,-1,33
 338 235 338 235 338 227 c 0,34,35
 338 220 338 220 336 214 c 0,36,37
 333 208 333 208 326 194.5 c 128,-1,38
 319 181 319 181 311 165 c 128,-1,39
 303 149 303 149 296.5 135.5 c 128,-1,40
 290 122 290 122 287 116 c 0,41,42
 286 114 286 114 283.5 103.5 c 128,-1,43
 281 93 281 93 280 88 c 2,44,-1
 280 80 l 2,45,46
 280 63 280 63 292 51 c 128,-1,47
 304 39 304 39 321 31.5 c 128,-1,48
 338 24 338 24 356.5 20.5 c 128,-1,49
 375 17 375 17 387 17 c 0,50,51
 415 17 415 17 437.5 22 c 128,-1,52
 460 27 460 27 486 27 c 1,53,54
 486 14 486 14 477.5 5.5 c 128,-1,55
 469 -3 469 -3 456 -7.5 c 128,-1,56
 443 -12 443 -12 427 -14 c 128,-1,57
 411 -16 411 -16 397 -16 c 2,58,-1
 367 -16 l 2,59,60
 325 -16 325 -16 291 5.5 c 128,-1,61
 257 27 257 27 232 60 c 1,4,-1
49 52 m 0,62,63
 49 39 49 39 56 34.5 c 128,-1,64
 63 30 63 30 78 18 c 1,65,-1
 81 18 l 2,66,67
 104 18 104 18 128.5 34.5 c 128,-1,68
 153 51 153 51 176 77 c 128,-1,69
 199 103 199 103 219 135.5 c 128,-1,70
 239 168 239 168 254.5 199.5 c 128,-1,71
 270 231 270 231 279 259 c 128,-1,72
 288 287 288 287 288 305 c 0,73,74
 288 314 288 314 283 316.5 c 128,-1,75
 278 319 278 319 270 319 c 0,76,77
 250 319 250 319 225.5 303 c 128,-1,78
 201 287 201 287 176.5 262.5 c 128,-1,79
 152 238 152 238 129 207 c 128,-1,80
 106 176 106 176 88 146.5 c 128,-1,81
 70 117 70 117 59.5 91.5 c 128,-1,82
 49 66 49 66 49 52 c 0,62,63
EndSplineSet
EndChar

StartChar: eacute
Encoding: 233 233 62
Width: 421
Flags: W
LayerCount: 2
Fore
SplineSet
388 405 m 5,0,-1
 416 400 l 5,1,-1
 388 336 l 1,2,-1
 359 341 l 1,3,-1
 388 405 l 5,0,-1
386 318 m 1,4,5
 386 285 386 285 370 254 c 128,-1,6
 354 223 354 223 331 194.5 c 128,-1,7
 308 166 308 166 282 139.5 c 128,-1,8
 256 113 256 113 237 90 c 0,9,10
 228 79 228 79 222 72.5 c 128,-1,11
 216 66 216 66 216 55 c 0,12,13
 216 49 216 49 219 41.5 c 128,-1,14
 222 34 222 34 230 34 c 2,15,-1
 321 34 l 1,16,-1
 335 41 l 2,17,18
 339 42 339 42 348 45 c 128,-1,19
 357 48 357 48 367 51.5 c 128,-1,20
 377 55 377 55 386 58 c 2,21,-1
 398 62 l 1,22,-1
 402 62 l 2,23,24
 410 62 410 62 415 55.5 c 128,-1,25
 420 49 420 49 420 41 c 0,26,27
 420 27 420 27 400 17.5 c 128,-1,28
 380 8 380 8 353.5 2.5 c 128,-1,29
 327 -3 327 -3 301 -5.5 c 128,-1,30
 275 -8 275 -8 264 -8 c 0,31,32
 249 -8 249 -8 236.5 -2.5 c 128,-1,33
 224 3 224 3 212.5 9.5 c 128,-1,34
 201 16 201 16 190.5 21.5 c 128,-1,35
 180 27 180 27 171 27 c 2,36,-1
 168 27 l 1,37,38
 147 16 147 16 125.5 4.5 c 128,-1,39
 104 -7 104 -7 82.5 -16 c 128,-1,40
 61 -25 61 -25 38 -31 c 128,-1,41
 15 -37 15 -37 -9 -37 c 1,42,43
 -9 -20 -9 -20 1 -10 c 128,-1,44
 11 0 11 0 27 6.5 c 128,-1,45
 43 13 43 13 62.5 17.5 c 128,-1,46
 82 22 82 22 100.5 28 c 128,-1,47
 119 34 119 34 133.5 43.5 c 128,-1,48
 148 53 148 53 154 69 c 0,49,50
 154 70 154 70 155 76.5 c 128,-1,51
 156 83 156 83 157 90 c 128,-1,52
 158 97 158 97 159 103 c 128,-1,53
 160 109 160 109 161 111 c 0,54,55
 162 115 162 115 167.5 124 c 128,-1,56
 173 133 173 133 179.5 143 c 128,-1,57
 186 153 186 153 192.5 161.5 c 128,-1,58
 199 170 199 170 203 174 c 0,59,60
 208 179 208 179 225 195.5 c 128,-1,61
 242 212 242 212 262 230.5 c 128,-1,62
 282 249 282 249 300.5 266.5 c 128,-1,63
 319 284 319 284 328 292 c 0,64,65
 344 306 344 306 354.5 312 c 128,-1,66
 365 318 365 318 386 318 c 1,4,5
EndSplineSet
EndChar

StartChar: iacute
Encoding: 237 237 63
Width: 228
Flags: W
LayerCount: 2
Fore
SplineSet
241 390 m 1,0,-1
 270 380 l 1,1,-1
 238 321 l 1,2,-1
 210 325 l 1,3,-1
 241 390 l 1,0,-1
10 58 m 0,4,5
 10 68 10 68 11 75 c 128,-1,6
 12 82 12 82 17 93 c 0,7,8
 23 100 23 100 38.5 119 c 128,-1,9
 54 138 54 138 72 159 c 128,-1,10
 90 180 90 180 106 199 c 128,-1,11
 122 218 122 218 129 225 c 0,12,13
 131 228 131 228 138 235 c 128,-1,14
 145 242 145 242 152.5 250 c 128,-1,15
 160 258 160 258 167 264.5 c 128,-1,16
 174 271 174 271 177 274 c 0,17,18
 178 274 178 274 180.5 274.5 c 128,-1,19
 183 275 183 275 184 275 c 0,20,21
 198 275 198 275 198 256 c 2,22,-1
 198 253 l 2,23,24
 197 251 197 251 195 246 c 128,-1,25
 193 241 193 241 191 239 c 0,26,27
 184 231 184 231 167 212.5 c 128,-1,28
 150 194 150 194 131.5 173 c 128,-1,29
 113 152 113 152 96 133 c 128,-1,30
 79 114 79 114 73 107 c 0,31,32
 65 97 65 97 58 85 c 128,-1,33
 51 73 51 73 51 60 c 0,34,35
 51 52 51 52 53 46.5 c 128,-1,36
 55 41 55 41 66 37 c 0,37,38
 68 37 68 37 78 36.5 c 128,-1,39
 88 36 88 36 90 36 c 0,40,41
 111 36 111 36 129.5 43 c 128,-1,42
 148 50 148 50 164.5 58 c 128,-1,43
 181 66 181 66 197 73 c 128,-1,44
 213 80 213 80 231 80 c 1,45,46
 231 57 231 57 214.5 41 c 128,-1,47
 198 25 198 25 174.5 14.5 c 128,-1,48
 151 4 151 4 125.5 -0.5 c 128,-1,49
 100 -5 100 -5 83 -5 c 0,50,51
 52 -5 52 -5 31 10 c 128,-1,52
 10 25 10 25 10 58 c 0,4,5
EndSplineSet
EndChar

StartChar: oacute
Encoding: 243 243 64
Width: 287
Flags: W
LayerCount: 2
Fore
SplineSet
269 392 m 1,0,-1
 301 386 l 1,1,-1
 270 324 l 1,2,-1
 238 328 l 1,3,-1
 269 392 l 1,0,-1
3 18 m 0,4,5
 3 49 3 49 20 71.5 c 128,-1,6
 37 94 37 94 53 118 c 0,7,8
 67 141 67 141 84.5 172.5 c 128,-1,9
 102 204 102 204 124 232.5 c 128,-1,10
 146 261 146 261 173 281 c 128,-1,11
 200 301 200 301 234 301 c 0,12,13
 256 301 256 301 269.5 291.5 c 128,-1,14
 283 282 283 282 283 259 c 0,15,16
 283 215 283 215 264.5 163.5 c 128,-1,17
 246 112 246 112 214 68 c 128,-1,18
 182 24 182 24 139.5 -5 c 128,-1,19
 97 -34 97 -34 49 -34 c 0,20,21
 39 -34 39 -34 30.5 -29 c 128,-1,22
 22 -24 22 -24 16 -16.5 c 128,-1,23
 10 -9 10 -9 6.5 0.5 c 128,-1,24
 3 10 3 10 3 18 c 0,4,5
45 28 m 0,25,26
 45 16 45 16 52.5 14.5 c 128,-1,27
 60 13 60 13 70 13 c 0,28,29
 77 13 77 13 88.5 16 c 128,-1,30
 100 19 100 19 110.5 24 c 128,-1,31
 121 29 121 29 129 36 c 128,-1,32
 137 43 137 43 137 52 c 0,33,34
 137 56 137 56 129 62 c 128,-1,35
 121 68 121 68 111 75 c 0,36,37
 100 82 100 82 84 91 c 0,38,39
 76 91 76 91 69 83 c 128,-1,40
 62 75 62 75 57 64.5 c 128,-1,41
 52 54 52 54 48.5 43.5 c 128,-1,42
 45 33 45 33 45 28 c 0,25,26
122 140 m 0,43,44
 122 97 122 97 165 97 c 0,45,46
 182 97 182 97 197 116.5 c 128,-1,47
 212 136 212 136 223.5 162 c 128,-1,48
 235 188 235 188 241.5 214.5 c 128,-1,49
 248 241 248 241 248 255 c 0,50,51
 248 261 248 261 243.5 263.5 c 128,-1,52
 239 266 239 266 234 266 c 0,53,54
 222 266 222 266 203 250.5 c 128,-1,55
 184 235 184 235 166 214 c 128,-1,56
 148 193 148 193 135 172 c 128,-1,57
 122 151 122 151 122 140 c 0,43,44
EndSplineSet
EndChar

StartChar: uacute
Encoding: 250 250 65
Width: 412
Flags: W
LayerCount: 2
Fore
SplineSet
218 415 m 5,0,-1
 253 412 l 1,1,-1
 227 336 l 1,2,-1
 190 337 l 1,3,-1
 218 415 l 5,0,-1
10 59 m 0,4,5
 10 67 10 67 16 87.5 c 128,-1,6
 22 108 22 108 31 134 c 128,-1,7
 40 160 40 160 51 188 c 128,-1,8
 62 216 62 216 72 239 c 256,9,10
 82 262 82 262 90 277 c 128,-1,11
 98 292 98 292 101 293 c 256,12,13
 104 294 104 294 116.5 295 c 128,-1,14
 129 296 129 296 132 296 c 1,15,16
 132 266 132 266 120.5 238 c 128,-1,17
 109 210 109 210 95 182 c 128,-1,18
 81 154 81 154 69.5 125.5 c 128,-1,19
 58 97 58 97 58 66 c 0,20,21
 58 53 58 53 63.5 50.5 c 128,-1,22
 69 48 69 48 81 48 c 0,23,24
 89 48 89 48 93.5 48.5 c 128,-1,25
 98 49 98 49 101.5 51 c 128,-1,26
 105 53 105 53 109.5 57.5 c 2,27,-1
 122 70 l 1,28,-1
 178 126 l 2,29,30
 182 134 182 134 192 153.5 c 128,-1,31
 202 173 202 173 213 195.5 c 128,-1,32
 224 218 224 218 233.5 237.5 c 128,-1,33
 243 257 243 257 247 265 c 0,34,35
 252 274 252 274 261.5 287.5 c 128,-1,36
 271 301 271 301 283 301 c 0,37,38
 291 301 291 301 294 294 c 128,-1,39
 297 287 297 287 297 279 c 0,40,41
 297 256 297 256 287 234.5 c 128,-1,42
 277 213 277 213 265 192 c 128,-1,43
 253 171 253 171 243 149 c 128,-1,44
 233 127 233 127 233 103 c 0,45,46
 233 92 233 92 239 81 c 128,-1,47
 245 70 245 70 255 61.5 c 128,-1,48
 265 53 265 53 276.5 47.5 c 128,-1,49
 288 42 288 42 299 42 c 0,50,51
 312 42 312 42 322 45.5 c 128,-1,52
 332 49 332 49 341 53 c 128,-1,53
 350 57 350 57 359.5 60.5 c 128,-1,54
 369 64 369 64 380 64 c 0,55,56
 389 64 389 64 395.5 61.5 c 128,-1,57
 402 59 402 59 402 48 c 0,58,59
 402 42 402 42 396.5 35 c 128,-1,60
 391 28 391 28 383 21.5 c 128,-1,61
 375 15 375 15 366.5 11 c 128,-1,62
 358 7 358 7 352 7 c 2,63,-1
 261 7 l 2,64,65
 259 7 259 7 248.5 12.5 c 128,-1,66
 238 18 238 18 233 21 c 0,67,68
 230 23 230 23 224 28.5 c 128,-1,69
 218 34 218 34 211.5 41 c 128,-1,70
 205 48 205 48 199.5 54 c 128,-1,71
 194 60 194 60 192 63 c 2,72,-1
 188 63 l 2,73,74
 179 63 179 63 164.5 53 c 128,-1,75
 150 43 150 43 134.5 31.5 c 128,-1,76
 119 20 119 20 102.5 10 c 128,-1,77
 86 0 86 0 73 0 c 0,78,79
 49 0 49 0 29.5 16.5 c 128,-1,80
 10 33 10 33 10 59 c 0,4,5
EndSplineSet
EndChar

StartChar: udieresis
Encoding: 252 252 66
Width: 412
Flags: W
LayerCount: 2
Fore
SplineSet
238 373 m 5,0,-1
 260.686533479 370.294228634 l 1,1,-1
 269.686533479 349.294228634 l 1,2,-1
 256 331 l 1,3,-1
 233.313466521 333.705771366 l 1,4,-1
 224.313466521 354.705771366 l 1,5,-1
 238 373 l 5,0,-1
126 374 m 1,0,-1
 149.686533479 373.026279442 l 1,1,-1
 160.686533479 352.026279442 l 1,2,-1
 148 332 l 1,3,-1
 124.313466521 332.973720558 l 1,4,-1
 113.313466521 353.973720558 l 1,5,-1
 126 374 l 1,0,-1
10 59 m 0,6,7
 10 67 10 67 16 87.5 c 128,-1,8
 22 108 22 108 31 134 c 128,-1,9
 40 160 40 160 51 188 c 128,-1,10
 62 216 62 216 72 239 c 256,11,12
 82 262 82 262 90 277 c 128,-1,13
 98 292 98 292 101 293 c 256,14,15
 104 294 104 294 116.5 295 c 128,-1,16
 129 296 129 296 132 296 c 1,17,18
 132 266 132 266 120.5 238 c 128,-1,19
 109 210 109 210 95 182 c 128,-1,20
 81 154 81 154 69.5 125.5 c 128,-1,21
 58 97 58 97 58 66 c 0,22,23
 58 53 58 53 63.5 50.5 c 128,-1,24
 69 48 69 48 81 48 c 0,25,26
 89 48 89 48 93.5 48.5 c 128,-1,27
 98 49 98 49 101.5 51 c 128,-1,28
 105 53 105 53 109.5 57.5 c 2,29,-1
 122 70 l 1,30,-1
 178 126 l 2,31,32
 182 134 182 134 192 153.5 c 128,-1,33
 202 173 202 173 213 195.5 c 128,-1,34
 224 218 224 218 233.5 237.5 c 128,-1,35
 243 257 243 257 247 265 c 0,36,37
 252 274 252 274 261.5 287.5 c 128,-1,38
 271 301 271 301 283 301 c 0,39,40
 291 301 291 301 294 294 c 128,-1,41
 297 287 297 287 297 279 c 0,42,43
 297 256 297 256 287 234.5 c 128,-1,44
 277 213 277 213 265 192 c 128,-1,45
 253 171 253 171 243 149 c 128,-1,46
 233 127 233 127 233 103 c 0,47,48
 233 92 233 92 239 81 c 128,-1,49
 245 70 245 70 255 61.5 c 128,-1,50
 265 53 265 53 276.5 47.5 c 128,-1,51
 288 42 288 42 299 42 c 0,52,53
 312 42 312 42 322 45.5 c 128,-1,54
 332 49 332 49 341 53 c 128,-1,55
 350 57 350 57 359.5 60.5 c 128,-1,56
 369 64 369 64 380 64 c 0,57,58
 389 64 389 64 395.5 61.5 c 128,-1,59
 402 59 402 59 402 48 c 0,60,61
 402 42 402 42 396.5 35 c 128,-1,62
 391 28 391 28 383 21.5 c 128,-1,63
 375 15 375 15 366.5 11 c 128,-1,64
 358 7 358 7 352 7 c 2,65,-1
 261 7 l 2,66,67
 259 7 259 7 248.5 12.5 c 128,-1,68
 238 18 238 18 233 21 c 0,69,70
 230 23 230 23 224 28.5 c 128,-1,71
 218 34 218 34 211.5 41 c 128,-1,72
 205 48 205 48 199.5 54 c 128,-1,73
 194 60 194 60 192 63 c 2,74,-1
 188 63 l 2,75,76
 179 63 179 63 164.5 53 c 128,-1,77
 150 43 150 43 134.5 31.5 c 128,-1,78
 119 20 119 20 102.5 10 c 128,-1,79
 86 0 86 0 73 0 c 0,80,81
 49 0 49 0 29.5 16.5 c 128,-1,82
 10 33 10 33 10 59 c 0,6,7
EndSplineSet
EndChar

StartChar: Udieresis
Encoding: 220 220 67
Width: 615
Flags: W
LayerCount: 2
Fore
SplineSet
362 676 m 1,0,-1
 389.248711306 667.196152423 l 1,1,-1
 395.248711306 639.196152423 l 1,2,-1
 374 620 l 1,3,-1
 346.751288694 628.803847577 l 1,4,-1
 340.751288694 656.803847577 l 1,5,-1
 362 676 l 1,0,-1
199 678 m 1,6,-1
 226.784609691 678.124355653 l 1,7,-1
 240.784609691 654.124355653 l 1,8,-1
 227 630 l 1,9,-1
 199.215390309 629.875644347 l 1,10,-1
 185.215390309 653.875644347 l 1,11,-1
 199 678 l 1,6,-1
10 64 m 0,12,13
 10 83 10 83 12 99.5 c 128,-1,14
 14 116 14 116 17 136 c 0,15,16
 49 236 49 236 83 332 c 128,-1,17
 117 428 117 428 150 527 c 0,18,19
 154 538 154 538 161.5 547 c 128,-1,20
 169 556 169 556 182 556 c 0,21,22
 193 556 193 556 196 549 c 128,-1,23
 199 542 199 542 199 531 c 2,24,-1
 199 527 l 2,25,26
 196 516 196 516 187 490.5 c 128,-1,27
 178 465 178 465 167.5 436.5 c 128,-1,28
 157 408 157 408 148 382 c 128,-1,29
 139 356 139 356 136 345 c 0,30,31
 124 313 124 313 109 279 c 128,-1,32
 94 245 94 245 81.5 210 c 128,-1,33
 69 175 69 175 60 139.5 c 128,-1,34
 51 104 51 104 51 68 c 0,35,36
 51 57 51 57 61.5 47.5 c 128,-1,37
 72 38 72 38 83 38 c 0,38,39
 104 38 104 38 129.5 52 c 128,-1,40
 155 66 155 66 181.5 88.5 c 128,-1,41
 208 111 208 111 233.5 139 c 128,-1,42
 259 167 259 167 280 196 c 128,-1,43
 301 225 301 225 316.5 251.5 c 128,-1,44
 332 278 332 278 338 297 c 2,45,-1
 422 555 l 2,46,47
 427 569 427 569 442 571.5 c 128,-1,48
 457 574 457 574 467 574 c 1,49,50
 467 548 467 548 458 528 c 128,-1,51
 449 508 449 508 443 485 c 0,52,53
 435 450 435 450 423 414.5 c 128,-1,54
 411 379 411 379 400 343 c 128,-1,55
 389 307 389 307 381 270.5 c 128,-1,56
 373 234 373 234 373 198 c 0,57,58
 373 178 373 178 381 161.5 c 128,-1,59
 389 145 389 145 402.5 133 c 128,-1,60
 416 121 416 121 433.5 114 c 128,-1,61
 451 107 451 107 471 107 c 0,62,63
 489 107 489 107 506 113 c 128,-1,64
 523 119 523 119 539.5 126 c 128,-1,65
 556 133 556 133 573 139 c 128,-1,66
 590 145 590 145 608 145 c 1,67,68
 608 125 608 125 590 110 c 128,-1,69
 572 95 572 95 548 85 c 128,-1,70
 524 75 524 75 499 70 c 128,-1,71
 474 65 474 65 460 65 c 0,72,73
 427 65 427 65 404 80.5 c 128,-1,74
 381 96 381 96 364.5 114.5 c 128,-1,75
 348 133 348 133 337 148.5 c 128,-1,76
 326 164 326 164 317 164 c 0,77,78
 312 164 312 164 300 152 c 128,-1,79
 288 140 288 140 270.5 122 c 128,-1,80
 253 104 253 104 231.5 83 c 128,-1,81
 210 62 210 62 186 44 c 128,-1,82
 162 26 162 26 136 14 c 128,-1,83
 110 2 110 2 85 2 c 0,84,85
 55 2 55 2 32.5 15 c 128,-1,86
 10 28 10 28 10 64 c 0,12,13
EndSplineSet
EndChar

StartChar: zero
Encoding: 48 48 68
Width: 501
Flags: WO
LayerCount: 2
Fore
SplineSet
137 350 m 0,0,1
 141 410 141 410 180 462.5 c 128,-1,2
 219 515 219 515 275 543 c 1,3,4
 326 542 326 542 367.5 506 c 128,-1,5
 409 470 409 470 398 421 c 1,6,7
 399 369 399 369 386.5 315 c 128,-1,8
 374 261 374 261 348.5 213 c 128,-1,9
 323 165 323 165 277 137 c 128,-1,10
 231 109 231 109 173 115 c 1,11,12
 129 112 129 112 108 155 c 128,-1,13
 87 198 87 198 89 245 c 0,14,15
 99 327 99 327 152 427 c 1024,16,-1
147 487 m 0,17,18
 170 523 170 523 189.5 547 c 128,-1,19
 209 571 209 571 243.5 591.5 c 128,-1,20
 278 612 278 612 314 606 c 1,21,22
 392 620 392 620 432.5 555.5 c 128,-1,23
 473 491 473 491 459 414 c 1,24,25
 457 278 457 278 355 163.5 c 128,-1,26
 253 49 253 49 118 50 c 1,27,28
 51 63 51 63 49 212 c 1,29,30
 53 254 53 254 54 266.5 c 128,-1,31
 55 279 55 279 60.5 318.5 c 128,-1,32
 66 358 66 358 72.5 377 c 128,-1,33
 79 396 79 396 90 425.5 c 128,-1,34
 101 455 101 455 117 475.5 c 128,-1,35
 133 496 133 496 154 511 c 1024,36,-1
EndSplineSet
EndChar
